<svg width="249" height="388" viewBox="0 0 249 388" fill="none" xmlns="http://www.w3.org/2000/svg">
<circle cx="28" cy="28" r="27.5" fill="#7570FF" fill-opacity="0.4" stroke="#7065F0"/>
<path d="M33.3996 27.2999C33.3996 30.2822 30.9819 32.6999 27.9996 32.6999C25.0173 32.6999 22.5996 30.2822 22.5996 27.2999C22.5996 24.3176 25.0173 21.8999 27.9996 21.8999C30.9819 21.8999 33.3996 24.3176 33.3996 27.2999Z" fill="white" stroke="#7065F0" stroke-width="6"/>
<path d="M29 48L24.7246 84.7687C24.2991 88.4275 26.4269 91.9039 29.8787 93.1896L239.925 171.424C243.234 172.656 245.344 175.913 245.116 179.437L238.665 279.213C238.328 284.426 233.167 287.923 228.2 286.303L126.274 253.047C122.631 251.858 118.657 253.42 116.797 256.77L62 355.5" stroke="url(#paint0_linear_174_3631)" stroke-width="6"/>
<circle cx="61" cy="380" r="8" fill="#CECBF6"/>
<circle cx="61" cy="331" r="28" fill="#7065F0"/>
<g clip-path="url(#clip0_174_3631)">
<path d="M67.9993 327.71L62.6663 323.562C62.1983 323.198 61.6223 323 61.0293 323C60.4363 323 59.8603 323.198 59.3923 323.562L54.0583 327.71C53.7377 327.959 53.4784 328.278 53.3001 328.643C53.1217 329.008 53.0291 329.409 53.0293 329.815V337.015C53.0293 337.545 53.24 338.054 53.6151 338.429C53.9902 338.804 54.4989 339.015 55.0293 339.015H67.0293C67.5597 339.015 68.0684 338.804 68.4435 338.429C68.8186 338.054 69.0293 337.545 69.0293 337.015V329.815C69.0293 328.992 68.6493 328.215 67.9993 327.71Z" fill="white" stroke="white" stroke-width="3" stroke-linecap="round" stroke-linejoin="round"/>
<path d="M65 334C62.79 335.333 59.208 335.333 57 334" stroke="#7065F0" stroke-width="3" stroke-linecap="round" stroke-linejoin="round"/>
</g>
<path d="M62.732 364C61.9622 365.333 60.0377 365.333 59.2679 364L55.8038 358C55.034 356.667 55.9963 355 57.5359 355L64.4641 355C66.0037 355 66.966 356.667 66.1962 358L62.732 364Z" fill="#7065F0"/>
<defs>
<linearGradient id="paint0_linear_174_3631" x1="70.5" y1="378.5" x2="26.5" y2="48" gradientUnits="userSpaceOnUse">
<stop stop-color="#100A55"/>
<stop offset="1" stop-color="#100A55" stop-opacity="0"/>
</linearGradient>
<clipPath id="clip0_174_3631">
<rect width="24" height="24" fill="white" transform="translate(49 319)"/>
</clipPath>
</defs>
</svg>
