<svg width="392" height="163" viewBox="0 0 392 163" fill="none" xmlns="http://www.w3.org/2000/svg">
<g filter="url(#filter0_d_38_2750)">
<rect x="39" y="38.4445" width="313.958" height="85.5556" rx="6.11111" fill="white"/>
<rect x="39.5729" y="39.0174" width="312.812" height="84.4097" rx="5.53819" stroke="#E0DEF7" stroke-width="1.14583"/>
</g>
<path d="M67.4472 74.9305V69.8889L63.6125 63.5486H65.9806L68.9139 68.4986H68.0736L70.9917 63.5486H73.3597L69.5403 69.8736V74.9305H67.4472ZM77.0472 75.1139C76.2324 75.1139 75.4888 74.9254 74.8166 74.5486C74.1546 74.1717 73.6249 73.6574 73.2277 73.0055C72.8407 72.3537 72.6472 71.6102 72.6472 70.775C72.6472 69.9398 72.8407 69.1963 73.2277 68.5444C73.6249 67.8926 74.1546 67.3782 74.8166 67.0014C75.4787 66.6245 76.2222 66.4361 77.0472 66.4361C77.862 66.4361 78.6004 66.6245 79.2624 67.0014C79.9245 67.3782 80.449 67.8926 80.8361 68.5444C81.2333 69.1861 81.4319 69.9296 81.4319 70.775C81.4319 71.6102 81.2333 72.3537 80.8361 73.0055C80.4388 73.6574 79.9092 74.1717 79.2472 74.5486C78.5851 74.9254 77.8518 75.1139 77.0472 75.1139ZM77.0472 73.2805C77.4953 73.2805 77.8874 73.1736 78.2236 72.9597C78.5699 72.7458 78.8398 72.4504 79.0333 72.0736C79.237 71.6866 79.3388 71.2537 79.3388 70.775C79.3388 70.2861 79.237 69.8583 79.0333 69.4917C78.8398 69.1148 78.5699 68.8194 78.2236 68.6055C77.8874 68.3815 77.4953 68.2694 77.0472 68.2694C76.5888 68.2694 76.1865 68.3815 75.8402 68.6055C75.4939 68.8194 75.2189 69.1148 75.0152 69.4917C74.8217 69.8583 74.7249 70.2861 74.7249 70.775C74.7249 71.2537 74.8217 71.6866 75.0152 72.0736C75.2189 72.4504 75.4939 72.7458 75.8402 72.9597C76.1865 73.1736 76.5888 73.2805 77.0472 73.2805ZM85.8371 75.1139C85.1955 75.1139 84.6353 74.9713 84.1566 74.6861C83.6881 74.4009 83.3265 74.0037 83.0719 73.4944C82.8274 72.9852 82.7052 72.3893 82.7052 71.7069V66.6194H84.7066V71.5389C84.7066 71.8852 84.7728 72.1907 84.9052 72.4555C85.0478 72.7102 85.2464 72.9139 85.501 73.0667C85.7658 73.2092 86.0612 73.2805 86.3871 73.2805C86.7131 73.2805 87.0033 73.2092 87.258 73.0667C87.5126 72.9139 87.7112 72.7051 87.8538 72.4403C87.9964 72.1754 88.0677 71.8597 88.0677 71.493V66.6194H90.0691V74.9305H88.1746V73.2958L88.3427 73.5861C88.1492 74.0954 87.8283 74.4773 87.3802 74.7319C86.9422 74.9866 86.4279 75.1139 85.8371 75.1139ZM91.8531 74.9305V66.6194H93.7323V68.468L93.5795 68.193C93.773 67.5717 94.0735 67.1389 94.4809 66.8944C94.8985 66.65 95.3976 66.5278 95.9781 66.5278H96.467V68.3H95.749C95.1786 68.3 94.7203 68.4782 94.374 68.8347C94.0277 69.181 93.8545 69.6699 93.8545 70.3014V74.9305H91.8531ZM104.072 75.1139C103.216 75.1139 102.467 74.9204 101.826 74.5333C101.184 74.1463 100.685 73.6217 100.329 72.9597C99.9721 72.2977 99.7939 71.5643 99.7939 70.7597C99.7939 69.9245 99.9721 69.1861 100.329 68.5444C100.695 67.8926 101.189 67.3782 101.811 67.0014C102.442 66.6245 103.145 66.4361 103.919 66.4361C104.571 66.4361 105.141 66.543 105.63 66.7569C106.129 66.9708 106.552 67.2662 106.898 67.643C107.244 68.0199 107.509 68.4528 107.692 68.9417C107.876 69.4204 107.967 69.9398 107.967 70.5C107.967 70.6426 107.957 70.7903 107.937 70.943C107.927 71.0958 107.901 71.2282 107.861 71.3403H101.444V69.8125H106.73L105.783 70.5305C105.874 70.062 105.849 69.6444 105.706 69.2778C105.574 68.9111 105.35 68.6208 105.034 68.4069C104.729 68.193 104.357 68.0861 103.919 68.0861C103.501 68.0861 103.13 68.193 102.804 68.4069C102.478 68.6106 102.228 68.9162 102.055 69.3236C101.892 69.7208 101.831 70.2046 101.872 70.775C101.831 71.2842 101.897 71.7375 102.07 72.1347C102.254 72.5217 102.518 72.8222 102.865 73.0361C103.221 73.25 103.629 73.3569 104.087 73.3569C104.545 73.3569 104.932 73.2602 105.248 73.0667C105.574 72.8731 105.829 72.6134 106.012 72.2875L107.631 73.0819C107.468 73.4792 107.214 73.8305 106.867 74.1361C106.521 74.4417 106.109 74.681 105.63 74.8542C105.161 75.0273 104.642 75.1139 104.072 75.1139ZM112.571 75.1139C111.685 75.1139 110.911 74.9051 110.249 74.4875C109.597 74.0597 109.149 73.4842 108.904 72.7611L110.401 72.043C110.615 72.5116 110.911 72.8782 111.287 73.143C111.674 73.4079 112.102 73.5403 112.571 73.5403C112.937 73.5403 113.228 73.4588 113.442 73.2958C113.655 73.1329 113.762 72.919 113.762 72.6542C113.762 72.4912 113.717 72.3588 113.625 72.2569C113.543 72.1449 113.426 72.0532 113.274 71.9819C113.131 71.9004 112.973 71.8342 112.8 71.7833L111.44 71.4014C110.737 71.1977 110.203 70.887 109.836 70.4694C109.48 70.0518 109.301 69.5579 109.301 68.9875C109.301 68.4782 109.429 68.0352 109.683 67.6583C109.948 67.2713 110.31 66.9708 110.768 66.7569C111.236 66.543 111.771 66.4361 112.372 66.4361C113.156 66.4361 113.849 66.6245 114.45 67.0014C115.051 67.3782 115.479 67.9079 115.733 68.5903L114.205 69.3083C114.063 68.9315 113.824 68.631 113.487 68.4069C113.151 68.1829 112.774 68.0708 112.357 68.0708C112.021 68.0708 111.756 68.1472 111.562 68.3C111.369 68.4528 111.272 68.6514 111.272 68.8958C111.272 69.0486 111.313 69.181 111.394 69.293C111.476 69.4051 111.588 69.4967 111.73 69.568C111.883 69.6393 112.056 69.7055 112.25 69.7667L113.579 70.1639C114.261 70.3676 114.786 70.6731 115.153 71.0805C115.53 71.4879 115.718 71.987 115.718 72.5778C115.718 73.0768 115.586 73.5199 115.321 73.9069C115.056 74.2838 114.689 74.5792 114.221 74.793C113.752 75.0069 113.202 75.1139 112.571 75.1139ZM120.969 75.0222C120.031 75.0222 119.303 74.7676 118.784 74.2583C118.275 73.7389 118.02 73.0106 118.02 72.0736V68.4069H116.584V66.6194H116.737C117.144 66.6194 117.46 66.5125 117.684 66.2986C117.908 66.0847 118.02 65.7741 118.02 65.3667V64.725H120.021V66.6194H121.931V68.4069H120.021V71.9667C120.021 72.2417 120.067 72.4759 120.159 72.6694C120.261 72.8629 120.413 73.0106 120.617 73.1125C120.831 73.2143 121.101 73.2653 121.427 73.2653C121.498 73.2653 121.58 73.2602 121.671 73.25C121.773 73.2398 121.87 73.2296 121.962 73.2194V74.9305C121.819 74.9509 121.656 74.9713 121.473 74.9917C121.289 75.012 121.121 75.0222 120.969 75.0222ZM125.905 75.1139C125.325 75.1139 124.821 75.0171 124.393 74.8236C123.965 74.6301 123.634 74.3551 123.4 73.9986C123.165 73.6319 123.048 73.2092 123.048 72.7305C123.048 72.2722 123.15 71.8648 123.354 71.5083C123.558 71.1417 123.873 70.8361 124.301 70.5917C124.729 70.3472 125.269 70.1741 125.921 70.0722L128.64 69.6292V71.1569L126.302 71.5542C125.905 71.6254 125.61 71.7528 125.416 71.9361C125.223 72.1194 125.126 72.3588 125.126 72.6542C125.126 72.9393 125.233 73.1685 125.447 73.3417C125.671 73.5046 125.946 73.5861 126.272 73.5861C126.69 73.5861 127.056 73.4995 127.372 73.3264C127.698 73.143 127.947 72.8935 128.121 72.5778C128.304 72.262 128.396 71.9157 128.396 71.5389V69.4C128.396 69.0435 128.253 68.7481 127.968 68.5139C127.693 68.2694 127.326 68.1472 126.868 68.1472C126.44 68.1472 126.058 68.2643 125.722 68.4986C125.396 68.7227 125.157 69.0231 125.004 69.4L123.369 68.6055C123.532 68.1676 123.787 67.7907 124.133 67.475C124.49 67.1491 124.907 66.8944 125.386 66.7111C125.865 66.5278 126.384 66.4361 126.944 66.4361C127.627 66.4361 128.227 66.5634 128.747 66.818C129.266 67.0625 129.669 67.4088 129.954 67.8569C130.249 68.2949 130.397 68.8092 130.397 69.4V74.9305H128.502V73.5097L128.93 73.4792C128.716 73.8356 128.462 74.1361 128.166 74.3805C127.871 74.6148 127.535 74.7981 127.158 74.9305C126.781 75.0528 126.364 75.1139 125.905 75.1139ZM135.81 75.0222C134.873 75.0222 134.145 74.7676 133.625 74.2583C133.116 73.7389 132.861 73.0106 132.861 72.0736V68.4069H131.425V66.6194H131.578C131.985 66.6194 132.301 66.5125 132.525 66.2986C132.749 66.0847 132.861 65.7741 132.861 65.3667V64.725H134.863V66.6194H136.773V68.4069H134.863V71.9667C134.863 72.2417 134.909 72.4759 135 72.6694C135.102 72.8629 135.255 73.0106 135.459 73.1125C135.673 73.2143 135.942 73.2653 136.268 73.2653C136.34 73.2653 136.421 73.2602 136.513 73.25C136.615 73.2398 136.711 73.2296 136.803 73.2194V74.9305C136.66 74.9509 136.498 74.9713 136.314 74.9917C136.131 75.012 135.963 75.0222 135.81 75.0222ZM142.123 75.1139C141.267 75.1139 140.519 74.9204 139.877 74.5333C139.235 74.1463 138.736 73.6217 138.38 72.9597C138.023 72.2977 137.845 71.5643 137.845 70.7597C137.845 69.9245 138.023 69.1861 138.38 68.5444C138.746 67.8926 139.24 67.3782 139.862 67.0014C140.493 66.6245 141.196 66.4361 141.97 66.4361C142.622 66.4361 143.192 66.543 143.681 66.7569C144.18 66.9708 144.603 67.2662 144.949 67.643C145.296 68.0199 145.56 68.4528 145.744 68.9417C145.927 69.4204 146.019 69.9398 146.019 70.5C146.019 70.6426 146.009 70.7903 145.988 70.943C145.978 71.0958 145.952 71.2282 145.912 71.3403H139.495V69.8125H144.781L143.834 70.5305C143.926 70.062 143.9 69.6444 143.758 69.2778C143.625 68.9111 143.401 68.6208 143.085 68.4069C142.78 68.193 142.408 68.0861 141.97 68.0861C141.552 68.0861 141.181 68.193 140.855 68.4069C140.529 68.6106 140.279 68.9162 140.106 69.3236C139.943 69.7208 139.882 70.2046 139.923 70.775C139.882 71.2842 139.948 71.7375 140.121 72.1347C140.305 72.5217 140.57 72.8222 140.916 73.0361C141.272 73.25 141.68 73.3569 142.138 73.3569C142.596 73.3569 142.984 73.2602 143.299 73.0667C143.625 72.8731 143.88 72.6134 144.063 72.2875L145.683 73.0819C145.52 73.4792 145.265 73.8305 144.919 74.1361C144.572 74.4417 144.16 74.681 143.681 74.8542C143.213 75.0273 142.693 75.1139 142.123 75.1139ZM148.101 77.3139V76.3208C148.437 76.2393 148.707 76.0815 148.911 75.8472C149.125 75.6231 149.257 75.3176 149.308 74.9305H148.407V72.7917H150.423V74.1055C150.423 75.0018 150.225 75.7199 149.828 76.2597C149.44 76.7995 148.865 77.1509 148.101 77.3139ZM158.554 74.9305V69.8889L154.719 63.5486H157.087L160.02 68.4986H159.18L162.098 63.5486H164.466L160.647 69.8736V74.9305H158.554ZM168.153 75.1139C167.339 75.1139 166.595 74.9254 165.923 74.5486C165.261 74.1717 164.731 73.6574 164.334 73.0055C163.947 72.3537 163.753 71.6102 163.753 70.775C163.753 69.9398 163.947 69.1963 164.334 68.5444C164.731 67.8926 165.261 67.3782 165.923 67.0014C166.585 66.6245 167.328 66.4361 168.153 66.4361C168.968 66.4361 169.707 66.6245 170.369 67.0014C171.031 67.3782 171.555 67.8926 171.942 68.5444C172.34 69.1861 172.538 69.9296 172.538 70.775C172.538 71.6102 172.34 72.3537 171.942 73.0055C171.545 73.6574 171.015 74.1717 170.353 74.5486C169.691 74.9254 168.958 75.1139 168.153 75.1139ZM168.153 73.2805C168.602 73.2805 168.994 73.1736 169.33 72.9597C169.676 72.7458 169.946 72.4504 170.14 72.0736C170.343 71.6866 170.445 71.2537 170.445 70.775C170.445 70.2861 170.343 69.8583 170.14 69.4917C169.946 69.1148 169.676 68.8194 169.33 68.6055C168.994 68.3815 168.602 68.2694 168.153 68.2694C167.695 68.2694 167.293 68.3815 166.947 68.6055C166.6 68.8194 166.325 69.1148 166.122 69.4917C165.928 69.8583 165.831 70.2861 165.831 70.775C165.831 71.2537 165.928 71.6866 166.122 72.0736C166.325 72.4504 166.6 72.7458 166.947 72.9597C167.293 73.1736 167.695 73.2805 168.153 73.2805ZM176.943 75.1139C176.302 75.1139 175.742 74.9713 175.263 74.6861C174.794 74.4009 174.433 74.0037 174.178 73.4944C173.934 72.9852 173.811 72.3893 173.811 71.7069V66.6194H175.813V71.5389C175.813 71.8852 175.879 72.1907 176.011 72.4555C176.154 72.7102 176.353 72.9139 176.607 73.0667C176.872 73.2092 177.167 73.2805 177.493 73.2805C177.819 73.2805 178.11 73.2092 178.364 73.0667C178.619 72.9139 178.817 72.7051 178.96 72.4403C179.103 72.1754 179.174 71.8597 179.174 71.493V66.6194H181.175V74.9305H179.281V73.2958L179.449 73.5861C179.255 74.0954 178.935 74.4773 178.486 74.7319C178.049 74.9866 177.534 75.1139 176.943 75.1139ZM182.959 74.9305V66.6194H184.839V68.468L184.686 68.193C184.879 67.5717 185.18 67.1389 185.587 66.8944C186.005 66.65 186.504 66.5278 187.084 66.5278H187.573V68.3H186.855C186.285 68.3 185.827 68.4782 185.48 68.8347C185.134 69.181 184.961 69.6699 184.961 70.3014V74.9305H182.959ZM193.329 74.9305L190.472 66.6194H192.581L194.674 72.9292L193.94 72.9139L196.171 66.6194H197.943L200.158 72.9139L199.425 72.9292L201.518 66.6194H203.627L200.77 74.9305H198.982L196.721 68.3458H197.393L195.102 74.9305H193.329ZM206.87 75.1139C206.289 75.1139 205.785 75.0171 205.357 74.8236C204.929 74.6301 204.598 74.3551 204.364 73.9986C204.13 73.6319 204.013 73.2092 204.013 72.7305C204.013 72.2722 204.115 71.8648 204.318 71.5083C204.522 71.1417 204.838 70.8361 205.266 70.5917C205.693 70.3472 206.233 70.1741 206.885 70.0722L209.604 69.6292V71.1569L207.267 71.5542C206.87 71.6254 206.574 71.7528 206.381 71.9361C206.187 72.1194 206.091 72.3588 206.091 72.6542C206.091 72.9393 206.198 73.1685 206.411 73.3417C206.635 73.5046 206.91 73.5861 207.236 73.5861C207.654 73.5861 208.021 73.4995 208.336 73.3264C208.662 73.143 208.912 72.8935 209.085 72.5778C209.268 72.262 209.36 71.9157 209.36 71.5389V69.4C209.36 69.0435 209.217 68.7481 208.932 68.5139C208.657 68.2694 208.291 68.1472 207.832 68.1472C207.404 68.1472 207.023 68.2643 206.686 68.4986C206.36 68.7227 206.121 69.0231 205.968 69.4L204.334 68.6055C204.497 68.1676 204.751 67.7907 205.098 67.475C205.454 67.1491 205.872 66.8944 206.35 66.7111C206.829 66.5278 207.348 66.4361 207.909 66.4361C208.591 66.4361 209.192 66.5634 209.711 66.818C210.231 67.0625 210.633 67.4088 210.918 67.8569C211.214 68.2949 211.361 68.8092 211.361 69.4V74.9305H209.467V73.5097L209.895 73.4792C209.681 73.8356 209.426 74.1361 209.131 74.3805C208.835 74.6148 208.499 74.7981 208.123 74.9305C207.746 75.0528 207.328 75.1139 206.87 75.1139ZM214.143 78.2917C213.919 78.2917 213.7 78.2713 213.486 78.2305C213.272 78.2 213.079 78.1389 212.906 78.0472V76.3819C213.038 76.4125 213.196 76.443 213.379 76.4736C213.573 76.5042 213.751 76.5194 213.914 76.5194C214.372 76.5194 214.703 76.4125 214.907 76.1986C215.121 75.9949 215.309 75.7199 215.472 75.3736L216.022 74.0903L215.992 75.7708L212.371 66.6194H214.525L217.061 73.3722H216.297L218.818 66.6194H220.988L217.367 75.7708C217.153 76.3004 216.893 76.7537 216.588 77.1305C216.282 77.5074 215.926 77.7926 215.518 77.9861C215.121 78.1898 214.663 78.2917 214.143 78.2917Z" fill="#100A55"/>
<path d="M68.6756 97.605C68.0319 97.605 67.4411 97.491 66.9033 97.2628C66.3656 97.0265 65.8971 96.7006 65.4978 96.285C65.1067 95.8613 64.8011 95.3643 64.5811 94.7939C64.3611 94.2236 64.2511 93.5962 64.2511 92.9117C64.2511 92.2273 64.3611 91.5999 64.5811 91.0295C64.8011 90.4591 65.1067 89.9621 65.4978 89.5384C65.8971 89.1147 66.3656 88.7887 66.9033 88.5606C67.4411 88.3243 68.0319 88.2062 68.6756 88.2062C69.2948 88.2062 69.8489 88.3162 70.3378 88.5362C70.8348 88.7562 71.2504 89.0413 71.5845 89.3917C71.9267 89.7339 72.1711 90.0965 72.3178 90.4795L71.4011 90.8828C71.173 90.3532 70.8226 89.9295 70.35 89.6117C69.8856 89.2858 69.3274 89.1228 68.6756 89.1228C68.0074 89.1228 67.4126 89.2817 66.8911 89.5995C66.3696 89.9173 65.9622 90.3613 65.6689 90.9317C65.3756 91.4939 65.2289 92.1539 65.2289 92.9117C65.2289 93.6613 65.3756 94.3213 65.6689 94.8917C65.9622 95.4621 66.3696 95.9062 66.8911 96.2239C67.4126 96.5336 68.0074 96.6884 68.6756 96.6884C69.3274 96.6884 69.8856 96.5295 70.35 96.2117C70.8226 95.8939 71.173 95.4702 71.4011 94.9406L72.3178 95.3439C72.1711 95.7187 71.9267 96.0813 71.5845 96.4317C71.2504 96.7739 70.8348 97.055 70.3378 97.275C69.8489 97.495 69.2948 97.605 68.6756 97.605ZM76.8826 97.605C76.2633 97.605 75.7011 97.4584 75.1959 97.165C74.6907 96.8636 74.2874 96.4562 73.9859 95.9428C73.6926 95.4213 73.5459 94.8306 73.5459 94.1706C73.5459 93.5187 73.6926 92.9362 73.9859 92.4228C74.2793 91.9095 74.6745 91.5062 75.1715 91.2128C75.6767 90.9113 76.247 90.7606 76.8826 90.7606C77.5182 90.7606 78.0845 90.9073 78.5815 91.2006C79.0867 91.4939 79.4819 91.8973 79.767 92.4106C80.0604 92.9239 80.207 93.5106 80.207 94.1706C80.207 94.8387 80.0563 95.4336 79.7548 95.955C79.4533 96.4684 79.05 96.8717 78.5448 97.165C78.0478 97.4584 77.4937 97.605 76.8826 97.605ZM76.8826 96.6884C77.3226 96.6884 77.7178 96.5784 78.0682 96.3584C78.4267 96.1384 78.7078 95.8369 78.9115 95.4539C79.1233 95.071 79.2293 94.6432 79.2293 94.1706C79.2293 93.698 79.1233 93.2743 78.9115 92.8995C78.7078 92.5247 78.4267 92.2273 78.0682 92.0073C77.7178 91.7873 77.3226 91.6773 76.8826 91.6773C76.4426 91.6773 76.0433 91.7873 75.6848 92.0073C75.3345 92.2273 75.0533 92.5247 74.8415 92.8995C74.6296 93.2743 74.5237 93.698 74.5237 94.1706C74.5237 94.6432 74.6296 95.071 74.8415 95.4539C75.0533 95.8369 75.3345 96.1384 75.6848 96.3584C76.0433 96.5784 76.4426 96.6884 76.8826 96.6884ZM81.8237 97.4584V90.9073H82.7404V92.1784L82.5326 92.1295C82.6956 91.7058 82.9604 91.3717 83.3271 91.1273C83.7019 90.8828 84.1337 90.7606 84.6226 90.7606C85.0871 90.7606 85.5026 90.8665 85.8693 91.0784C86.2441 91.2902 86.5374 91.5836 86.7493 91.9584C86.9693 92.325 87.0793 92.7406 87.0793 93.205V97.4584H86.1626V93.5595C86.1626 93.1602 86.0893 92.8221 85.9426 92.545C85.8041 92.268 85.6045 92.0562 85.3437 91.9095C85.0911 91.7547 84.7978 91.6773 84.4637 91.6773C84.1296 91.6773 83.8322 91.7547 83.5715 91.9095C83.3108 92.0562 83.1071 92.2721 82.9604 92.5573C82.8137 92.8343 82.7404 93.1684 82.7404 93.5595V97.4584H81.8237ZM88.83 97.4584V90.9073H89.7467V92.1784L89.5389 92.1295C89.7019 91.7058 89.9667 91.3717 90.3333 91.1273C90.7082 90.8828 91.14 90.7606 91.6289 90.7606C92.0933 90.7606 92.5089 90.8665 92.8756 91.0784C93.2504 91.2902 93.5437 91.5836 93.7556 91.9584C93.9756 92.325 94.0856 92.7406 94.0856 93.205V97.4584H93.1689V93.5595C93.1689 93.1602 93.0956 92.8221 92.9489 92.545C92.8104 92.268 92.6108 92.0562 92.35 91.9095C92.0974 91.7547 91.8041 91.6773 91.47 91.6773C91.1359 91.6773 90.8385 91.7547 90.5778 91.9095C90.3171 92.0562 90.1133 92.2721 89.9667 92.5573C89.82 92.8343 89.7467 93.1684 89.7467 93.5595V97.4584H88.83ZM98.8185 97.605C98.2074 97.605 97.6533 97.4584 97.1563 97.165C96.6674 96.8636 96.2804 96.4521 95.9952 95.9306C95.71 95.4091 95.5674 94.8184 95.5674 94.1584C95.5674 93.4984 95.7059 92.9158 95.983 92.4106C96.26 91.8973 96.6348 91.4939 97.1074 91.2006C97.5882 90.9073 98.1259 90.7606 98.7208 90.7606C99.1933 90.7606 99.613 90.8502 99.9796 91.0295C100.354 91.2006 100.672 91.4369 100.933 91.7384C101.194 92.0317 101.393 92.3658 101.532 92.7406C101.67 93.1073 101.74 93.4862 101.74 93.8773C101.74 93.9587 101.736 94.0524 101.727 94.1584C101.719 94.2562 101.707 94.358 101.691 94.4639H96.1541V93.6084H101.165L100.725 93.975C100.799 93.5269 100.746 93.1276 100.566 92.7773C100.395 92.4187 100.147 92.1376 99.8208 91.9339C99.4948 91.7221 99.1282 91.6162 98.7208 91.6162C98.3133 91.6162 97.9345 91.7221 97.5841 91.9339C97.2419 92.1458 96.973 92.4432 96.7774 92.8262C96.5819 93.201 96.5045 93.6491 96.5452 94.1706C96.5045 94.6921 96.5859 95.1484 96.7896 95.5395C97.0015 95.9224 97.2867 96.2199 97.6452 96.4317C98.0119 96.6436 98.403 96.7495 98.8185 96.7495C99.2993 96.7495 99.7026 96.6354 100.029 96.4073C100.354 96.1791 100.619 95.8939 100.823 95.5517L101.605 95.9673C101.475 96.2606 101.275 96.5336 101.006 96.7862C100.737 97.0306 100.416 97.2302 100.041 97.385C99.6741 97.5317 99.2667 97.605 98.8185 97.605ZM106.35 97.605C105.707 97.605 105.14 97.4543 104.651 97.1528C104.163 96.8513 103.78 96.4439 103.503 95.9306C103.225 95.4091 103.087 94.8224 103.087 94.1706C103.087 93.5187 103.225 92.9362 103.503 92.4228C103.78 91.9095 104.163 91.5062 104.651 91.2128C105.14 90.9113 105.707 90.7606 106.35 90.7606C106.758 90.7606 107.141 90.8339 107.499 90.9806C107.858 91.1273 108.175 91.3269 108.453 91.5795C108.73 91.8239 108.937 92.1091 109.076 92.435L108.245 92.8628C108.082 92.5124 107.833 92.2273 107.499 92.0073C107.165 91.7873 106.782 91.6773 106.35 91.6773C105.918 91.6773 105.527 91.7873 105.177 92.0073C104.835 92.2191 104.562 92.5165 104.358 92.8995C104.163 93.2743 104.065 93.7021 104.065 94.1828C104.065 94.6554 104.163 95.0832 104.358 95.4662C104.562 95.841 104.835 96.1384 105.177 96.3584C105.527 96.5784 105.918 96.6884 106.35 96.6884C106.782 96.6884 107.161 96.5784 107.487 96.3584C107.821 96.1384 108.074 95.845 108.245 95.4784L109.076 95.9306C108.937 96.2484 108.73 96.5336 108.453 96.7862C108.175 97.0387 107.858 97.2384 107.499 97.385C107.141 97.5317 106.758 97.605 106.35 97.605ZM113.19 97.5317C112.603 97.5317 112.151 97.3606 111.833 97.0184C111.516 96.6762 111.357 96.1873 111.357 95.5517V91.8239H110.147V90.9073H110.452C110.729 90.9073 110.949 90.8176 111.112 90.6384C111.275 90.451 111.357 90.2187 111.357 89.9417V89.3917H112.273V90.9073H113.716V91.8239H112.273V95.5517C112.273 95.7717 112.306 95.9673 112.371 96.1384C112.436 96.3013 112.546 96.4317 112.701 96.5295C112.864 96.6273 113.08 96.6762 113.349 96.6762C113.414 96.6762 113.491 96.6721 113.581 96.6639C113.671 96.6558 113.748 96.6476 113.813 96.6395V97.4584C113.716 97.4828 113.606 97.4991 113.483 97.5073C113.361 97.5236 113.263 97.5317 113.19 97.5317ZM118.942 97.4584L116.693 90.9073H117.732L119.59 96.6395H119.223L120.971 90.9073H121.887L123.635 96.6395H123.269L125.139 90.9073H126.165L123.916 97.4584H123L121.301 91.8484H121.557L119.859 97.4584H118.942ZM127.239 97.4584V90.9073H128.156V97.4584H127.239ZM127.239 89.6973V88.3528H128.156V89.6973H127.239ZM132.538 97.5317C131.951 97.5317 131.499 97.3606 131.181 97.0184C130.863 96.6762 130.704 96.1873 130.704 95.5517V91.8239H129.494V90.9073H129.8C130.077 90.9073 130.297 90.8176 130.46 90.6384C130.623 90.451 130.704 90.2187 130.704 89.9417V89.3917H131.621V90.9073H133.063V91.8239H131.621V95.5517C131.621 95.7717 131.654 95.9673 131.719 96.1384C131.784 96.3013 131.894 96.4317 132.049 96.5295C132.212 96.6273 132.428 96.6762 132.697 96.6762C132.762 96.6762 132.839 96.6721 132.929 96.6639C133.019 96.6558 133.096 96.6476 133.161 96.6395V97.4584C133.063 97.4828 132.953 97.4991 132.831 97.5073C132.709 97.5236 132.611 97.5317 132.538 97.5317ZM134.771 97.4584V88.2062H135.687V92.1784L135.48 92.1295C135.643 91.7058 135.907 91.3717 136.274 91.1273C136.649 90.8828 137.081 90.7606 137.57 90.7606C138.034 90.7606 138.45 90.8665 138.816 91.0784C139.191 91.2902 139.484 91.5836 139.696 91.9584C139.916 92.325 140.026 92.7406 140.026 93.205V97.4584H139.11V93.5595C139.11 93.1602 139.036 92.8221 138.89 92.545C138.743 92.268 138.539 92.0562 138.279 91.9095C138.026 91.7547 137.737 91.6773 137.411 91.6773C137.085 91.6773 136.792 91.7547 136.531 91.9095C136.27 92.0562 136.062 92.2721 135.907 92.5573C135.761 92.8343 135.687 93.1684 135.687 93.5595V97.4584H134.771ZM143.988 100.147C143.858 100.147 143.724 100.135 143.585 100.111C143.455 100.094 143.324 100.062 143.194 100.013V99.1573C143.275 99.1654 143.377 99.1776 143.499 99.1939C143.63 99.2184 143.76 99.2306 143.891 99.2306C144.29 99.2306 144.595 99.145 144.807 98.9739C145.019 98.811 145.227 98.4932 145.431 98.0206L145.846 97.0428L145.822 97.8495L143.047 90.9073H144.037L146.311 96.6395H146.054L148.315 90.9073H149.329L146.335 98.2895C146.205 98.6073 146.038 98.9087 145.834 99.1939C145.638 99.4791 145.39 99.7073 145.088 99.8784C144.787 100.058 144.42 100.147 143.988 100.147ZM153.355 97.605C152.736 97.605 152.174 97.4584 151.668 97.165C151.163 96.8636 150.76 96.4562 150.458 95.9428C150.165 95.4213 150.018 94.8306 150.018 94.1706C150.018 93.5187 150.165 92.9362 150.458 92.4228C150.752 91.9095 151.147 91.5062 151.644 91.2128C152.149 90.9113 152.719 90.7606 153.355 90.7606C153.991 90.7606 154.557 90.9073 155.054 91.2006C155.559 91.4939 155.954 91.8973 156.239 92.4106C156.533 92.9239 156.679 93.5106 156.679 94.1706C156.679 94.8387 156.529 95.4336 156.227 95.955C155.926 96.4684 155.522 96.8717 155.017 97.165C154.52 97.4584 153.966 97.605 153.355 97.605ZM153.355 96.6884C153.795 96.6884 154.19 96.5784 154.541 96.3584C154.899 96.1384 155.18 95.8369 155.384 95.4539C155.596 95.071 155.702 94.6432 155.702 94.1706C155.702 93.698 155.596 93.2743 155.384 92.8995C155.18 92.5247 154.899 92.2273 154.541 92.0073C154.19 91.7873 153.795 91.6773 153.355 91.6773C152.915 91.6773 152.516 91.7873 152.157 92.0073C151.807 92.2273 151.526 92.5247 151.314 92.8995C151.102 93.2743 150.996 93.698 150.996 94.1706C150.996 94.6432 151.102 95.071 151.314 95.4539C151.526 95.8369 151.807 96.1384 152.157 96.3584C152.516 96.5784 152.915 96.6884 153.355 96.6884ZM160.618 97.605C160.162 97.605 159.747 97.4991 159.372 97.2873C158.997 97.0673 158.699 96.7658 158.479 96.3828C158.268 95.9917 158.162 95.5436 158.162 95.0384V90.9073H159.078V94.9284C159.078 95.2787 159.148 95.5884 159.286 95.8573C159.433 96.118 159.632 96.3217 159.885 96.4684C160.146 96.615 160.443 96.6884 160.777 96.6884C161.111 96.6884 161.409 96.615 161.669 96.4684C161.93 96.3136 162.134 96.0976 162.281 95.8206C162.427 95.5354 162.501 95.1973 162.501 94.8062V90.9073H163.417V97.4584H162.501V96.1873L162.708 96.2362C162.554 96.6599 162.289 96.9939 161.914 97.2384C161.539 97.4828 161.107 97.605 160.618 97.605ZM165.302 97.4584V90.9073H166.219V91.9828L166.097 91.8239C166.252 91.5143 166.484 91.2699 166.794 91.0906C167.111 90.9113 167.494 90.8217 167.942 90.8217H168.358V91.7384H167.784C167.311 91.7384 166.932 91.885 166.647 92.1784C166.362 92.4717 166.219 92.8873 166.219 93.425V97.4584H165.302ZM174.503 97.605C173.86 97.605 173.293 97.4543 172.805 97.1528C172.316 96.8513 171.933 96.4439 171.656 95.9306C171.379 95.4091 171.24 94.8224 171.24 94.1706C171.24 93.5187 171.379 92.9362 171.656 92.4228C171.933 91.9095 172.316 91.5062 172.805 91.2128C173.293 90.9113 173.86 90.7606 174.503 90.7606C174.911 90.7606 175.294 90.8339 175.652 90.9806C176.011 91.1273 176.329 91.3269 176.606 91.5795C176.883 91.8239 177.091 92.1091 177.229 92.435L176.398 92.8628C176.235 92.5124 175.986 92.2273 175.652 92.0073C175.318 91.7873 174.935 91.6773 174.503 91.6773C174.072 91.6773 173.681 91.7873 173.33 92.0073C172.988 92.2191 172.715 92.5165 172.511 92.8995C172.316 93.2743 172.218 93.7021 172.218 94.1828C172.218 94.6554 172.316 95.0832 172.511 95.4662C172.715 95.841 172.988 96.1384 173.33 96.3584C173.681 96.5784 174.072 96.6884 174.503 96.6884C174.935 96.6884 175.314 96.5784 175.64 96.3584C175.974 96.1384 176.227 95.845 176.398 95.4784L177.229 95.9306C177.091 96.2484 176.883 96.5336 176.606 96.7862C176.329 97.0387 176.011 97.2384 175.652 97.385C175.294 97.5317 174.911 97.605 174.503 97.605ZM181.905 97.605C181.286 97.605 180.724 97.4584 180.219 97.165C179.714 96.8636 179.31 96.4562 179.009 95.9428C178.715 95.4213 178.569 94.8306 178.569 94.1706C178.569 93.5187 178.715 92.9362 179.009 92.4228C179.302 91.9095 179.697 91.5062 180.194 91.2128C180.699 90.9113 181.27 90.7606 181.905 90.7606C182.541 90.7606 183.107 90.9073 183.604 91.2006C184.109 91.4939 184.505 91.8973 184.79 92.4106C185.083 92.9239 185.23 93.5106 185.23 94.1706C185.23 94.8387 185.079 95.4336 184.778 95.955C184.476 96.4684 184.073 96.8717 183.568 97.165C183.071 97.4584 182.516 97.605 181.905 97.605ZM181.905 96.6884C182.345 96.6884 182.741 96.5784 183.091 96.3584C183.449 96.1384 183.731 95.8369 183.934 95.4539C184.146 95.071 184.252 94.6432 184.252 94.1706C184.252 93.698 184.146 93.2743 183.934 92.8995C183.731 92.5247 183.449 92.2273 183.091 92.0073C182.741 91.7873 182.345 91.6773 181.905 91.6773C181.465 91.6773 181.066 91.7873 180.708 92.0073C180.357 92.2273 180.076 92.5247 179.864 92.8995C179.652 93.2743 179.546 93.698 179.546 94.1706C179.546 94.6432 179.652 95.071 179.864 95.4539C180.076 95.8369 180.357 96.1384 180.708 96.3584C181.066 96.5784 181.465 96.6884 181.905 96.6884ZM186.847 97.4584V90.9073H187.763V92.1539L187.617 91.9706C187.796 91.5876 188.061 91.2902 188.411 91.0784C188.769 90.8665 189.161 90.7606 189.584 90.7606C190.089 90.7606 190.546 90.9032 190.953 91.1884C191.361 91.4736 191.65 91.8443 191.821 92.3006L191.564 92.3128C191.727 91.8076 192.008 91.4247 192.408 91.1639C192.815 90.895 193.263 90.7606 193.752 90.7606C194.192 90.7606 194.595 90.8665 194.962 91.0784C195.337 91.2902 195.634 91.5836 195.854 91.9584C196.082 92.325 196.197 92.7406 196.197 93.205V97.4584H195.28V93.5595C195.28 93.1602 195.207 92.8221 195.06 92.545C194.921 92.268 194.73 92.0562 194.485 91.9095C194.241 91.7547 193.96 91.6773 193.642 91.6773C193.332 91.6773 193.051 91.7547 192.799 91.9095C192.546 92.0562 192.347 92.2721 192.2 92.5573C192.053 92.8343 191.98 93.1684 191.98 93.5595V97.4584H191.063V93.5595C191.063 93.1602 190.99 92.8221 190.843 92.545C190.705 92.268 190.513 92.0562 190.269 91.9095C190.024 91.7547 189.743 91.6773 189.425 91.6773C189.108 91.6773 188.822 91.7547 188.57 91.9095C188.325 92.0562 188.13 92.2721 187.983 92.5573C187.837 92.8343 187.763 93.1684 187.763 93.5595V97.4584H186.847ZM197.947 97.4584V90.9073H198.863V92.1539L198.717 91.9706C198.896 91.5876 199.161 91.2902 199.511 91.0784C199.87 90.8665 200.261 90.7606 200.685 90.7606C201.19 90.7606 201.646 90.9032 202.053 91.1884C202.461 91.4736 202.75 91.8443 202.921 92.3006L202.665 92.3128C202.828 91.8076 203.109 91.4247 203.508 91.1639C203.915 90.895 204.363 90.7606 204.852 90.7606C205.292 90.7606 205.696 90.8665 206.062 91.0784C206.437 91.2902 206.735 91.5836 206.955 91.9584C207.183 92.325 207.297 92.7406 207.297 93.205V97.4584H206.38V93.5595C206.38 93.1602 206.307 92.8221 206.16 92.545C206.022 92.268 205.83 92.0562 205.586 91.9095C205.341 91.7547 205.06 91.6773 204.742 91.6773C204.433 91.6773 204.152 91.7547 203.899 91.9095C203.646 92.0562 203.447 92.2721 203.3 92.5573C203.153 92.8343 203.08 93.1684 203.08 93.5595V97.4584H202.163V93.5595C202.163 93.1602 202.09 92.8221 201.943 92.545C201.805 92.268 201.613 92.0562 201.369 91.9095C201.125 91.7547 200.843 91.6773 200.526 91.6773C200.208 91.6773 199.923 91.7547 199.67 91.9095C199.426 92.0562 199.23 92.2721 199.083 92.5573C198.937 92.8343 198.863 93.1684 198.863 93.5595V97.4584H197.947ZM211.369 97.605C210.913 97.605 210.497 97.4991 210.123 97.2873C209.748 97.0673 209.45 96.7658 209.23 96.3828C209.019 95.9917 208.913 95.5436 208.913 95.0384V90.9073H209.829V94.9284C209.829 95.2787 209.899 95.5884 210.037 95.8573C210.184 96.118 210.383 96.3217 210.636 96.4684C210.897 96.615 211.194 96.6884 211.528 96.6884C211.862 96.6884 212.16 96.615 212.42 96.4684C212.681 96.3136 212.885 96.0976 213.031 95.8206C213.178 95.5354 213.251 95.1973 213.251 94.8062V90.9073H214.168V97.4584H213.251V96.1873L213.459 96.2362C213.304 96.6599 213.04 96.9939 212.665 97.2384C212.29 97.4828 211.858 97.605 211.369 97.605ZM216.053 97.4584V90.9073H216.97V92.1784L216.762 92.1295C216.925 91.7058 217.19 91.3717 217.557 91.1273C217.931 90.8828 218.363 90.7606 218.852 90.7606C219.317 90.7606 219.732 90.8665 220.099 91.0784C220.474 91.2902 220.767 91.5836 220.979 91.9584C221.199 92.325 221.309 92.7406 221.309 93.205V97.4584H220.392V93.5595C220.392 93.1602 220.319 92.8221 220.172 92.545C220.034 92.268 219.834 92.0562 219.573 91.9095C219.321 91.7547 219.027 91.6773 218.693 91.6773C218.359 91.6773 218.062 91.7547 217.801 91.9095C217.54 92.0562 217.337 92.2721 217.19 92.5573C217.043 92.8343 216.97 93.1684 216.97 93.5595V97.4584H216.053ZM223.06 97.4584V90.9073H223.976V97.4584H223.06ZM223.06 89.6973V88.3528H223.976V89.6973H223.06ZM228.358 97.5317C227.771 97.5317 227.319 97.3606 227.001 97.0184C226.684 96.6762 226.525 96.1873 226.525 95.5517V91.8239H225.315V90.9073H225.62C225.897 90.9073 226.117 90.8176 226.28 90.6384C226.443 90.451 226.525 90.2187 226.525 89.9417V89.3917H227.441V90.9073H228.884V91.8239H227.441V95.5517C227.441 95.7717 227.474 95.9673 227.539 96.1384C227.604 96.3013 227.714 96.4317 227.869 96.5295C228.032 96.6273 228.248 96.6762 228.517 96.6762C228.582 96.6762 228.66 96.6721 228.749 96.6639C228.839 96.6558 228.916 96.6476 228.981 96.6395V97.4584C228.884 97.4828 228.774 97.4991 228.651 97.5073C228.529 97.5236 228.431 97.5317 228.358 97.5317ZM230.726 100.147C230.595 100.147 230.461 100.135 230.322 100.111C230.192 100.094 230.061 100.062 229.931 100.013V99.1573C230.013 99.1654 230.114 99.1776 230.237 99.1939C230.367 99.2184 230.497 99.2306 230.628 99.2306C231.027 99.2306 231.333 99.145 231.544 98.9739C231.756 98.811 231.964 98.4932 232.168 98.0206L232.583 97.0428L232.559 97.8495L229.784 90.9073H230.774L233.048 96.6395H232.791L235.052 90.9073H236.067L233.072 98.2895C232.942 98.6073 232.775 98.9087 232.571 99.1939C232.376 99.4791 232.127 99.7073 231.826 99.8784C231.524 100.058 231.157 100.147 230.726 100.147ZM236.691 99.0473V98.6195C236.936 98.5543 237.115 98.428 237.229 98.2406C237.343 98.0532 237.4 97.7924 237.4 97.4584H236.936V96.1139H237.913V97.1406C237.913 97.6702 237.811 98.0939 237.608 98.4117C237.404 98.7376 237.099 98.9495 236.691 99.0473ZM245.008 97.605C244.397 97.605 243.843 97.4584 243.346 97.165C242.857 96.8636 242.47 96.4521 242.184 95.9306C241.899 95.4091 241.757 94.8184 241.757 94.1584C241.757 93.4984 241.895 92.9158 242.172 92.4106C242.449 91.8973 242.824 91.4939 243.297 91.2006C243.777 90.9073 244.315 90.7606 244.91 90.7606C245.383 90.7606 245.802 90.8502 246.169 91.0295C246.544 91.2006 246.861 91.4369 247.122 91.7384C247.383 92.0317 247.583 92.3658 247.721 92.7406C247.86 93.1073 247.929 93.4862 247.929 93.8773C247.929 93.9587 247.925 94.0524 247.917 94.1584C247.909 94.2562 247.896 94.358 247.88 94.4639H242.343V93.6084H247.354L246.914 93.975C246.988 93.5269 246.935 93.1276 246.756 92.7773C246.584 92.4187 246.336 92.1376 246.01 91.9339C245.684 91.7221 245.317 91.6162 244.91 91.6162C244.503 91.6162 244.124 91.7221 243.773 91.9339C243.431 92.1458 243.162 92.4432 242.967 92.8262C242.771 93.201 242.694 93.6491 242.734 94.1706C242.694 94.6921 242.775 95.1484 242.979 95.5395C243.191 95.9224 243.476 96.2199 243.834 96.4317C244.201 96.6436 244.592 96.7495 245.008 96.7495C245.489 96.7495 245.892 96.6354 246.218 96.4073C246.544 96.1791 246.809 95.8939 247.012 95.5517L247.794 95.9673C247.664 96.2606 247.464 96.5336 247.196 96.7862C246.927 97.0306 246.605 97.2302 246.23 97.385C245.863 97.5317 245.456 97.605 245.008 97.605ZM249.545 97.4584V90.9073H250.462V92.1784L250.254 92.1295C250.417 91.7058 250.682 91.3717 251.048 91.1273C251.423 90.8828 251.855 90.7606 252.344 90.7606C252.808 90.7606 253.224 90.8665 253.591 91.0784C253.965 91.2902 254.259 91.5836 254.471 91.9584C254.691 92.325 254.801 92.7406 254.801 93.205V97.4584H253.884V93.5595C253.884 93.1602 253.811 92.8221 253.664 92.545C253.525 92.268 253.326 92.0562 253.065 91.9095C252.812 91.7547 252.519 91.6773 252.185 91.6773C251.851 91.6773 251.554 91.7547 251.293 91.9095C251.032 92.0562 250.828 92.2721 250.682 92.5573C250.535 92.8343 250.462 93.1684 250.462 93.5595V97.4584H249.545ZM256.551 97.4584V88.2062H257.468V92.1784L257.26 92.1295C257.423 91.7058 257.688 91.3717 258.055 91.1273C258.43 90.8828 258.861 90.7606 259.35 90.7606C259.815 90.7606 260.23 90.8665 260.597 91.0784C260.972 91.2902 261.265 91.5836 261.477 91.9584C261.697 92.325 261.807 92.7406 261.807 93.205V97.4584H260.89V93.5595C260.89 93.1602 260.817 92.8221 260.67 92.545C260.524 92.268 260.32 92.0562 260.059 91.9095C259.807 91.7547 259.517 91.6773 259.191 91.6773C258.865 91.6773 258.572 91.7547 258.311 91.9095C258.051 92.0562 257.843 92.2721 257.688 92.5573C257.541 92.8343 257.468 93.1684 257.468 93.5595V97.4584H256.551ZM265.452 97.605C265.037 97.605 264.666 97.5276 264.34 97.3728C264.014 97.2099 263.757 96.9899 263.57 96.7128C263.382 96.4358 263.289 96.118 263.289 95.7595C263.289 95.4173 263.362 95.1076 263.509 94.8306C263.655 94.5454 263.884 94.305 264.193 94.1095C264.503 93.9139 264.898 93.7754 265.379 93.6939L267.945 93.2662V94.0973L265.599 94.4884C265.126 94.5699 264.784 94.7206 264.572 94.9406C264.368 95.1606 264.267 95.4213 264.267 95.7228C264.267 96.0162 264.381 96.2647 264.609 96.4684C264.845 96.6721 265.147 96.7739 265.513 96.7739C265.961 96.7739 266.352 96.6802 266.687 96.4928C267.021 96.2973 267.281 96.0365 267.469 95.7106C267.656 95.3847 267.75 95.0221 267.75 94.6228V92.9606C267.75 92.5695 267.607 92.2517 267.322 92.0073C267.037 91.7628 266.666 91.6406 266.21 91.6406C265.811 91.6406 265.46 91.7424 265.159 91.9462C264.857 92.1417 264.633 92.3984 264.487 92.7162L263.655 92.2639C263.778 91.9869 263.969 91.7343 264.23 91.5062C264.499 91.278 264.804 91.0987 265.147 90.9684C265.489 90.8299 265.843 90.7606 266.21 90.7606C266.691 90.7606 267.114 90.8543 267.481 91.0417C267.856 91.2291 268.145 91.4899 268.349 91.8239C268.561 92.1499 268.667 92.5287 268.667 92.9606V97.4584H267.75V96.1506L267.884 96.285C267.77 96.5295 267.591 96.7536 267.347 96.9573C267.11 97.1528 266.829 97.3117 266.503 97.4339C266.185 97.548 265.835 97.605 265.452 97.605ZM270.552 97.4584V90.9073H271.469V92.1784L271.261 92.1295C271.424 91.7058 271.689 91.3717 272.055 91.1273C272.43 90.8828 272.862 90.7606 273.351 90.7606C273.815 90.7606 274.231 90.8665 274.598 91.0784C274.972 91.2902 275.266 91.5836 275.478 91.9584C275.698 92.325 275.808 92.7406 275.808 93.205V97.4584H274.891V93.5595C274.891 93.1602 274.818 92.8221 274.671 92.545C274.532 92.268 274.333 92.0562 274.072 91.9095C273.819 91.7547 273.526 91.6773 273.192 91.6773C272.858 91.6773 272.561 91.7547 272.3 91.9095C272.039 92.0562 271.835 92.2721 271.689 92.5573C271.542 92.8343 271.469 93.1684 271.469 93.5595V97.4584H270.552ZM280.553 97.605C279.909 97.605 279.343 97.4543 278.854 97.1528C278.365 96.8513 277.982 96.4439 277.705 95.9306C277.428 95.4091 277.289 94.8224 277.289 94.1706C277.289 93.5187 277.428 92.9362 277.705 92.4228C277.982 91.9095 278.365 91.5062 278.854 91.2128C279.343 90.9113 279.909 90.7606 280.553 90.7606C280.96 90.7606 281.343 90.8339 281.702 90.9806C282.06 91.1273 282.378 91.3269 282.655 91.5795C282.932 91.8239 283.14 92.1091 283.278 92.435L282.447 92.8628C282.284 92.5124 282.036 92.2273 281.702 92.0073C281.368 91.7873 280.985 91.6773 280.553 91.6773C280.121 91.6773 279.73 91.7873 279.379 92.0073C279.037 92.2191 278.764 92.5165 278.561 92.8995C278.365 93.2743 278.267 93.7021 278.267 94.1828C278.267 94.6554 278.365 95.0832 278.561 95.4662C278.764 95.841 279.037 96.1384 279.379 96.3584C279.73 96.5784 280.121 96.6884 280.553 96.6884C280.985 96.6884 281.363 96.5784 281.689 96.3584C282.023 96.1384 282.276 95.845 282.447 95.4784L283.278 95.9306C283.14 96.2484 282.932 96.5336 282.655 96.7862C282.378 97.0387 282.06 97.2384 281.702 97.385C281.343 97.5317 280.96 97.605 280.553 97.605ZM287.869 97.605C287.258 97.605 286.704 97.4584 286.207 97.165C285.718 96.8636 285.331 96.4521 285.046 95.9306C284.761 95.4091 284.618 94.8184 284.618 94.1584C284.618 93.4984 284.756 92.9158 285.034 92.4106C285.311 91.8973 285.685 91.4939 286.158 91.2006C286.639 90.9073 287.176 90.7606 287.771 90.7606C288.244 90.7606 288.664 90.8502 289.03 91.0295C289.405 91.2006 289.723 91.4369 289.984 91.7384C290.244 92.0317 290.444 92.3658 290.582 92.7406C290.721 93.1073 290.79 93.4862 290.79 93.8773C290.79 93.9587 290.786 94.0524 290.778 94.1584C290.77 94.2562 290.758 94.358 290.741 94.4639H285.205V93.6084H290.216L289.776 93.975C289.849 93.5269 289.796 93.1276 289.617 92.7773C289.446 92.4187 289.197 92.1376 288.871 91.9339C288.545 91.7221 288.179 91.6162 287.771 91.6162C287.364 91.6162 286.985 91.7221 286.635 91.9339C286.292 92.1458 286.024 92.4432 285.828 92.8262C285.632 93.201 285.555 93.6491 285.596 94.1706C285.555 94.6921 285.636 95.1484 285.84 95.5395C286.052 95.9224 286.337 96.2199 286.696 96.4317C287.062 96.6436 287.454 96.7495 287.869 96.7495C288.35 96.7495 288.753 96.6354 289.079 96.4073C289.405 96.1791 289.67 95.8939 289.874 95.5517L290.656 95.9673C290.525 96.2606 290.326 96.5336 290.057 96.7862C289.788 97.0306 289.466 97.2302 289.091 97.385C288.725 97.5317 288.317 97.605 287.869 97.605ZM294.618 100.147C294.487 100.147 294.353 100.135 294.214 100.111C294.084 100.094 293.954 100.062 293.823 100.013V99.1573C293.905 99.1654 294.007 99.1776 294.129 99.1939C294.259 99.2184 294.39 99.2306 294.52 99.2306C294.919 99.2306 295.225 99.145 295.437 98.9739C295.648 98.811 295.856 98.4932 296.06 98.0206L296.475 97.0428L296.451 97.8495L293.677 90.9073H294.667L296.94 96.6395H296.683L298.944 90.9073H299.959L296.964 98.2895C296.834 98.6073 296.667 98.9087 296.463 99.1939C296.268 99.4791 296.019 99.7073 295.718 99.8784C295.416 100.058 295.05 100.147 294.618 100.147ZM303.984 97.605C303.365 97.605 302.803 97.4584 302.298 97.165C301.793 96.8636 301.389 96.4562 301.088 95.9428C300.794 95.4213 300.648 94.8306 300.648 94.1706C300.648 93.5187 300.794 92.9362 301.088 92.4228C301.381 91.9095 301.776 91.5062 302.273 91.2128C302.778 90.9113 303.349 90.7606 303.984 90.7606C304.62 90.7606 305.186 90.9073 305.683 91.2006C306.188 91.4939 306.584 91.8973 306.869 92.4106C307.162 92.9239 307.309 93.5106 307.309 94.1706C307.309 94.8387 307.158 95.4336 306.857 95.955C306.555 96.4684 306.152 96.8717 305.647 97.165C305.15 97.4584 304.595 97.605 303.984 97.605ZM303.984 96.6884C304.424 96.6884 304.82 96.5784 305.17 96.3584C305.528 96.1384 305.81 95.8369 306.013 95.4539C306.225 95.071 306.331 94.6432 306.331 94.1706C306.331 93.698 306.225 93.2743 306.013 92.8995C305.81 92.5247 305.528 92.2273 305.17 92.0073C304.82 91.7873 304.424 91.6773 303.984 91.6773C303.544 91.6773 303.145 91.7873 302.787 92.0073C302.436 92.2273 302.155 92.5247 301.943 92.8995C301.731 93.2743 301.625 93.698 301.625 94.1706C301.625 94.6432 301.731 95.071 301.943 95.4539C302.155 95.8369 302.436 96.1384 302.787 96.3584C303.145 96.5784 303.544 96.6884 303.984 96.6884ZM311.248 97.605C310.791 97.605 310.376 97.4991 310.001 97.2873C309.626 97.0673 309.329 96.7658 309.109 96.3828C308.897 95.9917 308.791 95.5436 308.791 95.0384V90.9073H309.708V94.9284C309.708 95.2787 309.777 95.5884 309.916 95.8573C310.062 96.118 310.262 96.3217 310.514 96.4684C310.775 96.615 311.073 96.6884 311.407 96.6884C311.741 96.6884 312.038 96.615 312.299 96.4684C312.56 96.3136 312.763 96.0976 312.91 95.8206C313.057 95.5354 313.13 95.1973 313.13 94.8062V90.9073H314.047V97.4584H313.13V96.1873L313.338 96.2362C313.183 96.6599 312.918 96.9939 312.543 97.2384C312.168 97.4828 311.737 97.605 311.248 97.605ZM315.932 97.4584V90.9073H316.848V91.9828L316.726 91.8239C316.881 91.5143 317.113 91.2699 317.423 91.0906C317.741 90.9113 318.124 90.8217 318.572 90.8217H318.987V91.7384H318.413C317.94 91.7384 317.561 91.885 317.276 92.1784C316.991 92.4717 316.848 92.8873 316.848 93.425V97.4584H315.932ZM322.138 97.4584V88.2062H323.055V97.4584H322.138ZM325.249 97.4584V96.1139H326.227V97.4584H325.249ZM327.694 97.4584V96.1139H328.671V97.4584H327.694ZM330.138 97.4584V96.1139H331.116V97.4584H330.138Z" fill="#4D5461"/>
<circle cx="304.069" cy="38.4444" r="23.8715" fill="#7065F0" stroke="#E0DEF7" stroke-width="1.14583"/>
<g clip-path="url(#clip0_38_2750)">
<path d="M296.94 38.4445H294.903L304.069 29.2778L313.236 38.4445H311.199" stroke="white" stroke-width="2.29167" stroke-linecap="round" stroke-linejoin="round"/>
<path d="M296.94 38.4445V45.5741C296.94 46.1144 297.154 46.6325 297.536 47.0146C297.918 47.3966 298.437 47.6112 298.977 47.6112H309.162C309.702 47.6112 310.22 47.3966 310.602 47.0146C310.984 46.6325 311.199 46.1144 311.199 45.5741V38.4445" stroke="white" stroke-width="2.29167" stroke-linecap="round" stroke-linejoin="round"/>
<path d="M301.014 39.9724L303.051 42.0094L307.125 37.9354" stroke="white" stroke-width="2.29167" stroke-linecap="round" stroke-linejoin="round"/>
</g>
<defs>
<filter id="filter0_d_38_2750" x="0.805553" y="0.250011" width="390.347" height="161.944" filterUnits="userSpaceOnUse" color-interpolation-filters="sRGB">
<feFlood flood-opacity="0" result="BackgroundImageFix"/>
<feColorMatrix in="SourceAlpha" type="matrix" values="0 0 0 0 0 0 0 0 0 0 0 0 0 0 0 0 0 0 127 0" result="hardAlpha"/>
<feOffset/>
<feGaussianBlur stdDeviation="19.0972"/>
<feComposite in2="hardAlpha" operator="out"/>
<feColorMatrix type="matrix" values="0 0 0 0 0.439216 0 0 0 0 0.396078 0 0 0 0 0.941176 0 0 0 0.2 0"/>
<feBlend mode="normal" in2="BackgroundImageFix" result="effect1_dropShadow_38_2750"/>
<feBlend mode="normal" in="SourceGraphic" in2="effect1_dropShadow_38_2750" result="shape"/>
</filter>
<clipPath id="clip0_38_2750">
<rect width="24.4444" height="24.4444" fill="white" transform="translate(291.847 26.2222)"/>
</clipPath>
</defs>
</svg>
