<svg width="438" height="183" viewBox="0 0 438 183" fill="none" xmlns="http://www.w3.org/2000/svg">
<g filter="url(#filter0_d_354_4795)">
<rect x="43" y="43.0781" width="352" height="96.1561" rx="6.86829" fill="white"/>
<rect x="43.6439" y="43.722" width="350.712" height="94.8683" rx="6.22439" stroke="#E0DEF7" stroke-width="1.2878"/>
</g>
<circle cx="97.9463" cy="91.1563" r="26.6146" fill="#F0EFFB" stroke="#D9D6F5" stroke-width="1.71707"/>
<path d="M94.5123 102.604H101.381C107.104 102.604 109.394 100.314 109.394 94.5905V87.7222C109.394 81.9987 107.104 79.7092 101.381 79.7092H94.5123C88.7887 79.7092 86.4993 81.9987 86.4993 87.7222V94.5905C86.4993 100.314 88.7887 102.604 94.5123 102.604Z" stroke="#7065F0" stroke-width="2.57561" stroke-linecap="round" stroke-linejoin="round"/>
<path d="M94.6267 91.1563V89.4621C94.6267 87.2757 96.1721 86.3943 98.0609 87.4818L99.5261 88.3289L100.991 89.176C102.88 90.2634 102.88 92.0492 100.991 93.1367L99.5261 93.9838L98.0609 94.8309C96.1721 95.9183 94.6267 95.0255 94.6267 92.8505V91.1563Z" stroke="#7065F0" stroke-width="2.57561" stroke-miterlimit="10" stroke-linecap="round" stroke-linejoin="round"/>
<path d="M146.213 86.7977L150.626 74.0055H153.648L158.061 86.7977H155.52L154.61 84.0504H149.665L148.737 86.7977H146.213ZM150.334 81.9899H153.94L151.811 75.6196H152.463L150.334 81.9899ZM163.373 87.0038C162.446 87.0038 161.611 86.792 160.867 86.3685C160.134 85.9335 159.556 85.3497 159.132 84.617C158.709 83.873 158.497 83.0373 158.497 82.1101C158.497 81.1829 158.709 80.353 159.132 79.6204C159.556 78.8877 160.134 78.3097 160.867 77.8861C161.611 77.4626 162.446 77.2508 163.373 77.2508C164.037 77.2508 164.656 77.371 165.228 77.6114C165.8 77.8403 166.292 78.1609 166.705 78.5729C167.128 78.9736 167.431 79.4544 167.615 80.0153L165.64 80.8738C165.468 80.4045 165.176 80.0267 164.764 79.7406C164.364 79.4544 163.9 79.3113 163.373 79.3113C162.881 79.3113 162.44 79.4315 162.051 79.6719C161.674 79.9123 161.376 80.2442 161.158 80.6678C160.941 81.0913 160.832 81.5778 160.832 82.1273C160.832 82.6768 160.941 83.1633 161.158 83.5868C161.376 84.0103 161.674 84.3423 162.051 84.5827C162.44 84.8231 162.881 84.9433 163.373 84.9433C163.911 84.9433 164.381 84.8002 164.781 84.514C165.182 84.2278 165.468 83.8444 165.64 83.3636L167.615 84.2565C167.431 84.783 167.134 85.2581 166.722 85.6816C166.31 86.0937 165.817 86.42 165.245 86.6604C164.673 86.8893 164.049 87.0038 163.373 87.0038ZM173.734 87.0038C172.807 87.0038 171.971 86.792 171.227 86.3685C170.495 85.9335 169.917 85.3497 169.493 84.617C169.07 83.873 168.858 83.0373 168.858 82.1101C168.858 81.1829 169.07 80.353 169.493 79.6204C169.917 78.8877 170.495 78.3097 171.227 77.8861C171.971 77.4626 172.807 77.2508 173.734 77.2508C174.398 77.2508 175.016 77.371 175.589 77.6114C176.161 77.8403 176.653 78.1609 177.065 78.5729C177.489 78.9736 177.792 79.4544 177.975 80.0153L176.001 80.8738C175.829 80.4045 175.537 80.0267 175.125 79.7406C174.724 79.4544 174.261 79.3113 173.734 79.3113C173.242 79.3113 172.801 79.4315 172.412 79.6719C172.034 79.9123 171.737 80.2442 171.519 80.6678C171.302 81.0913 171.193 81.5778 171.193 82.1273C171.193 82.6768 171.302 83.1633 171.519 83.5868C171.737 84.0103 172.034 84.3423 172.412 84.5827C172.801 84.8231 173.242 84.9433 173.734 84.9433C174.272 84.9433 174.742 84.8002 175.142 84.514C175.543 84.2278 175.829 83.8444 176.001 83.3636L177.975 84.2565C177.792 84.783 177.495 85.2581 177.083 85.6816C176.67 86.0937 176.178 86.42 175.606 86.6604C175.033 86.8893 174.41 87.0038 173.734 87.0038ZM184.026 87.0038C183.065 87.0038 182.223 86.7863 181.502 86.3513C180.781 85.9163 180.22 85.3268 179.82 84.5827C179.419 83.8386 179.219 83.0144 179.219 82.1101C179.219 81.1715 179.419 80.3415 179.82 79.6204C180.232 78.8877 180.787 78.3097 181.485 77.8861C182.195 77.4626 182.985 77.2508 183.855 77.2508C184.587 77.2508 185.228 77.371 185.778 77.6114C186.339 77.8518 186.814 78.1837 187.203 78.6073C187.592 79.0308 187.89 79.5173 188.096 80.0668C188.302 80.6048 188.405 81.1886 188.405 81.8182C188.405 81.9785 188.393 82.1445 188.371 82.3162C188.359 82.4879 188.33 82.6367 188.285 82.7626H181.073V81.0455H187.014L185.949 81.8526C186.052 81.326 186.024 80.8567 185.864 80.4446C185.715 80.0325 185.463 79.7062 185.108 79.4658C184.765 79.2254 184.347 79.1052 183.855 79.1052C183.385 79.1052 182.967 79.2254 182.601 79.4658C182.235 79.6948 181.954 80.0382 181.76 80.4961C181.577 80.9425 181.508 81.4862 181.554 82.1273C181.508 82.6996 181.582 83.209 181.777 83.6555C181.983 84.0905 182.281 84.4282 182.67 84.6686C183.07 84.9089 183.528 85.0291 184.044 85.0291C184.559 85.0291 184.994 84.9204 185.348 84.7029C185.715 84.4854 186.001 84.1935 186.207 83.8272L188.027 84.7201C187.844 85.1665 187.558 85.5614 187.169 85.9049C186.779 86.2483 186.316 86.5173 185.778 86.7119C185.251 86.9065 184.667 87.0038 184.026 87.0038ZM193.578 87.0038C192.583 87.0038 191.713 86.7691 190.969 86.2998C190.236 85.819 189.732 85.1722 189.458 84.3595L191.14 83.5525C191.381 84.079 191.713 84.4911 192.136 84.7888C192.571 85.0864 193.052 85.2352 193.578 85.2352C193.991 85.2352 194.317 85.1436 194.557 84.9605C194.798 84.7773 194.918 84.5369 194.918 84.2393C194.918 84.0561 194.866 83.9073 194.763 83.7929C194.672 83.6669 194.54 83.5639 194.368 83.4838C194.208 83.3922 194.031 83.3178 193.836 83.2606L192.308 82.8313C191.518 82.6023 190.917 82.2532 190.505 81.7839C190.104 81.3145 189.904 80.7594 189.904 80.1183C189.904 79.546 190.047 79.048 190.333 78.6245C190.631 78.1895 191.037 77.8518 191.552 77.6114C192.079 77.371 192.68 77.2508 193.355 77.2508C194.237 77.2508 195.015 77.4626 195.69 77.8861C196.366 78.3097 196.847 78.9049 197.133 79.6719L195.416 80.4789C195.255 80.0554 194.986 79.7177 194.609 79.4658C194.231 79.214 193.807 79.0881 193.338 79.0881C192.96 79.0881 192.663 79.1739 192.445 79.3456C192.228 79.5173 192.119 79.7406 192.119 80.0153C192.119 80.187 192.165 80.3358 192.256 80.4617C192.348 80.5876 192.474 80.6907 192.634 80.7708C192.806 80.8509 193 80.9253 193.218 80.994L194.712 81.4405C195.479 81.6694 196.068 82.0128 196.48 82.4707C196.904 82.9286 197.116 83.4895 197.116 84.1534C197.116 84.7143 196.967 85.2123 196.669 85.6473C196.372 86.0708 195.959 86.4028 195.433 86.6432C194.906 86.8836 194.288 87.0038 193.578 87.0038ZM202.313 87.0038C201.317 87.0038 200.447 86.7691 199.703 86.2998C198.97 85.819 198.467 85.1722 198.192 84.3595L199.875 83.5525C200.115 84.079 200.447 84.4911 200.87 84.7888C201.305 85.0864 201.786 85.2352 202.313 85.2352C202.725 85.2352 203.051 85.1436 203.291 84.9605C203.532 84.7773 203.652 84.5369 203.652 84.2393C203.652 84.0561 203.601 83.9073 203.498 83.7929C203.406 83.6669 203.274 83.5639 203.103 83.4838C202.942 83.3922 202.765 83.3178 202.57 83.2606L201.042 82.8313C200.252 82.6023 199.651 82.2532 199.239 81.7839C198.839 81.3145 198.638 80.7594 198.638 80.1183C198.638 79.546 198.781 79.048 199.067 78.6245C199.365 78.1895 199.771 77.8518 200.287 77.6114C200.813 77.371 201.414 77.2508 202.09 77.2508C202.971 77.2508 203.749 77.4626 204.425 77.8861C205.1 78.3097 205.581 78.9049 205.867 79.6719L204.15 80.4789C203.99 80.0554 203.721 79.7177 203.343 79.4658C202.965 79.214 202.542 79.0881 202.072 79.0881C201.695 79.0881 201.397 79.1739 201.179 79.3456C200.962 79.5173 200.853 79.7406 200.853 80.0153C200.853 80.187 200.899 80.3358 200.991 80.4617C201.082 80.5876 201.208 80.6907 201.368 80.7708C201.54 80.8509 201.735 80.9253 201.952 80.994L203.446 81.4405C204.213 81.6694 204.803 82.0128 205.215 82.4707C205.638 82.9286 205.85 83.4895 205.85 84.1534C205.85 84.7143 205.701 85.2123 205.403 85.6473C205.106 86.0708 204.694 86.4028 204.167 86.6432C203.641 86.8836 203.022 87.0038 202.313 87.0038ZM216.657 87.0038C215.742 87.0038 214.894 86.8378 214.116 86.5058C213.349 86.1739 212.674 85.7102 212.09 85.115C211.518 84.5197 211.071 83.8215 210.751 83.0202C210.43 82.2189 210.27 81.3432 210.27 80.393C210.27 79.4429 210.424 78.5672 210.733 77.7659C211.054 76.9532 211.5 76.2549 212.073 75.6711C212.657 75.0758 213.338 74.618 214.116 74.2974C214.894 73.9655 215.742 73.7995 216.657 73.7995C217.573 73.7995 218.392 73.954 219.113 74.2631C219.845 74.5722 220.463 74.9843 220.967 75.4994C221.471 76.0031 221.831 76.5582 222.049 77.1649L219.954 78.1437C219.714 77.5026 219.307 76.9761 218.735 76.564C218.163 76.1404 217.47 75.9287 216.657 75.9287C215.856 75.9287 215.146 76.1175 214.528 76.4953C213.921 76.873 213.446 77.3939 213.103 78.0578C212.771 78.7218 212.605 79.5002 212.605 80.393C212.605 81.2859 212.771 82.0701 213.103 82.7454C213.446 83.4094 213.921 83.9302 214.528 84.308C215.146 84.6857 215.856 84.8746 216.657 84.8746C217.47 84.8746 218.163 84.6686 218.735 84.2565C219.307 83.8329 219.714 83.3006 219.954 82.6596L222.049 83.6383C221.831 84.245 221.471 84.8059 220.967 85.321C220.463 85.8247 219.845 86.2311 219.113 86.5402C218.392 86.8492 217.573 87.0038 216.657 87.0038ZM228.07 87.0038C227.154 87.0038 226.318 86.792 225.563 86.3685C224.819 85.9449 224.224 85.3668 223.777 84.6342C223.342 83.9016 223.125 83.066 223.125 82.1273C223.125 81.1886 223.342 80.353 223.777 79.6204C224.224 78.8877 224.819 78.3097 225.563 77.8861C226.307 77.4626 227.143 77.2508 228.07 77.2508C228.986 77.2508 229.815 77.4626 230.56 77.8861C231.304 78.3097 231.893 78.8877 232.328 79.6204C232.775 80.3415 232.998 81.1772 232.998 82.1273C232.998 83.066 232.775 83.9016 232.328 84.6342C231.882 85.3668 231.286 85.9449 230.542 86.3685C229.798 86.792 228.974 87.0038 228.07 87.0038ZM228.07 84.9433C228.573 84.9433 229.014 84.8231 229.392 84.5827C229.781 84.3423 230.084 84.0103 230.302 83.5868C230.531 83.1518 230.645 82.6653 230.645 82.1273C230.645 81.5778 230.531 81.097 230.302 80.6849C230.084 80.2614 229.781 79.9294 229.392 79.689C229.014 79.4372 228.573 79.3113 228.07 79.3113C227.555 79.3113 227.103 79.4372 226.713 79.689C226.324 79.9294 226.015 80.2614 225.786 80.6849C225.569 81.097 225.46 81.5778 225.46 82.1273C225.46 82.6653 225.569 83.1518 225.786 83.5868C226.015 84.0103 226.324 84.3423 226.713 84.5827C227.103 84.8231 227.555 84.9433 228.07 84.9433ZM234.618 86.7977V77.4569H236.73V79.2941L236.558 78.9679C236.776 78.407 237.13 77.9834 237.623 77.6972C238.126 77.3996 238.71 77.2508 239.374 77.2508C240.061 77.2508 240.668 77.3996 241.194 77.6972C241.732 77.9949 242.15 78.4127 242.448 78.9507C242.745 79.4773 242.894 80.0897 242.894 80.788V86.7977H240.645V81.3203C240.645 80.9082 240.565 80.5533 240.404 80.2557C240.244 79.9581 240.021 79.7291 239.735 79.5689C239.46 79.3971 239.134 79.3113 238.756 79.3113C238.39 79.3113 238.063 79.3971 237.777 79.5689C237.491 79.7291 237.268 79.9581 237.108 80.2557C236.947 80.5533 236.867 80.9082 236.867 81.3203V86.7977H234.618ZM248.969 86.9008C247.915 86.9008 247.097 86.6146 246.513 86.0422C245.941 85.4584 245.655 84.6399 245.655 83.5868V79.4658H244.041V77.4569H244.212C244.67 77.4569 245.025 77.3367 245.277 77.0963C245.529 76.8559 245.655 76.5067 245.655 76.0489V75.3277H247.904V77.4569H250.05V79.4658H247.904V83.4666C247.904 83.7757 247.956 84.039 248.059 84.2565C248.173 84.474 248.345 84.6399 248.574 84.7544C248.814 84.8689 249.117 84.9261 249.484 84.9261C249.564 84.9261 249.655 84.9204 249.758 84.9089C249.873 84.8975 249.982 84.8861 250.085 84.8746V86.7977C249.924 86.8206 249.741 86.8435 249.535 86.8664C249.329 86.8893 249.14 86.9008 248.969 86.9008ZM251.717 86.7977V77.4569H253.829V79.5345L253.658 79.2254C253.875 78.5272 254.213 78.0407 254.671 77.7659C255.14 77.4912 255.701 77.3538 256.353 77.3538H256.903V79.3456H256.096C255.455 79.3456 254.94 79.546 254.551 79.9466C254.161 80.3358 253.967 80.8853 253.967 81.595V86.7977H251.717ZM262.621 87.0038C261.705 87.0038 260.87 86.792 260.114 86.3685C259.37 85.9449 258.775 85.3668 258.329 84.6342C257.894 83.9016 257.676 83.066 257.676 82.1273C257.676 81.1886 257.894 80.353 258.329 79.6204C258.775 78.8877 259.37 78.3097 260.114 77.8861C260.858 77.4626 261.694 77.2508 262.621 77.2508C263.537 77.2508 264.367 77.4626 265.111 77.8861C265.855 78.3097 266.445 78.8877 266.88 79.6204C267.326 80.3415 267.549 81.1772 267.549 82.1273C267.549 83.066 267.326 83.9016 266.88 84.6342C266.433 85.3668 265.838 85.9449 265.094 86.3685C264.35 86.792 263.526 87.0038 262.621 87.0038ZM262.621 84.9433C263.125 84.9433 263.566 84.8231 263.943 84.5827C264.333 84.3423 264.636 84.0103 264.853 83.5868C265.082 83.1518 265.197 82.6653 265.197 82.1273C265.197 81.5778 265.082 81.097 264.853 80.6849C264.636 80.2614 264.333 79.9294 263.943 79.689C263.566 79.4372 263.125 79.3113 262.621 79.3113C262.106 79.3113 261.654 79.4372 261.265 79.689C260.876 79.9294 260.566 80.2614 260.337 80.6849C260.12 81.097 260.011 81.5778 260.011 82.1273C260.011 82.6653 260.12 83.1518 260.337 83.5868C260.566 84.0103 260.876 84.3423 261.265 84.5827C261.654 84.8231 262.106 84.9433 262.621 84.9433ZM269.169 86.7977V73.7995H271.419V86.7977H269.169Z" fill="#100A55"/>
<path d="M147.233 111.515V101.281H150.599C151.615 101.281 152.499 101.492 153.25 101.913C154.001 102.325 154.582 102.916 154.994 103.685C155.407 104.445 155.613 105.347 155.613 106.391C155.613 107.426 155.407 108.328 154.994 109.097C154.582 109.866 154.001 110.462 153.25 110.883C152.499 111.304 151.615 111.515 150.599 111.515H147.233ZM148.332 110.485H150.599C151.386 110.485 152.069 110.32 152.645 109.99C153.222 109.651 153.667 109.175 153.978 108.561C154.298 107.948 154.459 107.224 154.459 106.391C154.459 105.558 154.298 104.839 153.978 104.234C153.657 103.621 153.209 103.149 152.632 102.82C152.055 102.481 151.377 102.311 150.599 102.311H148.332V110.485ZM160.629 111.68C159.942 111.68 159.319 111.515 158.761 111.185C158.211 110.846 157.776 110.384 157.456 109.798C157.135 109.212 156.975 108.548 156.975 107.806C156.975 107.064 157.131 106.409 157.442 105.842C157.753 105.265 158.175 104.811 158.706 104.482C159.246 104.152 159.851 103.987 160.519 103.987C161.05 103.987 161.522 104.088 161.934 104.289C162.355 104.482 162.712 104.747 163.005 105.086C163.298 105.416 163.523 105.791 163.679 106.212C163.834 106.625 163.912 107.05 163.912 107.49C163.912 107.582 163.907 107.687 163.898 107.806C163.889 107.916 163.875 108.03 163.857 108.149H157.634V107.188H163.266L162.772 107.6C162.854 107.096 162.795 106.647 162.593 106.254C162.401 105.851 162.122 105.535 161.755 105.306C161.389 105.068 160.977 104.949 160.519 104.949C160.061 104.949 159.635 105.068 159.242 105.306C158.857 105.544 158.555 105.878 158.335 106.309C158.115 106.73 158.028 107.234 158.074 107.82C158.028 108.406 158.12 108.919 158.349 109.358C158.587 109.789 158.907 110.123 159.31 110.361C159.722 110.599 160.162 110.718 160.629 110.718C161.169 110.718 161.623 110.59 161.989 110.333C162.355 110.077 162.653 109.756 162.882 109.372L163.761 109.839C163.614 110.169 163.39 110.475 163.088 110.759C162.786 111.034 162.424 111.258 162.003 111.432C161.591 111.597 161.133 111.68 160.629 111.68ZM169.094 111.68C168.37 111.68 167.734 111.51 167.185 111.171C166.635 110.833 166.205 110.375 165.893 109.798C165.582 109.212 165.426 108.552 165.426 107.82C165.426 107.087 165.582 106.432 165.893 105.855C166.205 105.278 166.635 104.825 167.185 104.495C167.734 104.157 168.37 103.987 169.094 103.987C169.552 103.987 169.982 104.07 170.385 104.234C170.788 104.399 171.145 104.624 171.457 104.907C171.768 105.182 172.002 105.503 172.157 105.869L171.223 106.35C171.04 105.956 170.761 105.636 170.385 105.388C170.01 105.141 169.579 105.017 169.094 105.017C168.609 105.017 168.169 105.141 167.775 105.388C167.391 105.626 167.084 105.961 166.855 106.391C166.635 106.812 166.525 107.293 166.525 107.833C166.525 108.365 166.635 108.845 166.855 109.276C167.084 109.697 167.391 110.031 167.775 110.278C168.169 110.526 168.609 110.649 169.094 110.649C169.579 110.649 170.005 110.526 170.371 110.278C170.747 110.031 171.031 109.702 171.223 109.289L172.157 109.798C172.002 110.155 171.768 110.475 171.457 110.759C171.145 111.043 170.788 111.268 170.385 111.432C169.982 111.597 169.552 111.68 169.094 111.68ZM173.965 111.515V104.152H174.995V111.515H173.965ZM173.965 102.792V101.281H174.995V102.792H173.965ZM180.428 111.68C179.742 111.68 179.123 111.515 178.574 111.185C178.024 110.846 177.589 110.388 177.269 109.811C176.958 109.225 176.802 108.566 176.802 107.833C176.802 107.092 176.958 106.432 177.269 105.855C177.589 105.278 178.02 104.825 178.56 104.495C179.11 104.157 179.732 103.987 180.428 103.987C181.06 103.987 181.623 104.124 182.118 104.399C182.612 104.674 183.002 105.045 183.286 105.512L183.121 105.8V101.116H184.151V111.515H183.121V109.866L183.286 110.017C183.029 110.549 182.645 110.961 182.132 111.254C181.628 111.538 181.06 111.68 180.428 111.68ZM180.483 110.649C180.978 110.649 181.422 110.526 181.816 110.278C182.219 110.031 182.535 109.697 182.764 109.276C183.002 108.845 183.121 108.365 183.121 107.833C183.121 107.302 183.002 106.826 182.764 106.405C182.535 105.974 182.219 105.636 181.816 105.388C181.422 105.141 180.978 105.017 180.483 105.017C179.998 105.017 179.558 105.141 179.165 105.388C178.771 105.636 178.459 105.97 178.23 106.391C178.011 106.812 177.901 107.293 177.901 107.833C177.901 108.365 178.011 108.845 178.23 109.276C178.459 109.697 178.766 110.031 179.151 110.278C179.545 110.526 179.989 110.649 180.483 110.649ZM189.618 111.68C188.931 111.68 188.308 111.515 187.75 111.185C187.2 110.846 186.765 110.384 186.445 109.798C186.124 109.212 185.964 108.548 185.964 107.806C185.964 107.064 186.12 106.409 186.431 105.842C186.742 105.265 187.164 104.811 187.695 104.482C188.235 104.152 188.84 103.987 189.508 103.987C190.039 103.987 190.511 104.088 190.923 104.289C191.344 104.482 191.701 104.747 191.994 105.086C192.287 105.416 192.512 105.791 192.668 106.212C192.823 106.625 192.901 107.05 192.901 107.49C192.901 107.582 192.896 107.687 192.887 107.806C192.878 107.916 192.864 108.03 192.846 108.149H186.623V107.188H192.255L191.761 107.6C191.843 107.096 191.784 106.647 191.582 106.254C191.39 105.851 191.111 105.535 190.744 105.306C190.378 105.068 189.966 104.949 189.508 104.949C189.05 104.949 188.624 105.068 188.231 105.306C187.846 105.544 187.544 105.878 187.324 106.309C187.104 106.73 187.017 107.234 187.063 107.82C187.017 108.406 187.109 108.919 187.338 109.358C187.576 109.789 187.896 110.123 188.299 110.361C188.711 110.599 189.151 110.718 189.618 110.718C190.158 110.718 190.612 110.59 190.978 110.333C191.344 110.077 191.642 109.756 191.871 109.372L192.75 109.839C192.603 110.169 192.379 110.475 192.077 110.759C191.775 111.034 191.413 111.258 190.992 111.432C190.58 111.597 190.122 111.68 189.618 111.68ZM198.673 111.515L196.145 104.152H197.313L199.401 110.594H198.989L200.953 104.152H201.983L203.947 110.594H203.535L205.637 104.152H206.791L204.263 111.515H203.233L201.324 105.21H201.612L199.703 111.515H198.673ZM207.998 111.515V101.116H209.028V105.581L208.795 105.526C208.978 105.049 209.275 104.674 209.688 104.399C210.109 104.124 210.594 103.987 211.144 103.987C211.666 103.987 212.133 104.106 212.545 104.344C212.966 104.582 213.296 104.912 213.534 105.333C213.781 105.745 213.905 106.212 213.905 106.734V111.515H212.874V107.133C212.874 106.684 212.792 106.304 212.627 105.993C212.462 105.681 212.233 105.443 211.94 105.278C211.656 105.104 211.331 105.017 210.965 105.017C210.599 105.017 210.269 105.104 209.976 105.278C209.683 105.443 209.449 105.686 209.275 106.006C209.111 106.318 209.028 106.693 209.028 107.133V111.515H207.998ZM219.32 111.68C218.624 111.68 217.992 111.515 217.425 111.185C216.857 110.846 216.404 110.388 216.065 109.811C215.735 109.225 215.57 108.561 215.57 107.82C215.57 107.087 215.735 106.432 216.065 105.855C216.394 105.278 216.839 104.825 217.397 104.495C217.965 104.157 218.606 103.987 219.32 103.987C220.035 103.987 220.671 104.152 221.23 104.482C221.797 104.811 222.242 105.265 222.562 105.842C222.892 106.418 223.057 107.078 223.057 107.82C223.057 108.571 222.887 109.239 222.548 109.825C222.21 110.402 221.756 110.855 221.188 111.185C220.63 111.515 220.007 111.68 219.32 111.68ZM219.32 110.649C219.815 110.649 220.259 110.526 220.653 110.278C221.056 110.031 221.372 109.692 221.601 109.262C221.839 108.832 221.958 108.351 221.958 107.82C221.958 107.288 221.839 106.812 221.601 106.391C221.372 105.97 221.056 105.636 220.653 105.388C220.259 105.141 219.815 105.017 219.32 105.017C218.826 105.017 218.377 105.141 217.974 105.388C217.58 105.636 217.264 105.97 217.026 106.391C216.788 106.812 216.669 107.288 216.669 107.82C216.669 108.351 216.788 108.832 217.026 109.262C217.264 109.692 217.58 110.031 217.974 110.278C218.377 110.526 218.826 110.649 219.32 110.649ZM229.172 111.515L226.301 104.152H227.455L229.873 110.608H229.502L231.933 104.152H233.101L230.202 111.515H229.172ZM234.304 111.515V104.152H235.334V111.515H234.304ZM234.304 102.792V101.281H235.334V102.792H234.304ZM239.998 111.68C239.293 111.68 238.675 111.501 238.144 111.144C237.613 110.787 237.228 110.301 236.99 109.688L237.855 109.276C238.066 109.724 238.359 110.082 238.734 110.347C239.119 110.613 239.54 110.746 239.998 110.746C240.438 110.746 240.809 110.64 241.111 110.43C241.413 110.21 241.564 109.926 241.564 109.578C241.564 109.321 241.491 109.12 241.344 108.974C241.198 108.818 241.028 108.699 240.836 108.616C240.644 108.534 240.474 108.474 240.328 108.438L239.27 108.136C238.592 107.943 238.102 107.673 237.8 107.325C237.498 106.977 237.347 106.574 237.347 106.116C237.347 105.686 237.457 105.31 237.677 104.99C237.896 104.669 238.194 104.422 238.57 104.248C238.945 104.074 239.362 103.987 239.82 103.987C240.442 103.987 241.005 104.152 241.509 104.482C242.022 104.802 242.384 105.251 242.594 105.828L241.715 106.24C241.532 105.828 241.266 105.507 240.918 105.278C240.58 105.04 240.2 104.921 239.778 104.921C239.366 104.921 239.037 105.027 238.789 105.237C238.542 105.448 238.418 105.713 238.418 106.034C238.418 106.281 238.483 106.478 238.611 106.625C238.739 106.771 238.885 106.881 239.05 106.954C239.224 107.027 239.375 107.082 239.504 107.119L240.726 107.476C241.321 107.65 241.784 107.92 242.114 108.287C242.452 108.653 242.622 109.083 242.622 109.578C242.622 109.981 242.507 110.343 242.278 110.663C242.059 110.984 241.752 111.235 241.358 111.419C240.964 111.593 240.511 111.68 239.998 111.68ZM244.432 111.515V104.152H245.462V111.515H244.432ZM244.432 102.792V101.281H245.462V102.792H244.432ZM250.387 111.597C249.728 111.597 249.22 111.405 248.862 111.02C248.505 110.636 248.327 110.086 248.327 109.372V105.182H246.967V104.152H247.31C247.622 104.152 247.869 104.051 248.052 103.85C248.235 103.639 248.327 103.378 248.327 103.067V102.449H249.357V104.152H250.978V105.182H249.357V109.372C249.357 109.619 249.394 109.839 249.467 110.031C249.54 110.214 249.664 110.361 249.838 110.471C250.021 110.581 250.264 110.636 250.566 110.636C250.639 110.636 250.726 110.631 250.827 110.622C250.927 110.613 251.014 110.604 251.088 110.594V111.515C250.978 111.542 250.854 111.561 250.717 111.57C250.579 111.588 250.47 111.597 250.387 111.597ZM255.452 111.68C254.747 111.68 254.128 111.501 253.597 111.144C253.066 110.787 252.682 110.301 252.443 109.688L253.309 109.276C253.519 109.724 253.813 110.082 254.188 110.347C254.573 110.613 254.994 110.746 255.452 110.746C255.891 110.746 256.262 110.64 256.564 110.43C256.867 110.21 257.018 109.926 257.018 109.578C257.018 109.321 256.944 109.12 256.798 108.974C256.651 108.818 256.482 108.699 256.29 108.616C256.097 108.534 255.928 108.474 255.781 108.438L254.724 108.136C254.046 107.943 253.556 107.673 253.254 107.325C252.952 106.977 252.801 106.574 252.801 106.116C252.801 105.686 252.911 105.31 253.13 104.99C253.35 104.669 253.648 104.422 254.023 104.248C254.399 104.074 254.815 103.987 255.273 103.987C255.896 103.987 256.459 104.152 256.963 104.482C257.476 104.802 257.837 105.251 258.048 105.828L257.169 106.24C256.986 105.828 256.72 105.507 256.372 105.278C256.033 105.04 255.653 104.921 255.232 104.921C254.82 104.921 254.49 105.027 254.243 105.237C253.996 105.448 253.872 105.713 253.872 106.034C253.872 106.281 253.936 106.478 254.064 106.625C254.193 106.771 254.339 106.881 254.504 106.954C254.678 107.027 254.829 107.082 254.957 107.119L256.18 107.476C256.775 107.65 257.238 107.92 257.567 108.287C257.906 108.653 258.075 109.083 258.075 109.578C258.075 109.981 257.961 110.343 257.732 110.663C257.512 110.984 257.205 111.235 256.812 111.419C256.418 111.593 255.965 111.68 255.452 111.68ZM262.371 114.537C262.225 114.537 262.073 114.523 261.918 114.496C261.771 114.477 261.625 114.441 261.478 114.386V113.424C261.57 113.433 261.684 113.447 261.822 113.465C261.968 113.493 262.115 113.507 262.261 113.507C262.71 113.507 263.053 113.41 263.291 113.218C263.529 113.035 263.763 112.678 263.992 112.147L264.459 111.048L264.432 111.954L261.313 104.152H262.426L264.981 110.594H264.693L267.234 104.152H268.374L265.008 112.449C264.862 112.806 264.674 113.145 264.445 113.465C264.225 113.786 263.946 114.042 263.607 114.235C263.269 114.436 262.856 114.537 262.371 114.537ZM272.898 111.68C272.202 111.68 271.57 111.515 271.003 111.185C270.435 110.846 269.982 110.388 269.643 109.811C269.313 109.225 269.148 108.561 269.148 107.82C269.148 107.087 269.313 106.432 269.643 105.855C269.972 105.278 270.417 104.825 270.975 104.495C271.543 104.157 272.184 103.987 272.898 103.987C273.613 103.987 274.249 104.152 274.808 104.482C275.375 104.811 275.82 105.265 276.14 105.842C276.47 106.418 276.635 107.078 276.635 107.82C276.635 108.571 276.465 109.239 276.126 109.825C275.788 110.402 275.334 110.855 274.766 111.185C274.208 111.515 273.585 111.68 272.898 111.68ZM272.898 110.649C273.393 110.649 273.837 110.526 274.231 110.278C274.634 110.031 274.95 109.692 275.179 109.262C275.417 108.832 275.536 108.351 275.536 107.82C275.536 107.288 275.417 106.812 275.179 106.391C274.95 105.97 274.634 105.636 274.231 105.388C273.837 105.141 273.393 105.017 272.898 105.017C272.404 105.017 271.955 105.141 271.552 105.388C271.158 105.636 270.842 105.97 270.604 106.391C270.366 106.812 270.247 107.288 270.247 107.82C270.247 108.351 270.366 108.832 270.604 109.262C270.842 109.692 271.158 110.031 271.552 110.278C271.955 110.526 272.404 110.649 272.898 110.649ZM281.062 111.68C280.549 111.68 280.082 111.561 279.66 111.322C279.239 111.075 278.905 110.736 278.658 110.306C278.42 109.866 278.301 109.363 278.301 108.795V104.152H279.331V108.671C279.331 109.065 279.409 109.413 279.564 109.715C279.729 110.008 279.954 110.237 280.237 110.402C280.53 110.567 280.865 110.649 281.24 110.649C281.616 110.649 281.95 110.567 282.243 110.402C282.536 110.228 282.765 109.985 282.93 109.674C283.095 109.354 283.177 108.974 283.177 108.534V104.152H284.207V111.515H283.177V110.086L283.411 110.141C283.237 110.617 282.939 110.993 282.518 111.268C282.096 111.542 281.611 111.68 281.062 111.68ZM290.789 111.68C290.322 111.68 289.906 111.593 289.539 111.419C289.173 111.235 288.885 110.988 288.674 110.677C288.463 110.365 288.358 110.008 288.358 109.605C288.358 109.221 288.44 108.873 288.605 108.561C288.77 108.241 289.026 107.971 289.374 107.751C289.722 107.531 290.167 107.375 290.707 107.284L293.592 106.803V107.737L290.954 108.177C290.423 108.268 290.038 108.438 289.8 108.685C289.571 108.932 289.457 109.225 289.457 109.564C289.457 109.894 289.585 110.173 289.842 110.402C290.107 110.631 290.446 110.746 290.858 110.746C291.362 110.746 291.801 110.64 292.177 110.43C292.552 110.21 292.845 109.917 293.056 109.55C293.267 109.184 293.372 108.777 293.372 108.328V106.46C293.372 106.02 293.212 105.663 292.891 105.388C292.571 105.114 292.154 104.976 291.641 104.976C291.192 104.976 290.799 105.091 290.46 105.32C290.121 105.539 289.869 105.828 289.704 106.185L288.77 105.677C288.907 105.365 289.123 105.081 289.416 104.825C289.718 104.569 290.061 104.367 290.446 104.221C290.831 104.065 291.229 103.987 291.641 103.987C292.181 103.987 292.658 104.092 293.07 104.303C293.491 104.514 293.816 104.807 294.045 105.182C294.283 105.549 294.402 105.974 294.402 106.46V111.515H293.372V110.045L293.523 110.196C293.395 110.471 293.193 110.723 292.919 110.952C292.653 111.171 292.337 111.35 291.971 111.487C291.614 111.616 291.22 111.68 290.789 111.68ZM296.521 111.515V104.152H297.551V105.581L297.318 105.526C297.501 105.049 297.799 104.674 298.211 104.399C298.632 104.124 299.117 103.987 299.667 103.987C300.189 103.987 300.656 104.106 301.068 104.344C301.489 104.582 301.819 104.912 302.057 105.333C302.304 105.745 302.428 106.212 302.428 106.734V111.515H301.398V107.133C301.398 106.684 301.315 106.304 301.15 105.993C300.995 105.681 300.77 105.443 300.477 105.278C300.193 105.104 299.864 105.017 299.488 105.017C299.113 105.017 298.779 105.104 298.485 105.278C298.192 105.443 297.963 105.686 297.799 106.006C297.634 106.318 297.551 106.693 297.551 107.133V111.515H296.521ZM307.72 111.68C307.033 111.68 306.415 111.515 305.865 111.185C305.316 110.846 304.881 110.388 304.56 109.811C304.249 109.225 304.093 108.566 304.093 107.833C304.093 107.092 304.249 106.432 304.56 105.855C304.881 105.278 305.311 104.825 305.852 104.495C306.401 104.157 307.024 103.987 307.72 103.987C308.352 103.987 308.915 104.124 309.409 104.399C309.904 104.674 310.293 105.045 310.577 105.512L310.412 105.8V101.116H311.442V111.515H310.412V109.866L310.577 110.017C310.321 110.549 309.936 110.961 309.423 111.254C308.919 111.538 308.352 111.68 307.72 111.68ZM307.775 110.649C308.269 110.649 308.713 110.526 309.107 110.278C309.51 110.031 309.826 109.697 310.055 109.276C310.293 108.845 310.412 108.365 310.412 107.833C310.412 107.302 310.293 106.826 310.055 106.405C309.826 105.974 309.51 105.636 309.107 105.388C308.713 105.141 308.269 105.017 307.775 105.017C307.289 105.017 306.85 105.141 306.456 105.388C306.062 105.636 305.751 105.97 305.522 106.391C305.302 106.812 305.192 107.293 305.192 107.833C305.192 108.365 305.302 108.845 305.522 109.276C305.751 109.697 306.058 110.031 306.442 110.278C306.836 110.526 307.28 110.649 307.775 110.649ZM317.513 111.515L314.985 104.152H316.153L318.241 110.594H317.829L319.793 104.152H320.823L322.788 110.594H322.376L324.477 104.152H325.631L323.104 111.515H322.073L320.164 105.21H320.452L318.543 111.515H317.513ZM326.838 111.515V101.116H327.868V105.581L327.635 105.526C327.818 105.049 328.116 104.674 328.528 104.399C328.949 104.124 329.434 103.987 329.984 103.987C330.506 103.987 330.973 104.106 331.385 104.344C331.806 104.582 332.136 104.912 332.374 105.333C332.621 105.745 332.745 106.212 332.745 106.734V111.515H331.715V107.133C331.715 106.684 331.632 106.304 331.467 105.993C331.303 105.681 331.074 105.443 330.781 105.278C330.497 105.104 330.172 105.017 329.805 105.017C329.439 105.017 329.109 105.104 328.816 105.278C328.523 105.443 328.29 105.686 328.116 106.006C327.951 106.318 327.868 106.693 327.868 107.133V111.515H326.838ZM338.161 111.68C337.465 111.68 336.833 111.515 336.265 111.185C335.697 110.846 335.244 110.388 334.905 109.811C334.575 109.225 334.41 108.561 334.41 107.82C334.41 107.087 334.575 106.432 334.905 105.855C335.235 105.278 335.679 104.825 336.237 104.495C336.805 104.157 337.446 103.987 338.161 103.987C338.875 103.987 339.511 104.152 340.07 104.482C340.638 104.811 341.082 105.265 341.402 105.842C341.732 106.418 341.897 107.078 341.897 107.82C341.897 108.571 341.727 109.239 341.389 109.825C341.05 110.402 340.596 110.855 340.029 111.185C339.47 111.515 338.847 111.68 338.161 111.68ZM338.161 110.649C338.655 110.649 339.099 110.526 339.493 110.278C339.896 110.031 340.212 109.692 340.441 109.262C340.679 108.832 340.798 108.351 340.798 107.82C340.798 107.288 340.679 106.812 340.441 106.391C340.212 105.97 339.896 105.636 339.493 105.388C339.099 105.141 338.655 105.017 338.161 105.017C337.666 105.017 337.217 105.141 336.814 105.388C336.421 105.636 336.105 105.97 335.866 106.391C335.628 106.812 335.509 107.288 335.509 107.82C335.509 108.351 335.628 108.832 335.866 109.262C336.105 109.692 336.421 110.031 336.814 110.278C337.217 110.526 337.666 110.649 338.161 110.649ZM344.071 111.515V110.004H345.17V111.515H344.071ZM348.001 111.515V110.004H349.1V111.515H348.001ZM351.932 111.515V110.004H353.031V111.515H351.932Z" fill="#4D5461"/>
<defs>
<filter id="filter0_d_354_4795" x="0.0731697" y="0.151295" width="437.854" height="182.01" filterUnits="userSpaceOnUse" color-interpolation-filters="sRGB">
<feFlood flood-opacity="0" result="BackgroundImageFix"/>
<feColorMatrix in="SourceAlpha" type="matrix" values="0 0 0 0 0 0 0 0 0 0 0 0 0 0 0 0 0 0 127 0" result="hardAlpha"/>
<feOffset/>
<feGaussianBlur stdDeviation="21.4634"/>
<feComposite in2="hardAlpha" operator="out"/>
<feColorMatrix type="matrix" values="0 0 0 0 0.439216 0 0 0 0 0.396078 0 0 0 0 0.941176 0 0 0 0.2 0"/>
<feBlend mode="normal" in2="BackgroundImageFix" result="effect1_dropShadow_354_4795"/>
<feBlend mode="normal" in="SourceGraphic" in2="effect1_dropShadow_354_4795" result="shape"/>
</filter>
</defs>
</svg>
