<svg width="282" height="118" viewBox="0 0 282 118" fill="none" xmlns="http://www.w3.org/2000/svg">
<g filter="url(#filter0_d_354_4821)">
<rect x="28" y="28" width="226" height="61.7366" rx="4.40976" fill="white"/>
<rect x="28.4134" y="28.4134" width="225.173" height="60.9098" rx="3.99634" stroke="#E0DEF7" stroke-width="0.826829"/>
</g>
<circle cx="63.2779" cy="58.8684" r="17.0878" fill="#F0EFFB" stroke="#D9D6F5" stroke-width="1.10244"/>
<path d="M61.0732 66.218H65.4829C69.1577 66.218 70.6277 64.7481 70.6277 61.0733V56.6635C70.6277 52.9887 69.1577 51.5188 65.4829 51.5188H61.0732C57.3984 51.5188 55.9285 52.9887 55.9285 56.6635V61.0733C55.9285 64.7481 57.3984 66.218 61.0732 66.218Z" stroke="#7065F0" stroke-width="1.65366" stroke-linecap="round" stroke-linejoin="round"/>
<path d="M61.1467 58.8684V57.7807C61.1467 56.3769 62.1389 55.811 63.3516 56.5092L64.2924 57.0531L65.2331 57.597C66.4458 58.2952 66.4458 59.4417 65.2331 60.1399L64.2924 60.6838L63.3516 61.2277C62.1389 61.9259 61.1467 61.3526 61.1467 59.9562V58.8684Z" stroke="#7065F0" stroke-width="1.65366" stroke-miterlimit="10" stroke-linecap="round" stroke-linejoin="round"/>
<path d="M94.2675 55.3171L97.1008 47.104H99.0411L101.874 55.3171H100.243L99.6584 53.5532H96.4834L95.8881 55.3171H94.2675ZM96.9134 52.2303H99.2285L97.8615 48.1403H98.2804L96.9134 52.2303ZM105.285 55.4494C104.69 55.4494 104.153 55.3135 103.676 55.0415C103.205 54.7622 102.834 54.3874 102.562 53.917C102.29 53.4393 102.154 52.9028 102.154 52.3075C102.154 51.7122 102.29 51.1793 102.562 50.7089C102.834 50.2386 103.205 49.8674 103.676 49.5955C104.153 49.3235 104.69 49.1876 105.285 49.1876C105.711 49.1876 106.108 49.2647 106.476 49.4191C106.843 49.5661 107.159 49.7719 107.424 50.0365C107.696 50.2937 107.891 50.6024 108.008 50.9625L106.74 51.5137C106.63 51.2124 106.443 50.9699 106.178 50.7861C105.921 50.6024 105.623 50.5105 105.285 50.5105C104.969 50.5105 104.686 50.5877 104.436 50.742C104.194 50.8964 104.003 51.1095 103.863 51.3814C103.723 51.6534 103.653 51.9657 103.653 52.3185C103.653 52.6713 103.723 52.9836 103.863 53.2556C104.003 53.5275 104.194 53.7407 104.436 53.895C104.686 54.0493 104.969 54.1265 105.285 54.1265C105.631 54.1265 105.932 54.0346 106.189 53.8509C106.446 53.6672 106.63 53.4209 106.74 53.1123L108.008 53.6855C107.891 54.0236 107.699 54.3286 107.435 54.6006C107.17 54.8651 106.854 55.0746 106.487 55.2289C106.119 55.3759 105.719 55.4494 105.285 55.4494ZM111.937 55.4494C111.342 55.4494 110.805 55.3135 110.328 55.0415C109.857 54.7622 109.486 54.3874 109.214 53.917C108.942 53.4393 108.806 52.9028 108.806 52.3075C108.806 51.7122 108.942 51.1793 109.214 50.7089C109.486 50.2386 109.857 49.8674 110.328 49.5955C110.805 49.3235 111.342 49.1876 111.937 49.1876C112.363 49.1876 112.76 49.2647 113.128 49.4191C113.495 49.5661 113.811 49.7719 114.076 50.0365C114.348 50.2937 114.543 50.6024 114.66 50.9625L113.392 51.5137C113.282 51.2124 113.095 50.9699 112.83 50.7861C112.573 50.6024 112.275 50.5105 111.937 50.5105C111.621 50.5105 111.338 50.5877 111.088 50.742C110.846 50.8964 110.655 51.1095 110.515 51.3814C110.375 51.6534 110.306 51.9657 110.306 52.3185C110.306 52.6713 110.375 52.9836 110.515 53.2556C110.655 53.5275 110.846 53.7407 111.088 53.895C111.338 54.0493 111.621 54.1265 111.937 54.1265C112.283 54.1265 112.584 54.0346 112.841 53.8509C113.098 53.6672 113.282 53.4209 113.392 53.1123L114.66 53.6855C114.543 54.0236 114.352 54.3286 114.087 54.6006C113.822 54.8651 113.506 55.0746 113.139 55.2289C112.771 55.3759 112.371 55.4494 111.937 55.4494ZM118.545 55.4494C117.928 55.4494 117.388 55.3098 116.925 55.0305C116.462 54.7512 116.101 54.3727 115.844 53.895C115.587 53.4173 115.458 52.8881 115.458 52.3075C115.458 51.7048 115.587 51.172 115.844 50.7089C116.109 50.2386 116.465 49.8674 116.914 49.5955C117.369 49.3235 117.876 49.1876 118.435 49.1876C118.905 49.1876 119.317 49.2647 119.67 49.4191C120.03 49.5734 120.335 49.7866 120.585 50.0585C120.835 50.3304 121.026 50.6428 121.158 50.9956C121.29 51.341 121.356 51.7158 121.356 52.1201C121.356 52.223 121.349 52.3295 121.334 52.4398C121.327 52.55 121.309 52.6456 121.279 52.7264H116.649V51.624H120.463L119.78 52.1421C119.846 51.804 119.828 51.5027 119.725 51.2381C119.629 50.9735 119.468 50.7641 119.24 50.6097C119.019 50.4554 118.751 50.3782 118.435 50.3782C118.134 50.3782 117.865 50.4554 117.63 50.6097C117.395 50.7567 117.215 50.9772 117.09 51.2712C116.972 51.5578 116.928 51.9069 116.958 52.3185C116.928 52.686 116.976 53.013 117.101 53.2997C117.233 53.579 117.424 53.7958 117.674 53.9501C117.932 54.1045 118.225 54.1816 118.556 54.1816C118.887 54.1816 119.166 54.1118 119.394 53.9722C119.629 53.8325 119.813 53.6451 119.945 53.4099L121.114 53.9832C120.996 54.2698 120.813 54.5234 120.563 54.7439C120.313 54.9644 120.015 55.1371 119.67 55.262C119.332 55.387 118.957 55.4494 118.545 55.4494ZM124.678 55.4494C124.039 55.4494 123.48 55.2988 123.002 54.9974C122.532 54.6887 122.209 54.2735 122.032 53.7517L123.113 53.2335C123.267 53.5716 123.48 53.8362 123.752 54.0273C124.031 54.2184 124.34 54.3139 124.678 54.3139C124.943 54.3139 125.152 54.2551 125.307 54.1375C125.461 54.0199 125.538 53.8656 125.538 53.6745C125.538 53.5569 125.505 53.4614 125.439 53.3879C125.38 53.307 125.295 53.2409 125.185 53.1894C125.082 53.1306 124.968 53.0829 124.843 53.0461L123.862 52.7705C123.355 52.6235 122.969 52.3993 122.705 52.098C122.448 51.7967 122.319 51.4402 122.319 51.0287C122.319 50.6612 122.411 50.3415 122.595 50.0695C122.786 49.7902 123.047 49.5734 123.377 49.4191C123.715 49.2647 124.101 49.1876 124.535 49.1876C125.101 49.1876 125.6 49.3235 126.034 49.5955C126.468 49.8674 126.776 50.2496 126.96 50.742L125.858 51.2602C125.755 50.9882 125.582 50.7714 125.34 50.6097C125.097 50.448 124.825 50.3672 124.524 50.3672C124.281 50.3672 124.09 50.4223 123.951 50.5326C123.811 50.6428 123.741 50.7861 123.741 50.9625C123.741 51.0727 123.77 51.1683 123.829 51.2491C123.888 51.33 123.969 51.3961 124.072 51.4476C124.182 51.499 124.307 51.5468 124.447 51.5909L125.406 51.8775C125.898 52.0245 126.277 52.245 126.541 52.539C126.813 52.833 126.949 53.1931 126.949 53.6194C126.949 53.9795 126.854 54.2992 126.663 54.5785C126.471 54.8504 126.207 55.0636 125.869 55.2179C125.531 55.3723 125.134 55.4494 124.678 55.4494ZM130.286 55.4494C129.647 55.4494 129.088 55.2988 128.61 54.9974C128.14 54.6887 127.816 54.2735 127.64 53.7517L128.72 53.2335C128.875 53.5716 129.088 53.8362 129.36 54.0273C129.639 54.2184 129.948 54.3139 130.286 54.3139C130.551 54.3139 130.76 54.2551 130.914 54.1375C131.069 54.0199 131.146 53.8656 131.146 53.6745C131.146 53.5569 131.113 53.4614 131.047 53.3879C130.988 53.307 130.903 53.2409 130.793 53.1894C130.69 53.1306 130.576 53.0829 130.451 53.0461L129.47 52.7705C128.963 52.6235 128.577 52.3993 128.313 52.098C128.055 51.7967 127.927 51.4402 127.927 51.0287C127.927 50.6612 128.019 50.3415 128.202 50.0695C128.393 49.7902 128.654 49.5734 128.985 49.4191C129.323 49.2647 129.709 49.1876 130.143 49.1876C130.709 49.1876 131.208 49.3235 131.642 49.5955C132.076 49.8674 132.384 50.2496 132.568 50.742L131.466 51.2602C131.363 50.9882 131.19 50.7714 130.947 50.6097C130.705 50.448 130.433 50.3672 130.132 50.3672C129.889 50.3672 129.698 50.4223 129.558 50.5326C129.419 50.6428 129.349 50.7861 129.349 50.9625C129.349 51.0727 129.378 51.1683 129.437 51.2491C129.496 51.33 129.577 51.3961 129.68 51.4476C129.79 51.499 129.915 51.5468 130.054 51.5909L131.014 51.8775C131.506 52.0245 131.884 52.245 132.149 52.539C132.421 52.833 132.557 53.1931 132.557 53.6194C132.557 53.9795 132.461 54.2992 132.27 54.5785C132.079 54.8504 131.815 55.0636 131.477 55.2179C131.138 55.3723 130.742 55.4494 130.286 55.4494ZM139.496 55.4494C138.908 55.4494 138.364 55.3429 137.864 55.1297C137.372 54.9166 136.938 54.6189 136.563 54.2367C136.196 53.8546 135.909 53.4062 135.703 52.8918C135.498 52.3773 135.395 51.8151 135.395 51.205C135.395 50.595 135.494 50.0328 135.692 49.5183C135.898 48.9965 136.185 48.5482 136.552 48.1733C136.927 47.7912 137.364 47.4972 137.864 47.2914C138.364 47.0782 138.908 46.9717 139.496 46.9717C140.084 46.9717 140.609 47.0709 141.072 47.2693C141.543 47.4678 141.939 47.7324 142.263 48.0631C142.586 48.3865 142.818 48.7429 142.957 49.1325L141.612 49.7608C141.458 49.3493 141.197 49.0112 140.83 48.7466C140.462 48.4747 140.018 48.3387 139.496 48.3387C138.981 48.3387 138.526 48.46 138.129 48.7025C137.739 48.945 137.434 49.2794 137.214 49.7057C137.001 50.132 136.894 50.6318 136.894 51.205C136.894 51.7783 137.001 52.2818 137.214 52.7154C137.434 53.1417 137.739 53.4761 138.129 53.7186C138.526 53.9611 138.981 54.0824 139.496 54.0824C140.018 54.0824 140.462 53.9501 140.83 53.6855C141.197 53.4136 141.458 53.0718 141.612 52.6603L142.957 53.2887C142.818 53.6782 142.586 54.0383 142.263 54.369C141.939 54.6924 141.543 54.9533 141.072 55.1518C140.609 55.3502 140.084 55.4494 139.496 55.4494ZM146.823 55.4494C146.235 55.4494 145.699 55.3135 145.214 55.0415C144.736 54.7696 144.354 54.3984 144.067 53.9281C143.788 53.4577 143.648 52.9212 143.648 52.3185C143.648 51.7158 143.788 51.1793 144.067 50.7089C144.354 50.2386 144.736 49.8674 145.214 49.5955C145.691 49.3235 146.228 49.1876 146.823 49.1876C147.411 49.1876 147.944 49.3235 148.422 49.5955C148.899 49.8674 149.278 50.2386 149.557 50.7089C149.844 51.172 149.987 51.7085 149.987 52.3185C149.987 52.9212 149.844 53.4577 149.557 53.9281C149.271 54.3984 148.888 54.7696 148.411 55.0415C147.933 55.3135 147.404 55.4494 146.823 55.4494ZM146.823 54.1265C147.146 54.1265 147.429 54.0493 147.672 53.895C147.922 53.7407 148.117 53.5275 148.256 53.2556C148.403 52.9763 148.477 52.6639 148.477 52.3185C148.477 51.9657 148.403 51.657 148.256 51.3925C148.117 51.1205 147.922 50.9074 147.672 50.753C147.429 50.5913 147.146 50.5105 146.823 50.5105C146.492 50.5105 146.202 50.5913 145.952 50.753C145.702 50.9074 145.504 51.1205 145.357 51.3925C145.217 51.657 145.147 51.9657 145.147 52.3185C145.147 52.6639 145.217 52.9763 145.357 53.2556C145.504 53.5275 145.702 53.7407 145.952 53.895C146.202 54.0493 146.492 54.1265 146.823 54.1265ZM151.027 55.3171V49.3199H152.383V50.4995L152.273 50.29C152.413 49.9299 152.64 49.658 152.956 49.4742C153.28 49.2831 153.655 49.1876 154.081 49.1876C154.522 49.1876 154.911 49.2831 155.25 49.4742C155.595 49.6653 155.863 49.9336 156.054 50.279C156.245 50.6171 156.341 51.0103 156.341 51.4586V55.3171H154.897V51.8004C154.897 51.5358 154.845 51.3079 154.742 51.1168C154.64 50.9258 154.496 50.7788 154.312 50.6759C154.136 50.5656 153.927 50.5105 153.684 50.5105C153.449 50.5105 153.239 50.5656 153.056 50.6759C152.872 50.7788 152.729 50.9258 152.626 51.1168C152.523 51.3079 152.471 51.5358 152.471 51.8004V55.3171H151.027ZM160.241 55.3833C159.565 55.3833 159.039 55.1995 158.665 54.8321C158.297 54.4572 158.113 53.9317 158.113 53.2556V50.6097H157.077V49.3199H157.187C157.481 49.3199 157.709 49.2427 157.871 49.0884C158.033 48.934 158.113 48.7099 158.113 48.4159V47.9528H159.558V49.3199H160.936V50.6097H159.558V53.1784C159.558 53.3768 159.591 53.5459 159.657 53.6855C159.73 53.8252 159.841 53.9317 159.988 54.0052C160.142 54.0787 160.337 54.1155 160.572 54.1155C160.623 54.1155 160.682 54.1118 160.748 54.1045C160.822 54.0971 160.892 54.0898 160.958 54.0824V55.3171C160.855 55.3318 160.737 55.3465 160.605 55.3612C160.473 55.3759 160.351 55.3833 160.241 55.3833ZM162.006 55.3171V49.3199H163.362V50.6538L163.252 50.4554C163.391 50.0071 163.608 49.6947 163.902 49.5183C164.203 49.3419 164.564 49.2537 164.983 49.2537H165.335V50.5326H164.817C164.406 50.5326 164.075 50.6612 163.825 50.9184C163.575 51.1683 163.45 51.5211 163.45 51.9767V55.3171H162.006ZM169.007 55.4494C168.419 55.4494 167.882 55.3135 167.397 55.0415C166.919 54.7696 166.537 54.3984 166.251 53.9281C165.971 53.4577 165.832 52.9212 165.832 52.3185C165.832 51.7158 165.971 51.1793 166.251 50.7089C166.537 50.2386 166.919 49.8674 167.397 49.5955C167.875 49.3235 168.411 49.1876 169.007 49.1876C169.595 49.1876 170.127 49.3235 170.605 49.5955C171.083 49.8674 171.461 50.2386 171.741 50.7089C172.027 51.172 172.171 51.7085 172.171 52.3185C172.171 52.9212 172.027 53.4577 171.741 53.9281C171.454 54.3984 171.072 54.7696 170.594 55.0415C170.116 55.3135 169.587 55.4494 169.007 55.4494ZM169.007 54.1265C169.33 54.1265 169.613 54.0493 169.856 53.895C170.105 53.7407 170.3 53.5275 170.44 53.2556C170.587 52.9763 170.66 52.6639 170.66 52.3185C170.66 51.9657 170.587 51.657 170.44 51.3925C170.3 51.1205 170.105 50.9074 169.856 50.753C169.613 50.5913 169.33 50.5105 169.007 50.5105C168.676 50.5105 168.386 50.5913 168.136 50.753C167.886 50.9074 167.687 51.1205 167.54 51.3925C167.401 51.657 167.331 51.9657 167.331 52.3185C167.331 52.6639 167.401 52.9763 167.54 53.2556C167.687 53.5275 167.886 53.7407 168.136 53.895C168.386 54.0493 168.676 54.1265 169.007 54.1265ZM173.211 55.3171V46.9717H174.655V55.3171H173.211Z" fill="#100A55"/>
<path d="M94.9224 72.4196V65.849H97.0831C97.7358 65.849 98.3032 65.9843 98.7853 66.2547C99.2674 66.5193 99.6408 66.8985 99.9054 67.3924C100.17 67.8804 100.302 68.4596 100.302 69.1299C100.302 69.7943 100.17 70.3734 99.9054 70.8673C99.6408 71.3612 99.2674 71.7434 98.7853 72.0139C98.3032 72.2843 97.7358 72.4196 97.0831 72.4196H94.9224ZM95.6279 71.7581H97.0831C97.5888 71.7581 98.0268 71.6523 98.3972 71.4406C98.7677 71.223 99.0528 70.9173 99.2527 70.5234C99.4585 70.1294 99.5614 69.6649 99.5614 69.1299C99.5614 68.5948 99.4585 68.1333 99.2527 67.7452C99.0469 67.3513 98.7588 67.0485 98.3884 66.8368C98.018 66.6193 97.5829 66.5105 97.0831 66.5105H95.6279V71.7581ZM103.523 72.5254C103.082 72.5254 102.682 72.4196 102.324 72.2079C101.971 71.9903 101.692 71.6934 101.486 71.3171C101.28 70.9408 101.177 70.5145 101.177 70.0383C101.177 69.562 101.277 69.1416 101.477 68.7771C101.677 68.4067 101.947 68.1156 102.288 67.904C102.635 67.6923 103.023 67.5865 103.452 67.5865C103.794 67.5865 104.096 67.6511 104.361 67.7805C104.631 67.904 104.861 68.0745 105.049 68.292C105.237 68.5037 105.381 68.7448 105.481 69.0152C105.581 69.2798 105.631 69.5532 105.631 69.8354C105.631 69.8942 105.628 69.9619 105.622 70.0383C105.616 70.1088 105.607 70.1823 105.596 70.2588H101.6V69.6414H105.216L104.899 69.906C104.952 69.5826 104.914 69.2945 104.784 69.0417C104.661 68.783 104.481 68.5801 104.246 68.4331C104.011 68.2803 103.746 68.2038 103.452 68.2038C103.158 68.2038 102.885 68.2803 102.632 68.4331C102.385 68.586 102.191 68.8006 102.05 69.077C101.909 69.3474 101.853 69.6708 101.883 70.0471C101.853 70.4234 101.912 70.7527 102.059 71.0349C102.212 71.3112 102.418 71.5258 102.676 71.6787C102.941 71.8316 103.223 71.908 103.523 71.908C103.87 71.908 104.161 71.8257 104.396 71.6611C104.631 71.4964 104.822 71.2907 104.969 71.0437L105.534 71.3436C105.44 71.5552 105.296 71.7522 105.102 71.9345C104.908 72.1109 104.675 72.2549 104.405 72.3666C104.14 72.4725 103.846 72.5254 103.523 72.5254ZM108.958 72.5254C108.493 72.5254 108.085 72.4166 107.732 72.1991C107.379 71.9815 107.103 71.6875 106.903 71.3171C106.703 70.9408 106.603 70.5175 106.603 70.0471C106.603 69.5767 106.703 69.1563 106.903 68.7859C107.103 68.4155 107.379 68.1245 107.732 67.9128C108.085 67.6952 108.493 67.5865 108.958 67.5865C109.252 67.5865 109.528 67.6394 109.787 67.7452C110.046 67.851 110.275 67.9951 110.475 68.1774C110.675 68.3538 110.825 68.5595 110.925 68.7947L110.325 69.1034C110.207 68.8506 110.028 68.6448 109.787 68.4861C109.546 68.3273 109.27 68.2479 108.958 68.2479C108.646 68.2479 108.364 68.3273 108.111 68.4861C107.864 68.6389 107.667 68.8535 107.52 69.1299C107.379 69.4003 107.309 69.709 107.309 70.0559C107.309 70.3969 107.379 70.7056 107.52 70.982C107.667 71.2524 107.864 71.467 108.111 71.6258C108.364 71.7846 108.646 71.8639 108.958 71.8639C109.27 71.8639 109.543 71.7846 109.778 71.6258C110.019 71.467 110.201 71.2554 110.325 70.9908L110.925 71.3171C110.825 71.5464 110.675 71.7522 110.475 71.9345C110.275 72.1168 110.046 72.2608 109.787 72.3666C109.528 72.4725 109.252 72.5254 108.958 72.5254ZM112.085 72.4196V67.6923H112.747V72.4196H112.085ZM112.085 66.8192V65.849H112.747V66.8192H112.085ZM116.235 72.5254C115.794 72.5254 115.397 72.4196 115.044 72.2079C114.692 71.9903 114.412 71.6964 114.207 71.3259C114.007 70.9496 113.907 70.5263 113.907 70.0559C113.907 69.5797 114.007 69.1563 114.207 68.7859C114.412 68.4155 114.689 68.1245 115.036 67.9128C115.388 67.6952 115.788 67.5865 116.235 67.5865C116.641 67.5865 117.002 67.6747 117.32 67.851C117.637 68.0274 117.887 68.2656 118.07 68.5654L117.964 68.7506V65.7432H118.625V72.4196H117.964V71.3612L118.07 71.4582C117.905 71.7992 117.658 72.0638 117.329 72.252C117.005 72.4343 116.641 72.5254 116.235 72.5254ZM116.27 71.8639C116.588 71.8639 116.873 71.7846 117.126 71.6258C117.385 71.467 117.587 71.2524 117.734 70.982C117.887 70.7056 117.964 70.3969 117.964 70.0559C117.964 69.7149 117.887 69.4092 117.734 69.1387C117.587 68.8624 117.385 68.6448 117.126 68.4861C116.873 68.3273 116.588 68.2479 116.27 68.2479C115.959 68.2479 115.677 68.3273 115.424 68.4861C115.171 68.6448 114.971 68.8594 114.824 69.1299C114.683 69.4003 114.612 69.709 114.612 70.0559C114.612 70.3969 114.683 70.7056 114.824 70.982C114.971 71.2524 115.168 71.467 115.415 71.6258C115.668 71.7846 115.953 71.8639 116.27 71.8639ZM122.135 72.5254C121.694 72.5254 121.295 72.4196 120.936 72.2079C120.583 71.9903 120.304 71.6934 120.098 71.3171C119.892 70.9408 119.789 70.5145 119.789 70.0383C119.789 69.562 119.889 69.1416 120.089 68.7771C120.289 68.4067 120.56 68.1156 120.901 67.904C121.247 67.6923 121.636 67.5865 122.065 67.5865C122.406 67.5865 122.709 67.6511 122.973 67.7805C123.244 67.904 123.473 68.0745 123.661 68.292C123.849 68.5037 123.993 68.7448 124.093 69.0152C124.193 69.2798 124.243 69.5532 124.243 69.8354C124.243 69.8942 124.24 69.9619 124.234 70.0383C124.228 70.1088 124.22 70.1823 124.208 70.2588H120.213V69.6414H123.829L123.511 69.906C123.564 69.5826 123.526 69.2945 123.396 69.0417C123.273 68.783 123.094 68.5801 122.859 68.4331C122.623 68.2803 122.359 68.2038 122.065 68.2038C121.771 68.2038 121.497 68.2803 121.245 68.4331C120.998 68.586 120.804 68.8006 120.662 69.077C120.521 69.3474 120.465 69.6708 120.495 70.0471C120.465 70.4234 120.524 70.7527 120.671 71.0349C120.824 71.3112 121.03 71.5258 121.289 71.6787C121.553 71.8316 121.835 71.908 122.135 71.908C122.482 71.908 122.773 71.8257 123.008 71.6611C123.244 71.4964 123.435 71.2907 123.582 71.0437L124.146 71.3436C124.052 71.5552 123.908 71.7522 123.714 71.9345C123.52 72.1109 123.288 72.2549 123.017 72.3666C122.753 72.4725 122.459 72.5254 122.135 72.5254ZM127.949 72.4196L126.326 67.6923H127.076L128.416 71.8286H128.152L129.413 67.6923H130.074L131.335 71.8286H131.071L132.42 67.6923H133.161L131.538 72.4196H130.877L129.651 68.3714H129.836L128.61 72.4196H127.949ZM133.936 72.4196V65.7432H134.598V68.6095L134.448 68.5742C134.565 68.2685 134.756 68.0274 135.021 67.851C135.291 67.6747 135.603 67.5865 135.956 67.5865C136.291 67.5865 136.591 67.6629 136.855 67.8158C137.126 67.9686 137.337 68.1803 137.49 68.4508C137.649 68.7154 137.728 69.0152 137.728 69.3504V72.4196H137.067V69.6061C137.067 69.318 137.014 69.074 136.908 68.8741C136.802 68.6742 136.655 68.5213 136.467 68.4155C136.285 68.3038 136.076 68.2479 135.841 68.2479C135.606 68.2479 135.394 68.3038 135.206 68.4155C135.018 68.5213 134.868 68.6771 134.756 68.8829C134.65 69.0828 134.598 69.3239 134.598 69.6061V72.4196H133.936ZM141.206 72.5254C140.759 72.5254 140.353 72.4196 139.988 72.2079C139.624 71.9903 139.333 71.6964 139.115 71.3259C138.904 70.9496 138.798 70.5234 138.798 70.0471C138.798 69.5767 138.904 69.1563 139.115 68.7859C139.327 68.4155 139.612 68.1245 139.971 67.9128C140.335 67.6952 140.747 67.5865 141.206 67.5865C141.664 67.5865 142.073 67.6923 142.431 67.904C142.796 68.1156 143.081 68.4067 143.287 68.7771C143.499 69.1475 143.604 69.5709 143.604 70.0471C143.604 70.5292 143.496 70.9585 143.278 71.3348C143.061 71.7052 142.769 71.9962 142.405 72.2079C142.046 72.4196 141.646 72.5254 141.206 72.5254ZM141.206 71.8639C141.523 71.8639 141.808 71.7846 142.061 71.6258C142.32 71.467 142.523 71.2495 142.67 70.9732C142.822 70.6968 142.899 70.3881 142.899 70.0471C142.899 69.7061 142.822 69.4003 142.67 69.1299C142.523 68.8594 142.32 68.6448 142.061 68.4861C141.808 68.3273 141.523 68.2479 141.206 68.2479C140.888 68.2479 140.6 68.3273 140.341 68.4861C140.088 68.6448 139.886 68.8594 139.733 69.1299C139.58 69.4003 139.503 69.7061 139.503 70.0471C139.503 70.3881 139.58 70.6968 139.733 70.9732C139.886 71.2495 140.088 71.467 140.341 71.6258C140.6 71.7846 140.888 71.8639 141.206 71.8639ZM147.531 72.4196L145.688 67.6923H146.428L147.981 71.8375H147.742L149.304 67.6923H150.053L148.192 72.4196H147.531ZM150.826 72.4196V67.6923H151.487V72.4196H150.826ZM150.826 66.8192V65.849H151.487V66.8192H150.826ZM154.482 72.5254C154.029 72.5254 153.632 72.4107 153.291 72.1814C152.95 71.9521 152.703 71.6405 152.55 71.2466L153.106 70.982C153.241 71.2701 153.429 71.4994 153.67 71.6699C153.917 71.8404 154.188 71.9257 154.482 71.9257C154.764 71.9257 155.002 71.858 155.196 71.7228C155.39 71.5817 155.487 71.3994 155.487 71.176C155.487 71.0114 155.44 70.882 155.346 70.7879C155.252 70.688 155.143 70.6116 155.02 70.5586C154.896 70.5057 154.787 70.4675 154.693 70.444L154.014 70.25C153.579 70.1265 153.265 69.953 153.071 69.7296C152.876 69.5062 152.779 69.2475 152.779 68.9535C152.779 68.6771 152.85 68.4361 152.991 68.2303C153.132 68.0245 153.323 67.8657 153.564 67.754C153.805 67.6423 154.073 67.5865 154.367 67.5865C154.767 67.5865 155.128 67.6923 155.452 67.904C155.781 68.1098 156.013 68.3979 156.149 68.7683L155.584 69.0329C155.466 68.7683 155.296 68.5625 155.073 68.4155C154.855 68.2626 154.611 68.1862 154.341 68.1862C154.076 68.1862 153.864 68.2538 153.706 68.389C153.547 68.5243 153.467 68.6948 153.467 68.9006C153.467 69.0593 153.509 69.1857 153.591 69.2798C153.673 69.3739 153.767 69.4444 153.873 69.4915C153.985 69.5385 154.082 69.5738 154.164 69.5973L154.949 69.8266C155.331 69.9383 155.628 70.1118 155.84 70.347C156.057 70.5822 156.166 70.8585 156.166 71.176C156.166 71.4347 156.093 71.667 155.946 71.8727C155.805 72.0785 155.608 72.2402 155.355 72.3578C155.102 72.4695 154.811 72.5254 154.482 72.5254ZM157.328 72.4196V67.6923H157.99V72.4196H157.328ZM157.328 66.8192V65.849H157.99V66.8192H157.328ZM161.152 72.4725C160.729 72.4725 160.402 72.349 160.173 72.1021C159.944 71.8551 159.829 71.5023 159.829 71.0437V68.3538H158.956V67.6923H159.176C159.376 67.6923 159.535 67.6276 159.653 67.4983C159.77 67.363 159.829 67.1955 159.829 66.9956V66.5987H160.49V67.6923H161.531V68.3538H160.49V71.0437C160.49 71.2025 160.514 71.3436 160.561 71.467C160.608 71.5846 160.687 71.6787 160.799 71.7493C160.917 71.8198 161.072 71.8551 161.267 71.8551C161.314 71.8551 161.369 71.8522 161.434 71.8463C161.499 71.8404 161.555 71.8345 161.602 71.8286V72.4196C161.531 72.4372 161.452 72.449 161.364 72.4548C161.275 72.4666 161.205 72.4725 161.152 72.4725ZM164.404 72.5254C163.951 72.5254 163.554 72.4107 163.213 72.1814C162.872 71.9521 162.625 71.6405 162.472 71.2466L163.028 70.982C163.163 71.2701 163.351 71.4994 163.592 71.6699C163.839 71.8404 164.11 71.9257 164.404 71.9257C164.686 71.9257 164.924 71.858 165.118 71.7228C165.312 71.5817 165.409 71.3994 165.409 71.176C165.409 71.0114 165.362 70.882 165.268 70.7879C165.174 70.688 165.065 70.6116 164.942 70.5586C164.818 70.5057 164.709 70.4675 164.615 70.444L163.936 70.25C163.501 70.1265 163.186 69.953 162.992 69.7296C162.798 69.5062 162.701 69.2475 162.701 68.9535C162.701 68.6771 162.772 68.4361 162.913 68.2303C163.054 68.0245 163.245 67.8657 163.486 67.754C163.727 67.6423 163.995 67.5865 164.289 67.5865C164.689 67.5865 165.05 67.6923 165.374 67.904C165.703 68.1098 165.935 68.3979 166.07 68.7683L165.506 69.0329C165.388 68.7683 165.218 68.5625 164.994 68.4155C164.777 68.2626 164.533 68.1862 164.262 68.1862C163.998 68.1862 163.786 68.2538 163.627 68.389C163.469 68.5243 163.389 68.6948 163.389 68.9006C163.389 69.0593 163.43 69.1857 163.513 69.2798C163.595 69.3739 163.689 69.4444 163.795 69.4915C163.907 69.5385 164.004 69.5738 164.086 69.5973L164.871 69.8266C165.253 69.9383 165.55 70.1118 165.762 70.347C165.979 70.5822 166.088 70.8585 166.088 71.176C166.088 71.4347 166.015 71.667 165.868 71.8727C165.727 72.0785 165.53 72.2402 165.277 72.3578C165.024 72.4695 164.733 72.5254 164.404 72.5254ZM168.846 74.3598C168.752 74.3598 168.655 74.351 168.555 74.3334C168.461 74.3216 168.367 74.2981 168.273 74.2628V73.6455C168.332 73.6513 168.405 73.6602 168.493 73.6719C168.587 73.6896 168.681 73.6984 168.776 73.6984C169.064 73.6984 169.284 73.6366 169.437 73.5132C169.59 73.3956 169.74 73.1663 169.887 72.8253L170.187 72.1197L170.169 72.7018L168.167 67.6923H168.881L170.522 71.8286H170.337L171.968 67.6923H172.7L170.539 73.0193C170.445 73.2486 170.325 73.4661 170.178 73.6719C170.037 73.8777 169.857 74.0423 169.64 74.1658C169.422 74.2952 169.158 74.3598 168.846 74.3598ZM175.605 72.5254C175.158 72.5254 174.752 72.4196 174.388 72.2079C174.023 71.9903 173.732 71.6964 173.515 71.3259C173.303 70.9496 173.197 70.5234 173.197 70.0471C173.197 69.5767 173.303 69.1563 173.515 68.7859C173.726 68.4155 174.012 68.1245 174.37 67.9128C174.735 67.6952 175.146 67.5865 175.605 67.5865C176.064 67.5865 176.472 67.6923 176.831 67.904C177.196 68.1156 177.481 68.4067 177.686 68.7771C177.898 69.1475 178.004 69.5709 178.004 70.0471C178.004 70.5292 177.895 70.9585 177.678 71.3348C177.46 71.7052 177.169 71.9962 176.805 72.2079C176.446 72.4196 176.046 72.5254 175.605 72.5254ZM175.605 71.8639C175.923 71.8639 176.208 71.7846 176.461 71.6258C176.719 71.467 176.922 71.2495 177.069 70.9732C177.222 70.6968 177.298 70.3881 177.298 70.0471C177.298 69.7061 177.222 69.4003 177.069 69.1299C176.922 68.8594 176.719 68.6448 176.461 68.4861C176.208 68.3273 175.923 68.2479 175.605 68.2479C175.288 68.2479 174.999 68.3273 174.741 68.4861C174.488 68.6448 174.285 68.8594 174.132 69.1299C173.979 69.4003 173.903 69.7061 173.903 70.0471C173.903 70.3881 173.979 70.6968 174.132 70.9732C174.285 71.2495 174.488 71.467 174.741 71.6258C174.999 71.7846 175.288 71.8639 175.605 71.8639ZM180.846 72.5254C180.517 72.5254 180.217 72.449 179.947 72.2961C179.676 72.1373 179.462 71.9198 179.303 71.6434C179.15 71.3612 179.074 71.0378 179.074 70.6733V67.6923H179.735V70.5939C179.735 70.8467 179.785 71.0702 179.885 71.2642C179.991 71.4523 180.135 71.5993 180.317 71.7052C180.505 71.811 180.72 71.8639 180.961 71.8639C181.202 71.8639 181.417 71.811 181.605 71.7052C181.793 71.5935 181.94 71.4376 182.046 71.2377C182.152 71.032 182.204 70.7879 182.204 70.5057V67.6923H182.866V72.4196H182.204V71.5023L182.354 71.5376C182.243 71.8433 182.052 72.0844 181.781 72.2608C181.511 72.4372 181.199 72.5254 180.846 72.5254ZM187.092 72.5254C186.792 72.5254 186.525 72.4695 186.289 72.3578C186.054 72.2402 185.869 72.0815 185.734 71.8816C185.598 71.6817 185.531 71.4523 185.531 71.1936C185.531 70.9467 185.584 70.7233 185.69 70.5234C185.795 70.3176 185.96 70.1441 186.184 70.003C186.407 69.8619 186.692 69.7619 187.039 69.7031L188.891 69.3945V69.9942L187.198 70.2764C186.857 70.3352 186.61 70.444 186.457 70.6027C186.31 70.7615 186.236 70.9496 186.236 71.1672C186.236 71.3789 186.319 71.5582 186.483 71.7052C186.654 71.8522 186.871 71.9257 187.136 71.9257C187.459 71.9257 187.742 71.858 187.983 71.7228C188.224 71.5817 188.412 71.3936 188.547 71.1584C188.682 70.9232 188.75 70.6615 188.75 70.3734V69.174C188.75 68.8918 188.647 68.6624 188.441 68.4861C188.236 68.3097 187.968 68.2215 187.639 68.2215C187.351 68.2215 187.098 68.295 186.88 68.442C186.663 68.5831 186.501 68.7683 186.395 68.9976L185.795 68.6713C185.884 68.4714 186.022 68.2891 186.21 68.1245C186.404 67.9598 186.624 67.8305 186.871 67.7364C187.118 67.6364 187.374 67.5865 187.639 67.5865C187.986 67.5865 188.291 67.6541 188.556 67.7893C188.826 67.9245 189.035 68.1127 189.182 68.3538C189.335 68.5889 189.411 68.8624 189.411 69.174V72.4196H188.75V71.4759L188.847 71.5729C188.765 71.7493 188.635 71.911 188.459 72.058C188.288 72.1991 188.086 72.3137 187.85 72.4019C187.621 72.4842 187.368 72.5254 187.092 72.5254ZM190.772 72.4196V67.6923H191.433V68.6095L191.284 68.5742C191.401 68.2685 191.592 68.0274 191.857 67.851C192.127 67.6747 192.439 67.5865 192.792 67.5865C193.127 67.5865 193.427 67.6629 193.691 67.8158C193.962 67.9686 194.173 68.1803 194.326 68.4508C194.485 68.7154 194.564 69.0152 194.564 69.3504V72.4196H193.903V69.6061C193.903 69.318 193.85 69.074 193.744 68.8741C193.644 68.6742 193.5 68.5213 193.312 68.4155C193.13 68.3038 192.918 68.2479 192.677 68.2479C192.436 68.2479 192.221 68.3038 192.033 68.4155C191.845 68.5213 191.698 68.6771 191.592 68.8829C191.486 69.0828 191.433 69.3239 191.433 69.6061V72.4196H190.772ZM197.962 72.5254C197.521 72.5254 197.124 72.4196 196.771 72.2079C196.419 71.9903 196.139 71.6964 195.934 71.3259C195.734 70.9496 195.634 70.5263 195.634 70.0559C195.634 69.5797 195.734 69.1563 195.934 68.7859C196.139 68.4155 196.416 68.1245 196.763 67.9128C197.115 67.6952 197.515 67.5865 197.962 67.5865C198.368 67.5865 198.729 67.6747 199.047 67.851C199.364 68.0274 199.614 68.2656 199.796 68.5654L199.691 68.7506V65.7432H200.352V72.4196H199.691V71.3612L199.796 71.4582C199.632 71.7992 199.385 72.0638 199.056 72.252C198.732 72.4343 198.368 72.5254 197.962 72.5254ZM197.997 71.8639C198.315 71.8639 198.6 71.7846 198.853 71.6258C199.112 71.467 199.314 71.2524 199.461 70.982C199.614 70.7056 199.691 70.3969 199.691 70.0559C199.691 69.7149 199.614 69.4092 199.461 69.1387C199.314 68.8624 199.112 68.6448 198.853 68.4861C198.6 68.3273 198.315 68.2479 197.997 68.2479C197.686 68.2479 197.403 68.3273 197.151 68.4861C196.898 68.6448 196.698 68.8594 196.551 69.1299C196.41 69.4003 196.339 69.709 196.339 70.0559C196.339 70.3969 196.41 70.7056 196.551 70.982C196.698 71.2524 196.895 71.467 197.142 71.6258C197.395 71.7846 197.68 71.8639 197.997 71.8639ZM204.25 72.4196L202.627 67.6923H203.376L204.717 71.8286H204.452L205.714 67.6923H206.375L207.636 71.8286H207.372L208.721 67.6923H209.462L207.839 72.4196H207.178L205.952 68.3714H206.137L204.911 72.4196H204.25ZM210.237 72.4196V65.7432H210.898V68.6095L210.748 68.5742C210.866 68.2685 211.057 68.0274 211.322 67.851C211.592 67.6747 211.904 67.5865 212.257 67.5865C212.592 67.5865 212.892 67.6629 213.156 67.8158C213.427 67.9686 213.638 68.1803 213.791 68.4508C213.95 68.7154 214.029 69.0152 214.029 69.3504V72.4196H213.368V69.6061C213.368 69.318 213.315 69.074 213.209 68.8741C213.103 68.6742 212.956 68.5213 212.768 68.4155C212.586 68.3038 212.377 68.2479 212.142 68.2479C211.907 68.2479 211.695 68.3038 211.507 68.4155C211.319 68.5213 211.169 68.6771 211.057 68.8829C210.951 69.0828 210.898 69.3239 210.898 69.6061V72.4196H210.237ZM217.506 72.5254C217.059 72.5254 216.654 72.4196 216.289 72.2079C215.925 71.9903 215.634 71.6964 215.416 71.3259C215.204 70.9496 215.099 70.5234 215.099 70.0471C215.099 69.5767 215.204 69.1563 215.416 68.7859C215.628 68.4155 215.913 68.1245 216.272 67.9128C216.636 67.6952 217.048 67.5865 217.506 67.5865C217.965 67.5865 218.374 67.6923 218.732 67.904C219.097 68.1156 219.382 68.4067 219.588 68.7771C219.799 69.1475 219.905 69.5709 219.905 70.0471C219.905 70.5292 219.796 70.9585 219.579 71.3348C219.361 71.7052 219.07 71.9962 218.706 72.2079C218.347 72.4196 217.947 72.5254 217.506 72.5254ZM217.506 71.8639C217.824 71.8639 218.109 71.7846 218.362 71.6258C218.621 71.467 218.823 71.2495 218.97 70.9732C219.123 70.6968 219.2 70.3881 219.2 70.0471C219.2 69.7061 219.123 69.4003 218.97 69.1299C218.823 68.8594 218.621 68.6448 218.362 68.4861C218.109 68.3273 217.824 68.2479 217.506 68.2479C217.189 68.2479 216.901 68.3273 216.642 68.4861C216.389 68.6448 216.186 68.8594 216.033 69.1299C215.881 69.4003 215.804 69.7061 215.804 70.0471C215.804 70.3881 215.881 70.6968 216.033 70.9732C216.186 71.2495 216.389 71.467 216.642 71.6258C216.901 71.7846 217.189 71.8639 217.506 71.8639ZM221.301 72.4196V71.4494H222.007V72.4196H221.301ZM223.825 72.4196V71.4494H224.53V72.4196H223.825ZM226.348 72.4196V71.4494H227.054V72.4196H226.348Z" fill="#4D5461"/>
<defs>
<filter id="filter0_d_354_4821" x="0.439024" y="0.439024" width="281.122" height="116.859" filterUnits="userSpaceOnUse" color-interpolation-filters="sRGB">
<feFlood flood-opacity="0" result="BackgroundImageFix"/>
<feColorMatrix in="SourceAlpha" type="matrix" values="0 0 0 0 0 0 0 0 0 0 0 0 0 0 0 0 0 0 127 0" result="hardAlpha"/>
<feOffset/>
<feGaussianBlur stdDeviation="13.7805"/>
<feComposite in2="hardAlpha" operator="out"/>
<feColorMatrix type="matrix" values="0 0 0 0 0.439216 0 0 0 0 0.396078 0 0 0 0 0.941176 0 0 0 0.2 0"/>
<feBlend mode="normal" in2="BackgroundImageFix" result="effect1_dropShadow_354_4821"/>
<feBlend mode="normal" in="SourceGraphic" in2="effect1_dropShadow_354_4821" result="shape"/>
</filter>
</defs>
</svg>
