<svg width="392" height="163" viewBox="0 0 392 163" fill="none" xmlns="http://www.w3.org/2000/svg">
<g filter="url(#filter0_d_354_4804)">
<rect x="39" y="38.5226" width="313.958" height="85.5556" rx="6.11111" fill="white"/>
<rect x="39.5729" y="39.0955" width="312.812" height="84.4097" rx="5.53819" stroke="#E0DEF7" stroke-width="1.14583"/>
</g>
<path d="M67.4474 75.0088V69.9671L63.6126 63.6268H65.9807L68.914 68.5768H68.0737L70.9918 63.6268H73.3599L69.5404 69.9518V75.0088H67.4474ZM77.0473 75.1921C76.2325 75.1921 75.489 75.0037 74.8167 74.6268C74.1547 74.25 73.6251 73.7356 73.2278 73.0838C72.8408 72.4319 72.6473 71.6884 72.6473 70.8532C72.6473 70.018 72.8408 69.2745 73.2278 68.6227C73.6251 67.9708 74.1547 67.4565 74.8167 67.0796C75.4788 66.7028 76.2223 66.5143 77.0473 66.5143C77.8621 66.5143 78.6005 66.7028 79.2626 67.0796C79.9246 67.4565 80.4491 67.9708 80.8362 68.6227C81.2334 69.2643 81.432 70.0079 81.432 70.8532C81.432 71.6884 81.2334 72.4319 80.8362 73.0838C80.439 73.7356 79.9093 74.25 79.2473 74.6268C78.5853 75.0037 77.8519 75.1921 77.0473 75.1921ZM77.0473 73.3588C77.4954 73.3588 77.8876 73.2518 78.2237 73.038C78.57 72.8241 78.8399 72.5287 79.0334 72.1518C79.2371 71.7648 79.339 71.3319 79.339 70.8532C79.339 70.3643 79.2371 69.9366 79.0334 69.5699C78.8399 69.193 78.57 68.8977 78.2237 68.6838C77.8876 68.4597 77.4954 68.3477 77.0473 68.3477C76.589 68.3477 76.1866 68.4597 75.8403 68.6838C75.4941 68.8977 75.2191 69.193 75.0153 69.5699C74.8218 69.9366 74.7251 70.3643 74.7251 70.8532C74.7251 71.3319 74.8218 71.7648 75.0153 72.1518C75.2191 72.5287 75.4941 72.8241 75.8403 73.038C76.1866 73.2518 76.589 73.3588 77.0473 73.3588ZM85.8373 75.1921C85.1956 75.1921 84.6354 75.0495 84.1567 74.7643C83.6882 74.4792 83.3266 74.0819 83.072 73.5727C82.8275 73.0634 82.7053 72.4676 82.7053 71.7852V66.6977H84.7067V71.6171C84.7067 71.9634 84.7729 72.269 84.9053 72.5338C85.0479 72.7884 85.2465 72.9921 85.5012 73.1449C85.766 73.2875 86.0613 73.3588 86.3873 73.3588C86.7132 73.3588 87.0035 73.2875 87.2581 73.1449C87.5127 72.9921 87.7113 72.7833 87.8539 72.5185C87.9965 72.2537 88.0678 71.938 88.0678 71.5713V66.6977H90.0692V75.0088H88.1748V73.3741L88.3428 73.6643C88.1493 74.1736 87.8285 74.5555 87.3803 74.8102C86.9424 75.0648 86.428 75.1921 85.8373 75.1921ZM91.8533 75.0088V66.6977H93.7324V68.5463L93.5796 68.2713C93.7732 67.65 94.0736 67.2171 94.481 66.9727C94.8986 66.7282 95.3977 66.606 95.9783 66.606H96.4671V68.3782H95.7491C95.1787 68.3782 94.7204 68.5565 94.3741 68.913C94.0278 69.2593 93.8546 69.7481 93.8546 70.3796V75.0088H91.8533ZM104.072 75.1921C103.216 75.1921 102.468 74.9986 101.826 74.6116C101.184 74.2245 100.685 73.7 100.329 73.038C99.9722 72.3759 99.794 71.6426 99.794 70.838C99.794 70.0028 99.9722 69.2643 100.329 68.6227C100.695 67.9708 101.189 67.4565 101.811 67.0796C102.442 66.7028 103.145 66.5143 103.919 66.5143C104.571 66.5143 105.141 66.6213 105.63 66.8352C106.129 67.0491 106.552 67.3444 106.898 67.7213C107.244 68.0981 107.509 68.531 107.693 69.0199C107.876 69.4986 107.968 70.018 107.968 70.5782C107.968 70.7208 107.957 70.8685 107.937 71.0213C107.927 71.1741 107.901 71.3065 107.861 71.4185H101.444V69.8907H106.73L105.783 70.6088C105.875 70.1403 105.849 69.7227 105.706 69.356C105.574 68.9893 105.35 68.6991 105.034 68.4852C104.729 68.2713 104.357 68.1643 103.919 68.1643C103.501 68.1643 103.13 68.2713 102.804 68.4852C102.478 68.6889 102.228 68.9944 102.055 69.4018C101.892 69.7991 101.831 70.2829 101.872 70.8532C101.831 71.3625 101.897 71.8157 102.07 72.213C102.254 72.6 102.519 72.9005 102.865 73.1143C103.221 73.3282 103.629 73.4352 104.087 73.4352C104.545 73.4352 104.932 73.3384 105.248 73.1449C105.574 72.9514 105.829 72.6917 106.012 72.3657L107.631 73.1602C107.469 73.5574 107.214 73.9088 106.868 74.2143C106.521 74.5199 106.109 74.7593 105.63 74.9324C105.162 75.1055 104.642 75.1921 104.072 75.1921ZM112.571 75.1921C111.685 75.1921 110.911 74.9833 110.249 74.5657C109.597 74.138 109.149 73.5625 108.904 72.8393L110.401 72.1213C110.615 72.5898 110.911 72.9565 111.288 73.2213C111.675 73.4861 112.102 73.6185 112.571 73.6185C112.938 73.6185 113.228 73.537 113.442 73.3741C113.656 73.2111 113.763 72.9972 113.763 72.7324C113.763 72.5694 113.717 72.437 113.625 72.3352C113.544 72.2231 113.426 72.1315 113.274 72.0602C113.131 71.9787 112.973 71.9125 112.8 71.8616L111.44 71.4796C110.738 71.2759 110.203 70.9653 109.836 70.5477C109.48 70.1301 109.301 69.6361 109.301 69.0657C109.301 68.5565 109.429 68.1134 109.683 67.7366C109.948 67.3495 110.31 67.0491 110.768 66.8352C111.237 66.6213 111.771 66.5143 112.372 66.5143C113.157 66.5143 113.849 66.7028 114.45 67.0796C115.051 67.4565 115.479 67.9861 115.733 68.6685L114.206 69.3866C114.063 69.0097 113.824 68.7093 113.488 68.4852C113.151 68.2611 112.775 68.1491 112.357 68.1491C112.021 68.1491 111.756 68.2255 111.563 68.3782C111.369 68.531 111.272 68.7296 111.272 68.9741C111.272 69.1268 111.313 69.2593 111.394 69.3713C111.476 69.4833 111.588 69.575 111.731 69.6463C111.883 69.7176 112.057 69.7838 112.25 69.8449L113.579 70.2421C114.262 70.4458 114.786 70.7514 115.153 71.1588C115.53 71.5662 115.718 72.0653 115.718 72.656C115.718 73.1551 115.586 73.5981 115.321 73.9852C115.056 74.362 114.689 74.6574 114.221 74.8713C113.752 75.0852 113.202 75.1921 112.571 75.1921ZM120.969 75.1005C120.032 75.1005 119.303 74.8458 118.784 74.3366C118.275 73.8171 118.02 73.0889 118.02 72.1518V68.4852H116.584V66.6977H116.737C117.144 66.6977 117.46 66.5907 117.684 66.3768C117.908 66.163 118.02 65.8523 118.02 65.4449V64.8032H120.021V66.6977H121.931V68.4852H120.021V72.0449C120.021 72.3199 120.067 72.5542 120.159 72.7477C120.261 72.9412 120.414 73.0889 120.617 73.1907C120.831 73.2926 121.101 73.3435 121.427 73.3435C121.498 73.3435 121.58 73.3384 121.671 73.3282C121.773 73.318 121.87 73.3079 121.962 73.2977V75.0088C121.819 75.0292 121.656 75.0495 121.473 75.0699C121.289 75.0903 121.121 75.1005 120.969 75.1005ZM125.905 75.1921C125.325 75.1921 124.821 75.0954 124.393 74.9018C123.965 74.7083 123.634 74.4333 123.4 74.0768C123.166 73.7102 123.048 73.2875 123.048 72.8088C123.048 72.3505 123.15 71.943 123.354 71.5866C123.558 71.2199 123.873 70.9143 124.301 70.6699C124.729 70.4255 125.269 70.2523 125.921 70.1505L128.64 69.7074V71.2352L126.303 71.6324C125.905 71.7037 125.61 71.831 125.416 72.0143C125.223 72.1977 125.126 72.437 125.126 72.7324C125.126 73.0176 125.233 73.2468 125.447 73.4199C125.671 73.5829 125.946 73.6643 126.272 73.6643C126.69 73.6643 127.056 73.5778 127.372 73.4046C127.698 73.2213 127.948 72.9718 128.121 72.656C128.304 72.3403 128.396 71.994 128.396 71.6171V69.4782C128.396 69.1218 128.253 68.8264 127.968 68.5921C127.693 68.3477 127.326 68.2255 126.868 68.2255C126.44 68.2255 126.058 68.3426 125.722 68.5768C125.396 68.8009 125.157 69.1014 125.004 69.4782L123.369 68.6838C123.532 68.2458 123.787 67.869 124.133 67.5532C124.49 67.2273 124.907 66.9727 125.386 66.7893C125.865 66.606 126.384 66.5143 126.944 66.5143C127.627 66.5143 128.228 66.6417 128.747 66.8963C129.266 67.1407 129.669 67.487 129.954 67.9352C130.249 68.3731 130.397 68.8875 130.397 69.4782V75.0088H128.503V73.588L128.93 73.5574C128.716 73.9139 128.462 74.2143 128.166 74.4588C127.871 74.693 127.535 74.8764 127.158 75.0088C126.781 75.131 126.364 75.1921 125.905 75.1921ZM135.81 75.1005C134.873 75.1005 134.145 74.8458 133.625 74.3366C133.116 73.8171 132.862 73.0889 132.862 72.1518V68.4852H131.425V66.6977H131.578C131.986 66.6977 132.301 66.5907 132.525 66.3768C132.75 66.163 132.862 65.8523 132.862 65.4449V64.8032H134.863V66.6977H136.773V68.4852H134.863V72.0449C134.863 72.3199 134.909 72.5542 135 72.7477C135.102 72.9412 135.255 73.0889 135.459 73.1907C135.673 73.2926 135.943 73.3435 136.268 73.3435C136.34 73.3435 136.421 73.3384 136.513 73.3282C136.615 73.318 136.712 73.3079 136.803 73.2977V75.0088C136.661 75.0292 136.498 75.0495 136.314 75.0699C136.131 75.0903 135.963 75.1005 135.81 75.1005ZM142.123 75.1921C141.267 75.1921 140.519 74.9986 139.877 74.6116C139.235 74.2245 138.736 73.7 138.38 73.038C138.023 72.3759 137.845 71.6426 137.845 70.838C137.845 70.0028 138.023 69.2643 138.38 68.6227C138.747 67.9708 139.241 67.4565 139.862 67.0796C140.493 66.7028 141.196 66.5143 141.97 66.5143C142.622 66.5143 143.192 66.6213 143.681 66.8352C144.18 67.0491 144.603 67.3444 144.949 67.7213C145.296 68.0981 145.56 68.531 145.744 69.0199C145.927 69.4986 146.019 70.018 146.019 70.5782C146.019 70.7208 146.009 70.8685 145.988 71.0213C145.978 71.1741 145.953 71.3065 145.912 71.4185H139.495V69.8907H144.781L143.834 70.6088C143.926 70.1403 143.9 69.7227 143.758 69.356C143.625 68.9893 143.401 68.6991 143.085 68.4852C142.78 68.2713 142.408 68.1643 141.97 68.1643C141.553 68.1643 141.181 68.2713 140.855 68.4852C140.529 68.6889 140.279 68.9944 140.106 69.4018C139.943 69.7991 139.882 70.2829 139.923 70.8532C139.882 71.3625 139.948 71.8157 140.122 72.213C140.305 72.6 140.57 72.9005 140.916 73.1143C141.273 73.3282 141.68 73.4352 142.138 73.4352C142.597 73.4352 142.984 73.3384 143.299 73.1449C143.625 72.9514 143.88 72.6917 144.063 72.3657L145.683 73.1602C145.52 73.5574 145.265 73.9088 144.919 74.2143C144.573 74.5199 144.16 74.7593 143.681 74.9324C143.213 75.1055 142.693 75.1921 142.123 75.1921ZM148.101 77.3921V76.3991C148.437 76.3176 148.707 76.1597 148.911 75.9255C149.125 75.7014 149.257 75.3958 149.308 75.0088H148.407V72.8699H150.423V74.1838C150.423 75.0801 150.225 75.7981 149.828 76.338C149.441 76.8778 148.865 77.2292 148.101 77.3921ZM158.554 75.0088V69.9671L154.719 63.6268H157.087L160.02 68.5768H159.18L162.098 63.6268H164.466L160.647 69.9518V75.0088H158.554ZM168.154 75.1921C167.339 75.1921 166.595 75.0037 165.923 74.6268C165.261 74.25 164.731 73.7356 164.334 73.0838C163.947 72.4319 163.754 71.6884 163.754 70.8532C163.754 70.018 163.947 69.2745 164.334 68.6227C164.731 67.9708 165.261 67.4565 165.923 67.0796C166.585 66.7028 167.329 66.5143 168.154 66.5143C168.968 66.5143 169.707 66.7028 170.369 67.0796C171.031 67.4565 171.555 67.9708 171.942 68.6227C172.34 69.2643 172.538 70.0079 172.538 70.8532C172.538 71.6884 172.34 72.4319 171.942 73.0838C171.545 73.7356 171.016 74.25 170.354 74.6268C169.692 75.0037 168.958 75.1921 168.154 75.1921ZM168.154 73.3588C168.602 73.3588 168.994 73.2518 169.33 73.038C169.676 72.8241 169.946 72.5287 170.14 72.1518C170.343 71.7648 170.445 71.3319 170.445 70.8532C170.445 70.3643 170.343 69.9366 170.14 69.5699C169.946 69.193 169.676 68.8977 169.33 68.6838C168.994 68.4597 168.602 68.3477 168.154 68.3477C167.695 68.3477 167.293 68.4597 166.947 68.6838C166.6 68.8977 166.325 69.193 166.122 69.5699C165.928 69.9366 165.831 70.3643 165.831 70.8532C165.831 71.3319 165.928 71.7648 166.122 72.1518C166.325 72.5287 166.6 72.8241 166.947 73.038C167.293 73.2518 167.695 73.3588 168.154 73.3588ZM176.944 75.1921C176.302 75.1921 175.742 75.0495 175.263 74.7643C174.794 74.4792 174.433 74.0819 174.178 73.5727C173.934 73.0634 173.812 72.4676 173.812 71.7852V66.6977H175.813V71.6171C175.813 71.9634 175.879 72.269 176.012 72.5338C176.154 72.7884 176.353 72.9921 176.607 73.1449C176.872 73.2875 177.168 73.3588 177.494 73.3588C177.819 73.3588 178.11 73.2875 178.364 73.1449C178.619 72.9921 178.818 72.7833 178.96 72.5185C179.103 72.2537 179.174 71.938 179.174 71.5713V66.6977H181.175V75.0088H179.281V73.3741L179.449 73.6643C179.256 74.1736 178.935 74.5555 178.487 74.8102C178.049 75.0648 177.534 75.1921 176.944 75.1921ZM182.96 75.0088V66.6977H184.839V68.5463L184.686 68.2713C184.879 67.65 185.18 67.2171 185.587 66.9727C186.005 66.7282 186.504 66.606 187.085 66.606H187.573V68.3782H186.855C186.285 68.3782 185.827 68.5565 185.48 68.913C185.134 69.2593 184.961 69.7481 184.961 70.3796V75.0088H182.96ZM193.329 75.0088L190.472 66.6977H192.581L194.674 73.0074L193.941 72.9921L196.171 66.6977H197.943L200.159 72.9921L199.425 73.0074L201.518 66.6977H203.627L200.77 75.0088H198.982L196.721 68.4241H197.393L195.102 75.0088H193.329ZM206.87 75.1921C206.289 75.1921 205.785 75.0954 205.357 74.9018C204.93 74.7083 204.599 74.4333 204.364 74.0768C204.13 73.7102 204.013 73.2875 204.013 72.8088C204.013 72.3505 204.115 71.943 204.318 71.5866C204.522 71.2199 204.838 70.9143 205.266 70.6699C205.693 70.4255 206.233 70.2523 206.885 70.1505L209.605 69.7074V71.2352L207.267 71.6324C206.87 71.7037 206.574 71.831 206.381 72.0143C206.187 72.1977 206.091 72.437 206.091 72.7324C206.091 73.0176 206.198 73.2468 206.412 73.4199C206.636 73.5829 206.911 73.6643 207.237 73.6643C207.654 73.6643 208.021 73.5778 208.337 73.4046C208.662 73.2213 208.912 72.9718 209.085 72.656C209.268 72.3403 209.36 71.994 209.36 71.6171V69.4782C209.36 69.1218 209.218 68.8264 208.932 68.5921C208.657 68.3477 208.291 68.2255 207.832 68.2255C207.405 68.2255 207.023 68.3426 206.687 68.5768C206.361 68.8009 206.121 69.1014 205.968 69.4782L204.334 68.6838C204.497 68.2458 204.751 67.869 205.098 67.5532C205.454 67.2273 205.872 66.9727 206.35 66.7893C206.829 66.606 207.349 66.5143 207.909 66.5143C208.591 66.5143 209.192 66.6417 209.712 66.8963C210.231 67.1407 210.633 67.487 210.918 67.9352C211.214 68.3731 211.362 68.8875 211.362 69.4782V75.0088H209.467V73.588L209.895 73.5574C209.681 73.9139 209.426 74.2143 209.131 74.4588C208.836 74.693 208.499 74.8764 208.123 75.0088C207.746 75.131 207.328 75.1921 206.87 75.1921ZM214.143 78.3699C213.919 78.3699 213.7 78.3495 213.486 78.3088C213.272 78.2782 213.079 78.2171 212.906 78.1255V76.4602C213.038 76.4907 213.196 76.5213 213.379 76.5518C213.573 76.5824 213.751 76.5977 213.914 76.5977C214.372 76.5977 214.703 76.4907 214.907 76.2768C215.121 76.0731 215.309 75.7981 215.472 75.4518L216.022 74.1685L215.992 75.8491L212.371 66.6977H214.525L217.061 73.4505H216.297L218.818 66.6977H220.988L217.367 75.8491C217.153 76.3787 216.893 76.8319 216.588 77.2088C216.282 77.5856 215.926 77.8708 215.518 78.0643C215.121 78.268 214.663 78.3699 214.143 78.3699Z" fill="#100A55"/>
<path d="M68.6757 97.6833C68.032 97.6833 67.4412 97.5692 66.9035 97.3411C66.3657 97.1048 65.8972 96.7788 65.4979 96.3633C65.1068 95.9396 64.8012 95.4425 64.5812 94.8722C64.3612 94.3018 64.2512 93.6744 64.2512 92.99C64.2512 92.3055 64.3612 91.6781 64.5812 91.1077C64.8012 90.5374 65.1068 90.0403 65.4979 89.6166C65.8972 89.1929 66.3657 88.867 66.9035 88.6388C67.4412 88.4025 68.032 88.2844 68.6757 88.2844C69.295 88.2844 69.849 88.3944 70.3379 88.6144C70.835 88.8344 71.2505 89.1196 71.5846 89.47C71.9268 89.8122 72.1712 90.1748 72.3179 90.5577L71.4012 90.9611C71.1731 90.4314 70.8227 90.0077 70.3501 89.69C69.8857 89.364 69.3275 89.2011 68.6757 89.2011C68.0075 89.2011 67.4127 89.36 66.8912 89.6777C66.3698 89.9955 65.9624 90.4396 65.669 91.01C65.3757 91.5722 65.229 92.2322 65.229 92.99C65.229 93.7396 65.3757 94.3996 65.669 94.97C65.9624 95.5403 66.3698 95.9844 66.8912 96.3022C67.4127 96.6118 68.0075 96.7666 68.6757 96.7666C69.3275 96.7666 69.8857 96.6077 70.3501 96.29C70.8227 95.9722 71.1731 95.5485 71.4012 95.0188L72.3179 95.4222C72.1712 95.797 71.9268 96.1596 71.5846 96.51C71.2505 96.8522 70.835 97.1333 70.3379 97.3533C69.849 97.5733 69.295 97.6833 68.6757 97.6833ZM76.8827 97.6833C76.2635 97.6833 75.7012 97.5366 75.1961 97.2433C74.6909 96.9418 74.2875 96.5344 73.9861 96.0211C73.6927 95.4996 73.5461 94.9088 73.5461 94.2488C73.5461 93.597 73.6927 93.0144 73.9861 92.5011C74.2794 91.9877 74.6746 91.5844 75.1716 91.2911C75.6768 90.9896 76.2472 90.8388 76.8827 90.8388C77.5183 90.8388 78.0846 90.9855 78.5816 91.2788C79.0868 91.5722 79.482 91.9755 79.7672 92.4888C80.0605 93.0022 80.2072 93.5888 80.2072 94.2488C80.2072 94.917 80.0564 95.5118 79.7549 96.0333C79.4535 96.5466 79.0501 96.95 78.5449 97.2433C78.0479 97.5366 77.4938 97.6833 76.8827 97.6833ZM76.8827 96.7666C77.3227 96.7666 77.7179 96.6566 78.0683 96.4366C78.4268 96.2166 78.7079 95.9151 78.9116 95.5322C79.1235 95.1492 79.2294 94.7214 79.2294 94.2488C79.2294 93.7763 79.1235 93.3525 78.9116 92.9777C78.7079 92.6029 78.4268 92.3055 78.0683 92.0855C77.7179 91.8655 77.3227 91.7555 76.8827 91.7555C76.4427 91.7555 76.0435 91.8655 75.6849 92.0855C75.3346 92.3055 75.0535 92.6029 74.8416 92.9777C74.6298 93.3525 74.5238 93.7763 74.5238 94.2488C74.5238 94.7214 74.6298 95.1492 74.8416 95.5322C75.0535 95.9151 75.3346 96.2166 75.6849 96.4366C76.0435 96.6566 76.4427 96.7666 76.8827 96.7666ZM81.8238 97.5366V90.9855H82.7405V92.2566L82.5327 92.2077C82.6957 91.784 82.9605 91.45 83.3272 91.2055C83.702 90.9611 84.1338 90.8388 84.6227 90.8388C85.0872 90.8388 85.5027 90.9448 85.8694 91.1566C86.2442 91.3685 86.5375 91.6618 86.7494 92.0366C86.9694 92.4033 87.0794 92.8188 87.0794 93.2833V97.5366H86.1627V93.6377C86.1627 93.2385 86.0894 92.9003 85.9427 92.6233C85.8042 92.3463 85.6046 92.1344 85.3438 91.9877C85.0913 91.8329 84.7979 91.7555 84.4638 91.7555C84.1298 91.7555 83.8324 91.8329 83.5716 91.9877C83.3109 92.1344 83.1072 92.3503 82.9605 92.6355C82.8138 92.9125 82.7405 93.2466 82.7405 93.6377V97.5366H81.8238ZM88.8301 97.5366V90.9855H89.7468V92.2566L89.539 92.2077C89.702 91.784 89.9668 91.45 90.3335 91.2055C90.7083 90.9611 91.1401 90.8388 91.629 90.8388C92.0935 90.8388 92.509 90.9448 92.8757 91.1566C93.2505 91.3685 93.5438 91.6618 93.7557 92.0366C93.9757 92.4033 94.0857 92.8188 94.0857 93.2833V97.5366H93.169V93.6377C93.169 93.2385 93.0957 92.9003 92.949 92.6233C92.8105 92.3463 92.6109 92.1344 92.3501 91.9877C92.0975 91.8329 91.8042 91.7555 91.4701 91.7555C91.1361 91.7555 90.8387 91.8329 90.5779 91.9877C90.3172 92.1344 90.1135 92.3503 89.9668 92.6355C89.8201 92.9125 89.7468 93.2466 89.7468 93.6377V97.5366H88.8301ZM98.8187 97.6833C98.2075 97.6833 97.6535 97.5366 97.1564 97.2433C96.6675 96.9418 96.2805 96.5303 95.9953 96.0088C95.7101 95.4874 95.5675 94.8966 95.5675 94.2366C95.5675 93.5766 95.7061 92.994 95.9831 92.4888C96.2601 91.9755 96.6349 91.5722 97.1075 91.2788C97.5883 90.9855 98.1261 90.8388 98.7209 90.8388C99.1935 90.8388 99.6131 90.9285 99.9798 91.1077C100.355 91.2788 100.672 91.5151 100.933 91.8166C101.194 92.11 101.393 92.444 101.532 92.8188C101.671 93.1855 101.74 93.5644 101.74 93.9555C101.74 94.037 101.736 94.1307 101.728 94.2366C101.719 94.3344 101.707 94.4363 101.691 94.5422H96.1542V93.6866H101.165L100.725 94.0533C100.799 93.6051 100.746 93.2059 100.566 92.8555C100.395 92.497 100.147 92.2159 99.8209 92.0122C99.4949 91.8003 99.1283 91.6944 98.7209 91.6944C98.3135 91.6944 97.9346 91.8003 97.5842 92.0122C97.242 92.224 96.9731 92.5214 96.7775 92.9044C96.582 93.2792 96.5046 93.7274 96.5453 94.2488C96.5046 94.7703 96.5861 95.2266 96.7898 95.6177C97.0016 96.0007 97.2868 96.2981 97.6453 96.51C98.012 96.7218 98.4031 96.8277 98.8187 96.8277C99.2994 96.8277 99.7027 96.7137 100.029 96.4855C100.355 96.2574 100.619 95.9722 100.823 95.63L101.605 96.0455C101.475 96.3388 101.275 96.6118 101.006 96.8644C100.738 97.1088 100.416 97.3085 100.041 97.4633C99.6742 97.61 99.2668 97.6833 98.8187 97.6833ZM106.35 97.6833C105.707 97.6833 105.14 97.5325 104.652 97.2311C104.163 96.9296 103.78 96.5222 103.503 96.0088C103.226 95.4874 103.087 94.9007 103.087 94.2488C103.087 93.597 103.226 93.0144 103.503 92.5011C103.78 91.9877 104.163 91.5844 104.652 91.2911C105.14 90.9896 105.707 90.8388 106.35 90.8388C106.758 90.8388 107.141 90.9122 107.499 91.0588C107.858 91.2055 108.176 91.4051 108.453 91.6577C108.73 91.9022 108.937 92.1874 109.076 92.5133L108.245 92.9411C108.082 92.5907 107.833 92.3055 107.499 92.0855C107.165 91.8655 106.782 91.7555 106.35 91.7555C105.919 91.7555 105.527 91.8655 105.177 92.0855C104.835 92.2974 104.562 92.5948 104.358 92.9777C104.163 93.3525 104.065 93.7803 104.065 94.2611C104.065 94.7337 104.163 95.1614 104.358 95.5444C104.562 95.9192 104.835 96.2166 105.177 96.4366C105.527 96.6566 105.919 96.7666 106.35 96.7666C106.782 96.7666 107.161 96.6566 107.487 96.4366C107.821 96.2166 108.074 95.9233 108.245 95.5566L109.076 96.0088C108.937 96.3266 108.73 96.6118 108.453 96.8644C108.176 97.117 107.858 97.3166 107.499 97.4633C107.141 97.61 106.758 97.6833 106.35 97.6833ZM113.19 97.61C112.603 97.61 112.151 97.4388 111.833 97.0966C111.516 96.7544 111.357 96.2655 111.357 95.63V91.9022H110.147V90.9855H110.452C110.729 90.9855 110.949 90.8959 111.112 90.7166C111.275 90.5292 111.357 90.297 111.357 90.02V89.47H112.273V90.9855H113.716V91.9022H112.273V95.63C112.273 95.85 112.306 96.0455 112.371 96.2166C112.436 96.3796 112.546 96.51 112.701 96.6077C112.864 96.7055 113.08 96.7544 113.349 96.7544C113.414 96.7544 113.492 96.7503 113.581 96.7422C113.671 96.734 113.748 96.7259 113.813 96.7177V97.5366C113.716 97.5611 113.606 97.5774 113.483 97.5855C113.361 97.6018 113.263 97.61 113.19 97.61ZM118.942 97.5366L116.693 90.9855H117.732L119.59 96.7177H119.223L120.971 90.9855H121.888L123.635 96.7177H123.269L125.139 90.9855H126.165L123.917 97.5366H123L121.301 91.9266H121.558L119.859 97.5366H118.942ZM127.239 97.5366V90.9855H128.156V97.5366H127.239ZM127.239 89.7755V88.4311H128.156V89.7755H127.239ZM132.538 97.61C131.951 97.61 131.499 97.4388 131.181 97.0966C130.864 96.7544 130.705 96.2655 130.705 95.63V91.9022H129.495V90.9855H129.8C130.077 90.9855 130.297 90.8959 130.46 90.7166C130.623 90.5292 130.705 90.297 130.705 90.02V89.47H131.621V90.9855H133.064V91.9022H131.621V95.63C131.621 95.85 131.654 96.0455 131.719 96.2166C131.784 96.3796 131.894 96.51 132.049 96.6077C132.212 96.7055 132.428 96.7544 132.697 96.7544C132.762 96.7544 132.839 96.7503 132.929 96.7422C133.019 96.734 133.096 96.7259 133.161 96.7177V97.5366C133.064 97.5611 132.954 97.5774 132.831 97.5855C132.709 97.6018 132.611 97.61 132.538 97.61ZM134.771 97.5366V88.2844H135.688V92.2566L135.48 92.2077C135.643 91.784 135.908 91.45 136.274 91.2055C136.649 90.9611 137.081 90.8388 137.57 90.8388C138.034 90.8388 138.45 90.9448 138.816 91.1566C139.191 91.3685 139.485 91.6618 139.696 92.0366C139.916 92.4033 140.026 92.8188 140.026 93.2833V97.5366H139.11V93.6377C139.11 93.2385 139.036 92.9003 138.89 92.6233C138.743 92.3463 138.539 92.1344 138.279 91.9877C138.026 91.8329 137.737 91.7555 137.411 91.7555C137.085 91.7555 136.792 91.8329 136.531 91.9877C136.27 92.1344 136.062 92.3503 135.908 92.6355C135.761 92.9125 135.688 93.2466 135.688 93.6377V97.5366H134.771ZM143.988 100.226C143.858 100.226 143.724 100.213 143.585 100.189C143.455 100.173 143.324 100.14 143.194 100.091V99.2355C143.275 99.2437 143.377 99.2559 143.5 99.2722C143.63 99.2966 143.76 99.3088 143.891 99.3088C144.29 99.3088 144.595 99.2233 144.807 99.0522C145.019 98.8892 145.227 98.5714 145.431 98.0988L145.846 97.1211L145.822 97.9277L143.047 90.9855H144.037L146.311 96.7177H146.054L148.315 90.9855H149.33L146.335 98.3677C146.205 98.6855 146.038 98.987 145.834 99.2722C145.638 99.5574 145.39 99.7855 145.088 99.9566C144.787 100.136 144.42 100.226 143.988 100.226ZM153.355 97.6833C152.736 97.6833 152.174 97.5366 151.668 97.2433C151.163 96.9418 150.76 96.5344 150.458 96.0211C150.165 95.4996 150.018 94.9088 150.018 94.2488C150.018 93.597 150.165 93.0144 150.458 92.5011C150.752 91.9877 151.147 91.5844 151.644 91.2911C152.149 90.9896 152.72 90.8388 153.355 90.8388C153.991 90.8388 154.557 90.9855 155.054 91.2788C155.559 91.5722 155.954 91.9755 156.24 92.4888C156.533 93.0022 156.68 93.5888 156.68 94.2488C156.68 94.917 156.529 95.5118 156.227 96.0333C155.926 96.5466 155.523 96.95 155.017 97.2433C154.52 97.5366 153.966 97.6833 153.355 97.6833ZM153.355 96.7666C153.795 96.7666 154.19 96.6566 154.541 96.4366C154.899 96.2166 155.18 95.9151 155.384 95.5322C155.596 95.1492 155.702 94.7214 155.702 94.2488C155.702 93.7763 155.596 93.3525 155.384 92.9777C155.18 92.6029 154.899 92.3055 154.541 92.0855C154.19 91.8655 153.795 91.7555 153.355 91.7555C152.915 91.7555 152.516 91.8655 152.157 92.0855C151.807 92.3055 151.526 92.6029 151.314 92.9777C151.102 93.3525 150.996 93.7763 150.996 94.2488C150.996 94.7214 151.102 95.1492 151.314 95.5322C151.526 95.9151 151.807 96.2166 152.157 96.4366C152.516 96.6566 152.915 96.7666 153.355 96.7666ZM160.619 97.6833C160.162 97.6833 159.747 97.5774 159.372 97.3655C158.997 97.1455 158.7 96.844 158.48 96.4611C158.268 96.07 158.162 95.6218 158.162 95.1166V90.9855H159.079V95.0066C159.079 95.357 159.148 95.6666 159.286 95.9355C159.433 96.1963 159.633 96.4 159.885 96.5466C160.146 96.6933 160.443 96.7666 160.777 96.7666C161.111 96.7666 161.409 96.6933 161.67 96.5466C161.93 96.3918 162.134 96.1759 162.281 95.8988C162.427 95.6137 162.501 95.2755 162.501 94.8844V90.9855H163.417V97.5366H162.501V96.2655L162.709 96.3144C162.554 96.7381 162.289 97.0722 161.914 97.3166C161.539 97.5611 161.107 97.6833 160.619 97.6833ZM165.303 97.5366V90.9855H166.219V92.0611L166.097 91.9022C166.252 91.5925 166.484 91.3481 166.794 91.1688C167.111 90.9896 167.494 90.9 167.943 90.9H168.358V91.8166H167.784C167.311 91.8166 166.932 91.9633 166.647 92.2566C166.362 92.55 166.219 92.9655 166.219 93.5033V97.5366H165.303ZM174.504 97.6833C173.86 97.6833 173.294 97.5325 172.805 97.2311C172.316 96.9296 171.933 96.5222 171.656 96.0088C171.379 95.4874 171.24 94.9007 171.24 94.2488C171.24 93.597 171.379 93.0144 171.656 92.5011C171.933 91.9877 172.316 91.5844 172.805 91.2911C173.294 90.9896 173.86 90.8388 174.504 90.8388C174.911 90.8388 175.294 90.9122 175.653 91.0588C176.011 91.2055 176.329 91.4051 176.606 91.6577C176.883 91.9022 177.091 92.1874 177.229 92.5133L176.398 92.9411C176.235 92.5907 175.987 92.3055 175.653 92.0855C175.318 91.8655 174.935 91.7555 174.504 91.7555C174.072 91.7555 173.681 91.8655 173.33 92.0855C172.988 92.2974 172.715 92.5948 172.511 92.9777C172.316 93.3525 172.218 93.7803 172.218 94.2611C172.218 94.7337 172.316 95.1614 172.511 95.5444C172.715 95.9192 172.988 96.2166 173.33 96.4366C173.681 96.6566 174.072 96.7666 174.504 96.7666C174.935 96.7666 175.314 96.6566 175.64 96.4366C175.974 96.2166 176.227 95.9233 176.398 95.5566L177.229 96.0088C177.091 96.3266 176.883 96.6118 176.606 96.8644C176.329 97.117 176.011 97.3166 175.653 97.4633C175.294 97.61 174.911 97.6833 174.504 97.6833ZM181.906 97.6833C181.286 97.6833 180.724 97.5366 180.219 97.2433C179.714 96.9418 179.31 96.5344 179.009 96.0211C178.716 95.4996 178.569 94.9088 178.569 94.2488C178.569 93.597 178.716 93.0144 179.009 92.5011C179.302 91.9877 179.697 91.5844 180.194 91.2911C180.7 90.9896 181.27 90.8388 181.906 90.8388C182.541 90.8388 183.107 90.9855 183.604 91.2788C184.11 91.5722 184.505 91.9755 184.79 92.4888C185.083 93.0022 185.23 93.5888 185.23 94.2488C185.23 94.917 185.079 95.5118 184.778 96.0333C184.476 96.5466 184.073 96.95 183.568 97.2433C183.071 97.5366 182.517 97.6833 181.906 97.6833ZM181.906 96.7666C182.346 96.7666 182.741 96.6566 183.091 96.4366C183.45 96.2166 183.731 95.9151 183.934 95.5322C184.146 95.1492 184.252 94.7214 184.252 94.2488C184.252 93.7763 184.146 93.3525 183.934 92.9777C183.731 92.6029 183.45 92.3055 183.091 92.0855C182.741 91.8655 182.346 91.7555 181.906 91.7555C181.466 91.7555 181.066 91.8655 180.708 92.0855C180.357 92.3055 180.076 92.6029 179.864 92.9777C179.653 93.3525 179.547 93.7763 179.547 94.2488C179.547 94.7214 179.653 95.1492 179.864 95.5322C180.076 95.9151 180.357 96.2166 180.708 96.4366C181.066 96.6566 181.466 96.7666 181.906 96.7666ZM186.847 97.5366V90.9855H187.763V92.2322L187.617 92.0488C187.796 91.6659 188.061 91.3685 188.411 91.1566C188.77 90.9448 189.161 90.8388 189.584 90.8388C190.09 90.8388 190.546 90.9814 190.953 91.2666C191.361 91.5518 191.65 91.9225 191.821 92.3788L191.564 92.3911C191.727 91.8859 192.008 91.5029 192.408 91.2422C192.815 90.9733 193.263 90.8388 193.752 90.8388C194.192 90.8388 194.596 90.9448 194.962 91.1566C195.337 91.3685 195.634 91.6618 195.854 92.0366C196.083 92.4033 196.197 92.8188 196.197 93.2833V97.5366H195.28V93.6377C195.28 93.2385 195.207 92.9003 195.06 92.6233C194.921 92.3463 194.73 92.1344 194.486 91.9877C194.241 91.8329 193.96 91.7555 193.642 91.7555C193.333 91.7555 193.051 91.8329 192.799 91.9877C192.546 92.1344 192.347 92.3503 192.2 92.6355C192.053 92.9125 191.98 93.2466 191.98 93.6377V97.5366H191.063V93.6377C191.063 93.2385 190.99 92.9003 190.843 92.6233C190.705 92.3463 190.513 92.1344 190.269 91.9877C190.024 91.8329 189.743 91.7555 189.426 91.7555C189.108 91.7555 188.823 91.8329 188.57 91.9877C188.326 92.1344 188.13 92.3503 187.983 92.6355C187.837 92.9125 187.763 93.2466 187.763 93.6377V97.5366H186.847ZM197.947 97.5366V90.9855H198.864V92.2322L198.717 92.0488C198.896 91.6659 199.161 91.3685 199.511 91.1566C199.87 90.9448 200.261 90.8388 200.685 90.8388C201.19 90.8388 201.646 90.9814 202.054 91.2666C202.461 91.5518 202.75 91.9225 202.921 92.3788L202.665 92.3911C202.828 91.8859 203.109 91.5029 203.508 91.2422C203.915 90.9733 204.364 90.8388 204.852 90.8388C205.292 90.8388 205.696 90.9448 206.062 91.1566C206.437 91.3685 206.735 91.6618 206.955 92.0366C207.183 92.4033 207.297 92.8188 207.297 93.2833V97.5366H206.38V93.6377C206.38 93.2385 206.307 92.9003 206.16 92.6233C206.022 92.3463 205.83 92.1344 205.586 91.9877C205.341 91.8329 205.06 91.7555 204.742 91.7555C204.433 91.7555 204.152 91.8329 203.899 91.9877C203.647 92.1344 203.447 92.3503 203.3 92.6355C203.154 92.9125 203.08 93.2466 203.08 93.6377V97.5366H202.164V93.6377C202.164 93.2385 202.09 92.9003 201.944 92.6233C201.805 92.3463 201.614 92.1344 201.369 91.9877C201.125 91.8329 200.844 91.7555 200.526 91.7555C200.208 91.7555 199.923 91.8329 199.67 91.9877C199.426 92.1344 199.23 92.3503 199.084 92.6355C198.937 92.9125 198.864 93.2466 198.864 93.6377V97.5366H197.947ZM211.369 97.6833C210.913 97.6833 210.498 97.5774 210.123 97.3655C209.748 97.1455 209.45 96.844 209.23 96.4611C209.019 96.07 208.913 95.6218 208.913 95.1166V90.9855H209.829V95.0066C209.829 95.357 209.899 95.6666 210.037 95.9355C210.184 96.1963 210.383 96.4 210.636 96.5466C210.897 96.6933 211.194 96.7666 211.528 96.7666C211.862 96.7666 212.16 96.6933 212.42 96.5466C212.681 96.3918 212.885 96.1759 213.032 95.8988C213.178 95.6137 213.252 95.2755 213.252 94.8844V90.9855H214.168V97.5366H213.252V96.2655L213.459 96.3144C213.305 96.7381 213.04 97.0722 212.665 97.3166C212.29 97.5611 211.858 97.6833 211.369 97.6833ZM216.053 97.5366V90.9855H216.97V92.2566L216.762 92.2077C216.925 91.784 217.19 91.45 217.557 91.2055C217.932 90.9611 218.363 90.8388 218.852 90.8388C219.317 90.8388 219.732 90.9448 220.099 91.1566C220.474 91.3685 220.767 91.6618 220.979 92.0366C221.199 92.4033 221.309 92.8188 221.309 93.2833V97.5366H220.392V93.6377C220.392 93.2385 220.319 92.9003 220.172 92.6233C220.034 92.3463 219.834 92.1344 219.573 91.9877C219.321 91.8329 219.028 91.7555 218.693 91.7555C218.359 91.7555 218.062 91.8329 217.801 91.9877C217.54 92.1344 217.337 92.3503 217.19 92.6355C217.043 92.9125 216.97 93.2466 216.97 93.6377V97.5366H216.053ZM223.06 97.5366V90.9855H223.976V97.5366H223.06ZM223.06 89.7755V88.4311H223.976V89.7755H223.06ZM228.358 97.61C227.772 97.61 227.319 97.4388 227.002 97.0966C226.684 96.7544 226.525 96.2655 226.525 95.63V91.9022H225.315V90.9855H225.62C225.898 90.9855 226.118 90.8959 226.28 90.7166C226.443 90.5292 226.525 90.297 226.525 90.02V89.47H227.442V90.9855H228.884V91.9022H227.442V95.63C227.442 95.85 227.474 96.0455 227.539 96.2166C227.605 96.3796 227.715 96.51 227.869 96.6077C228.032 96.7055 228.248 96.7544 228.517 96.7544C228.582 96.7544 228.66 96.7503 228.749 96.7422C228.839 96.734 228.916 96.7259 228.982 96.7177V97.5366C228.884 97.5611 228.774 97.5774 228.652 97.5855C228.529 97.6018 228.432 97.61 228.358 97.61ZM230.726 100.226C230.595 100.226 230.461 100.213 230.322 100.189C230.192 100.173 230.062 100.14 229.931 100.091V99.2355C230.013 99.2437 230.115 99.2559 230.237 99.2722C230.367 99.2966 230.497 99.3088 230.628 99.3088C231.027 99.3088 231.333 99.2233 231.545 99.0522C231.756 98.8892 231.964 98.5714 232.168 98.0988L232.583 97.1211L232.559 97.9277L229.785 90.9855H230.775L233.048 96.7177H232.791L235.052 90.9855H236.067L233.072 98.3677C232.942 98.6855 232.775 98.987 232.571 99.2722C232.376 99.5574 232.127 99.7855 231.826 99.9566C231.524 100.136 231.157 100.226 230.726 100.226ZM236.691 99.1255V98.6977C236.936 98.6325 237.115 98.5063 237.229 98.3188C237.343 98.1314 237.4 97.8707 237.4 97.5366H236.936V96.1922H237.913V97.2188C237.913 97.7485 237.812 98.1722 237.608 98.49C237.404 98.8159 237.099 99.0277 236.691 99.1255ZM245.008 97.6833C244.397 97.6833 243.843 97.5366 243.346 97.2433C242.857 96.9418 242.47 96.5303 242.185 96.0088C241.899 95.4874 241.757 94.8966 241.757 94.2366C241.757 93.5766 241.895 92.994 242.172 92.4888C242.449 91.9755 242.824 91.5722 243.297 91.2788C243.778 90.9855 244.315 90.8388 244.91 90.8388C245.383 90.8388 245.802 90.9285 246.169 91.1077C246.544 91.2788 246.862 91.5151 247.122 91.8166C247.383 92.11 247.583 92.444 247.721 92.8188C247.86 93.1855 247.929 93.5644 247.929 93.9555C247.929 94.037 247.925 94.1307 247.917 94.2366C247.909 94.3344 247.896 94.4363 247.88 94.5422H242.343V93.6866H247.355L246.915 94.0533C246.988 93.6051 246.935 93.2059 246.756 92.8555C246.585 92.497 246.336 92.2159 246.01 92.0122C245.684 91.8003 245.318 91.6944 244.91 91.6944C244.503 91.6944 244.124 91.8003 243.773 92.0122C243.431 92.224 243.162 92.5214 242.967 92.9044C242.771 93.2792 242.694 93.7274 242.735 94.2488C242.694 94.7703 242.775 95.2266 242.979 95.6177C243.191 96.0007 243.476 96.2981 243.835 96.51C244.201 96.7218 244.592 96.8277 245.008 96.8277C245.489 96.8277 245.892 96.7137 246.218 96.4855C246.544 96.2574 246.809 95.9722 247.012 95.63L247.795 96.0455C247.664 96.3388 247.465 96.6118 247.196 96.8644C246.927 97.1088 246.605 97.3085 246.23 97.4633C245.863 97.61 245.456 97.6833 245.008 97.6833ZM249.545 97.5366V90.9855H250.462V92.2566L250.254 92.2077C250.417 91.784 250.682 91.45 251.049 91.2055C251.423 90.9611 251.855 90.8388 252.344 90.8388C252.809 90.8388 253.224 90.9448 253.591 91.1566C253.966 91.3685 254.259 91.6618 254.471 92.0366C254.691 92.4033 254.801 92.8188 254.801 93.2833V97.5366H253.884V93.6377C253.884 93.2385 253.811 92.9003 253.664 92.6233C253.526 92.3463 253.326 92.1344 253.065 91.9877C252.813 91.8329 252.519 91.7555 252.185 91.7555C251.851 91.7555 251.554 91.8329 251.293 91.9877C251.032 92.1344 250.829 92.3503 250.682 92.6355C250.535 92.9125 250.462 93.2466 250.462 93.6377V97.5366H249.545ZM256.551 97.5366V88.2844H257.468V92.2566L257.26 92.2077C257.423 91.784 257.688 91.45 258.055 91.2055C258.43 90.9611 258.861 90.8388 259.35 90.8388C259.815 90.8388 260.23 90.9448 260.597 91.1566C260.972 91.3685 261.265 91.6618 261.477 92.0366C261.697 92.4033 261.807 92.8188 261.807 93.2833V97.5366H260.89V93.6377C260.89 93.2385 260.817 92.9003 260.67 92.6233C260.524 92.3463 260.32 92.1344 260.059 91.9877C259.807 91.8329 259.517 91.7555 259.191 91.7555C258.866 91.7555 258.572 91.8329 258.311 91.9877C258.051 92.1344 257.843 92.3503 257.688 92.6355C257.541 92.9125 257.468 93.2466 257.468 93.6377V97.5366H256.551ZM265.452 97.6833C265.037 97.6833 264.666 97.6059 264.34 97.4511C264.014 97.2881 263.757 97.0681 263.57 96.7911C263.383 96.514 263.289 96.1963 263.289 95.8377C263.289 95.4955 263.362 95.1859 263.509 94.9088C263.656 94.6237 263.884 94.3833 264.193 94.1877C264.503 93.9922 264.898 93.8537 265.379 93.7722L267.946 93.3444V94.1755L265.599 94.5666C265.126 94.6481 264.784 94.7988 264.572 95.0188C264.369 95.2388 264.267 95.4996 264.267 95.8011C264.267 96.0944 264.381 96.3429 264.609 96.5466C264.845 96.7503 265.147 96.8522 265.513 96.8522C265.961 96.8522 266.353 96.7585 266.687 96.5711C267.021 96.3755 267.281 96.1148 267.469 95.7888C267.656 95.4629 267.75 95.1003 267.75 94.7011V93.0388C267.75 92.6477 267.607 92.33 267.322 92.0855C267.037 91.8411 266.666 91.7188 266.21 91.7188C265.811 91.7188 265.46 91.8207 265.159 92.0244C264.857 92.22 264.633 92.4766 264.487 92.7944L263.656 92.3422C263.778 92.0651 263.969 91.8125 264.23 91.5844C264.499 91.3563 264.804 91.177 265.147 91.0466C265.489 90.9081 265.843 90.8388 266.21 90.8388C266.691 90.8388 267.114 90.9325 267.481 91.12C267.856 91.3074 268.145 91.5681 268.349 91.9022C268.561 92.2281 268.667 92.607 268.667 93.0388V97.5366H267.75V96.2288L267.884 96.3633C267.77 96.6077 267.591 96.8318 267.347 97.0355C267.11 97.2311 266.829 97.39 266.503 97.5122C266.186 97.6263 265.835 97.6833 265.452 97.6833ZM270.552 97.5366V90.9855H271.469V92.2566L271.261 92.2077C271.424 91.784 271.689 91.45 272.055 91.2055C272.43 90.9611 272.862 90.8388 273.351 90.8388C273.815 90.8388 274.231 90.9448 274.598 91.1566C274.973 91.3685 275.266 91.6618 275.478 92.0366C275.698 92.4033 275.808 92.8188 275.808 93.2833V97.5366H274.891V93.6377C274.891 93.2385 274.818 92.9003 274.671 92.6233C274.533 92.3463 274.333 92.1344 274.072 91.9877C273.82 91.8329 273.526 91.7555 273.192 91.7555C272.858 91.7555 272.561 91.8329 272.3 91.9877C272.039 92.1344 271.835 92.3503 271.689 92.6355C271.542 92.9125 271.469 93.2466 271.469 93.6377V97.5366H270.552ZM280.553 97.6833C279.909 97.6833 279.343 97.5325 278.854 97.2311C278.365 96.9296 277.982 96.5222 277.705 96.0088C277.428 95.4874 277.29 94.9007 277.29 94.2488C277.29 93.597 277.428 93.0144 277.705 92.5011C277.982 91.9877 278.365 91.5844 278.854 91.2911C279.343 90.9896 279.909 90.8388 280.553 90.8388C280.96 90.8388 281.343 90.9122 281.702 91.0588C282.06 91.2055 282.378 91.4051 282.655 91.6577C282.932 91.9022 283.14 92.1874 283.278 92.5133L282.447 92.9411C282.284 92.5907 282.036 92.3055 281.702 92.0855C281.368 91.8655 280.985 91.7555 280.553 91.7555C280.121 91.7555 279.73 91.8655 279.38 92.0855C279.037 92.2974 278.764 92.5948 278.561 92.9777C278.365 93.3525 278.267 93.7803 278.267 94.2611C278.267 94.7337 278.365 95.1614 278.561 95.5444C278.764 95.9192 279.037 96.2166 279.38 96.4366C279.73 96.6566 280.121 96.7666 280.553 96.7666C280.985 96.7666 281.364 96.6566 281.69 96.4366C282.024 96.2166 282.276 95.9233 282.447 95.5566L283.278 96.0088C283.14 96.3266 282.932 96.6118 282.655 96.8644C282.378 97.117 282.06 97.3166 281.702 97.4633C281.343 97.61 280.96 97.6833 280.553 97.6833ZM287.869 97.6833C287.258 97.6833 286.704 97.5366 286.207 97.2433C285.718 96.9418 285.331 96.5303 285.046 96.0088C284.761 95.4874 284.618 94.8966 284.618 94.2366C284.618 93.5766 284.757 92.994 285.034 92.4888C285.311 91.9755 285.686 91.5722 286.158 91.2788C286.639 90.9855 287.177 90.8388 287.771 90.8388C288.244 90.8388 288.664 90.9285 289.03 91.1077C289.405 91.2788 289.723 91.5151 289.984 91.8166C290.244 92.11 290.444 92.444 290.583 92.8188C290.721 93.1855 290.79 93.5644 290.79 93.9555C290.79 94.037 290.786 94.1307 290.778 94.2366C290.77 94.3344 290.758 94.4363 290.741 94.5422H285.205V93.6866H290.216L289.776 94.0533C289.849 93.6051 289.796 93.2059 289.617 92.8555C289.446 92.497 289.197 92.2159 288.871 92.0122C288.546 91.8003 288.179 91.6944 287.771 91.6944C287.364 91.6944 286.985 91.8003 286.635 92.0122C286.293 92.224 286.024 92.5214 285.828 92.9044C285.633 93.2792 285.555 93.7274 285.596 94.2488C285.555 94.7703 285.637 95.2266 285.84 95.6177C286.052 96.0007 286.337 96.2981 286.696 96.51C287.063 96.7218 287.454 96.8277 287.869 96.8277C288.35 96.8277 288.753 96.7137 289.079 96.4855C289.405 96.2574 289.67 95.9722 289.874 95.63L290.656 96.0455C290.526 96.3388 290.326 96.6118 290.057 96.8644C289.788 97.1088 289.466 97.3085 289.091 97.4633C288.725 97.61 288.317 97.6833 287.869 97.6833ZM294.618 100.226C294.487 100.226 294.353 100.213 294.214 100.189C294.084 100.173 293.954 100.14 293.823 100.091V99.2355C293.905 99.2437 294.007 99.2559 294.129 99.2722C294.259 99.2966 294.39 99.3088 294.52 99.3088C294.919 99.3088 295.225 99.2233 295.437 99.0522C295.649 98.8892 295.856 98.5714 296.06 98.0988L296.476 97.1211L296.451 97.9277L293.677 90.9855H294.667L296.94 96.7177H296.683L298.944 90.9855H299.959L296.964 98.3677C296.834 98.6855 296.667 98.987 296.463 99.2722C296.268 99.5574 296.019 99.7855 295.718 99.9566C295.416 100.136 295.05 100.226 294.618 100.226ZM303.985 97.6833C303.365 97.6833 302.803 97.5366 302.298 97.2433C301.793 96.9418 301.389 96.5344 301.088 96.0211C300.795 95.4996 300.648 94.9088 300.648 94.2488C300.648 93.597 300.795 93.0144 301.088 92.5011C301.381 91.9877 301.776 91.5844 302.273 91.2911C302.779 90.9896 303.349 90.8388 303.985 90.8388C304.62 90.8388 305.186 90.9855 305.683 91.2788C306.189 91.5722 306.584 91.9755 306.869 92.4888C307.162 93.0022 307.309 93.5888 307.309 94.2488C307.309 94.917 307.158 95.5118 306.857 96.0333C306.555 96.5466 306.152 96.95 305.647 97.2433C305.15 97.5366 304.596 97.6833 303.985 97.6833ZM303.985 96.7666C304.425 96.7666 304.82 96.6566 305.17 96.4366C305.529 96.2166 305.81 95.9151 306.013 95.5322C306.225 95.1492 306.331 94.7214 306.331 94.2488C306.331 93.7763 306.225 93.3525 306.013 92.9777C305.81 92.6029 305.529 92.3055 305.17 92.0855C304.82 91.8655 304.425 91.7555 303.985 91.7555C303.545 91.7555 303.145 91.8655 302.787 92.0855C302.436 92.3055 302.155 92.6029 301.943 92.9777C301.732 93.3525 301.626 93.7763 301.626 94.2488C301.626 94.7214 301.732 95.1492 301.943 95.5322C302.155 95.9151 302.436 96.2166 302.787 96.4366C303.145 96.6566 303.545 96.7666 303.985 96.7666ZM311.248 97.6833C310.792 97.6833 310.376 97.5774 310.001 97.3655C309.626 97.1455 309.329 96.844 309.109 96.4611C308.897 96.07 308.791 95.6218 308.791 95.1166V90.9855H309.708V95.0066C309.708 95.357 309.777 95.6666 309.916 95.9355C310.062 96.1963 310.262 96.4 310.515 96.5466C310.775 96.6933 311.073 96.7666 311.407 96.7666C311.741 96.7666 312.038 96.6933 312.299 96.5466C312.56 96.3918 312.763 96.1759 312.91 95.8988C313.057 95.6137 313.13 95.2755 313.13 94.8844V90.9855H314.047V97.5366H313.13V96.2655L313.338 96.3144C313.183 96.7381 312.918 97.0722 312.543 97.3166C312.169 97.5611 311.737 97.6833 311.248 97.6833ZM315.932 97.5366V90.9855H316.849V92.0611L316.726 91.9022C316.881 91.5925 317.113 91.3481 317.423 91.1688C317.741 90.9896 318.124 90.9 318.572 90.9H318.987V91.8166H318.413C317.94 91.8166 317.562 91.9633 317.276 92.2566C316.991 92.55 316.849 92.9655 316.849 93.5033V97.5366H315.932ZM322.138 97.5366V88.2844H323.055V97.5366H322.138ZM325.249 97.5366V96.1922H326.227V97.5366H325.249ZM327.694 97.5366V96.1922H328.671V97.5366H327.694ZM330.138 97.5366V96.1922H331.116V97.5366H330.138Z" fill="#4D5461"/>
<circle cx="304.069" cy="38.5226" r="23.8715" fill="#7065F0" stroke="#E0DEF7" stroke-width="1.14583"/>
<g clip-path="url(#clip0_354_4804)">
<path d="M296.94 38.5226H294.903L304.069 29.356L313.236 38.5226H311.199" stroke="white" stroke-width="2.29167" stroke-linecap="round" stroke-linejoin="round"/>
<path d="M296.94 38.5226V45.6522C296.94 46.1925 297.154 46.7106 297.536 47.0926C297.918 47.4746 298.436 47.6893 298.977 47.6893H309.162C309.702 47.6893 310.22 47.4746 310.602 47.0926C310.984 46.7106 311.199 46.1925 311.199 45.6522V38.5226" stroke="white" stroke-width="2.29167" stroke-linecap="round" stroke-linejoin="round"/>
<path d="M301.014 40.0505L303.051 42.0875L307.125 38.0134" stroke="white" stroke-width="2.29167" stroke-linecap="round" stroke-linejoin="round"/>
</g>
<defs>
<filter id="filter0_d_354_4804" x="0.805553" y="0.328136" width="390.347" height="161.944" filterUnits="userSpaceOnUse" color-interpolation-filters="sRGB">
<feFlood flood-opacity="0" result="BackgroundImageFix"/>
<feColorMatrix in="SourceAlpha" type="matrix" values="0 0 0 0 0 0 0 0 0 0 0 0 0 0 0 0 0 0 127 0" result="hardAlpha"/>
<feOffset/>
<feGaussianBlur stdDeviation="19.0972"/>
<feComposite in2="hardAlpha" operator="out"/>
<feColorMatrix type="matrix" values="0 0 0 0 0.439216 0 0 0 0 0.396078 0 0 0 0 0.941176 0 0 0 0.2 0"/>
<feBlend mode="normal" in2="BackgroundImageFix" result="effect1_dropShadow_354_4804"/>
<feBlend mode="normal" in="SourceGraphic" in2="effect1_dropShadow_354_4804" result="shape"/>
</filter>
<clipPath id="clip0_354_4804">
<rect width="24.4444" height="24.4444" fill="white" transform="translate(291.847 26.3003)"/>
</clipPath>
</defs>
</svg>
