<svg width="241" height="101" viewBox="0 0 241 101" fill="none" xmlns="http://www.w3.org/2000/svg">
<g filter="url(#filter0_d_354_4833)">
<rect x="24" y="24.052" width="193.324" height="52.6819" rx="3.76299" fill="white"/>
<rect x="24.3528" y="24.4048" width="192.618" height="51.9763" rx="3.41021" stroke="#E0DEF7" stroke-width="0.705561"/>
</g>
<path d="M41.5168 46.4818V43.3773L39.1555 39.4732H40.6136L42.4199 42.5213H41.9025L43.6993 39.4732H45.1575L42.8056 43.3679V46.4818H41.5168ZM47.428 46.5947C46.9263 46.5947 46.4685 46.4787 46.0545 46.2466C45.6469 46.0146 45.3208 45.6979 45.0762 45.2965C44.8378 44.8951 44.7187 44.4373 44.7187 43.923C44.7187 43.4087 44.8378 42.9509 45.0762 42.5495C45.3208 42.1481 45.6469 41.8314 46.0545 41.5993C46.4622 41.3673 46.92 41.2513 47.428 41.2513C47.9298 41.2513 48.3845 41.3673 48.7921 41.5993C49.1998 41.8314 49.5228 42.1481 49.7611 42.5495C50.0057 42.9446 50.128 43.4024 50.128 43.923C50.128 44.4373 50.0057 44.8951 49.7611 45.2965C49.5165 45.6979 49.1904 46.0146 48.7827 46.2466C48.3751 46.4787 47.9235 46.5947 47.428 46.5947ZM47.428 45.4658C47.704 45.4658 47.9454 45.4 48.1524 45.2682C48.3656 45.1365 48.5318 44.9547 48.651 44.7226C48.7764 44.4843 48.8392 44.2177 48.8392 43.923C48.8392 43.6219 48.7764 43.3585 48.651 43.1328C48.5318 42.9007 48.3656 42.7188 48.1524 42.5871C47.9454 42.4491 47.704 42.3802 47.428 42.3802C47.1458 42.3802 46.8981 42.4491 46.6848 42.5871C46.4716 42.7188 46.3023 42.9007 46.1768 43.1328C46.0577 43.3585 45.9981 43.6219 45.9981 43.923C45.9981 44.2177 46.0577 44.4843 46.1768 44.7226C46.3023 44.9547 46.4716 45.1365 46.6848 45.2682C46.8981 45.4 47.1458 45.4658 47.428 45.4658ZM52.8406 46.5947C52.4455 46.5947 52.1005 46.5069 51.8057 46.3313C51.5172 46.1557 51.2946 45.9111 51.1378 45.5975C50.9873 45.2839 50.912 44.917 50.912 44.4968V41.3641H52.1444V44.3934C52.1444 44.6066 52.1852 44.7947 52.2667 44.9578C52.3545 45.1146 52.4768 45.24 52.6336 45.3341C52.7967 45.4219 52.9785 45.4658 53.1792 45.4658C53.3799 45.4658 53.5587 45.4219 53.7155 45.3341C53.8723 45.24 53.9946 45.1115 54.0824 44.9484C54.1702 44.7853 54.2141 44.5909 54.2141 44.3651V41.3641H55.4464V46.4818H54.2799V45.4752L54.3834 45.654C54.2642 45.9675 54.0667 46.2027 53.7907 46.3595C53.521 46.5163 53.2043 46.5947 52.8406 46.5947ZM56.545 46.4818V41.3641H57.7021V42.5024L57.608 42.3331C57.7272 41.9505 57.9122 41.684 58.1631 41.5335C58.4202 41.383 58.7275 41.3077 59.085 41.3077H59.386V42.399H58.9439C58.5927 42.399 58.3105 42.5087 58.0972 42.7282C57.884 42.9415 57.7774 43.2425 57.7774 43.6313V46.4818H56.545ZM64.0687 46.5947C63.5419 46.5947 63.0809 46.4755 62.6858 46.2372C62.2907 45.9989 61.9834 45.6759 61.7639 45.2682C61.5443 44.8606 61.4346 44.409 61.4346 43.9136C61.4346 43.3993 61.5443 42.9446 61.7639 42.5495C61.9896 42.1481 62.2938 41.8314 62.6764 41.5993C63.0652 41.3673 63.498 41.2513 63.9746 41.2513C64.376 41.2513 64.7272 41.3171 65.0282 41.4488C65.3356 41.5805 65.5958 41.7624 65.8091 41.9944C66.0223 42.2265 66.1854 42.493 66.2983 42.7941C66.4111 43.0888 66.4676 43.4087 66.4676 43.7536C66.4676 43.8414 66.4613 43.9324 66.4488 44.0265C66.4425 44.1205 66.4268 44.2021 66.4017 44.2711H62.4506V43.3303H65.7056L65.1223 43.7725C65.1788 43.484 65.1631 43.2268 65.0753 43.001C64.9938 42.7753 64.8558 42.5965 64.6614 42.4648C64.4732 42.3331 64.2443 42.2673 63.9746 42.2673C63.7175 42.2673 63.4886 42.3331 63.2879 42.4648C63.0872 42.5903 62.9335 42.7784 62.8269 43.0293C62.7265 43.2739 62.6889 43.5718 62.714 43.923C62.6889 44.2366 62.7297 44.5156 62.8363 44.7602C62.9492 44.9986 63.1123 45.1836 63.3255 45.3153C63.545 45.447 63.7959 45.5128 64.0781 45.5128C64.3603 45.5128 64.5986 45.4533 64.7931 45.3341C64.9938 45.2149 65.1505 45.055 65.2634 44.8543L66.2606 45.3435C66.1603 45.5881 66.0035 45.8045 65.7903 45.9926C65.577 46.1808 65.323 46.3282 65.0282 46.4348C64.7397 46.5414 64.4199 46.5947 64.0687 46.5947ZM69.3021 46.5947C68.7565 46.5947 68.2798 46.4661 67.8722 46.209C67.4708 45.9456 67.1948 45.5912 67.0443 45.146L67.9662 44.7038C68.0979 44.9923 68.2798 45.2181 68.5119 45.3811C68.7502 45.5442 69.0136 45.6257 69.3021 45.6257C69.5279 45.6257 69.7066 45.5756 69.8383 45.4752C69.97 45.3749 70.0359 45.2432 70.0359 45.0801C70.0359 44.9798 70.0077 44.8982 69.9512 44.8355C69.901 44.7665 69.8289 44.7101 69.7348 44.6662C69.647 44.616 69.5498 44.5752 69.4432 44.5439L68.606 44.3087C68.1732 44.1833 67.8439 43.992 67.6182 43.7348C67.3987 43.4777 67.2889 43.1735 67.2889 42.8223C67.2889 42.5087 67.3673 42.2359 67.5241 42.0039C67.6872 41.7655 67.9098 41.5805 68.192 41.4488C68.4805 41.3171 68.8098 41.2513 69.1798 41.2513C69.6627 41.2513 70.0892 41.3673 70.4592 41.5993C70.8293 41.8314 71.0927 42.1575 71.2495 42.5777L70.3087 43.0199C70.2209 42.7878 70.0735 42.6028 69.8666 42.4648C69.6596 42.3268 69.4275 42.2579 69.1704 42.2579C68.9634 42.2579 68.8004 42.3049 68.6812 42.399C68.562 42.493 68.5025 42.6153 68.5025 42.7659C68.5025 42.8599 68.5276 42.9415 68.5777 43.0105C68.6279 43.0794 68.6969 43.1359 68.7847 43.1798C68.8788 43.2237 68.9854 43.2645 69.1045 43.3021L69.923 43.5467C70.3432 43.6721 70.6662 43.8603 70.892 44.1111C71.124 44.362 71.24 44.6693 71.24 45.0331C71.24 45.3404 71.1585 45.6132 70.9954 45.8515C70.8324 46.0836 70.6066 46.2654 70.3181 46.3971C70.0296 46.5288 69.6909 46.5947 69.3021 46.5947ZM74.4731 46.5383C73.8961 46.5383 73.4477 46.3815 73.1279 46.0679C72.8143 45.748 72.6575 45.2996 72.6575 44.7226V42.4648H71.7732V41.3641H71.8673C72.1181 41.3641 72.3125 41.2983 72.4505 41.1666C72.5885 41.0349 72.6575 40.8436 72.6575 40.5927V40.1976H73.8899V41.3641H75.0658V42.4648H73.8899V44.6568C73.8899 44.8261 73.9181 44.9703 73.9745 45.0895C74.0372 45.2087 74.1313 45.2996 74.2568 45.3623C74.3885 45.425 74.5547 45.4564 74.7554 45.4564C74.7993 45.4564 74.8494 45.4533 74.9059 45.447C74.9686 45.4407 75.0282 45.4344 75.0846 45.4282V46.4818C74.9968 46.4944 74.8965 46.5069 74.7836 46.5194C74.6707 46.532 74.5672 46.5383 74.4731 46.5383ZM77.513 46.5947C77.1555 46.5947 76.8451 46.5351 76.5817 46.416C76.3182 46.2968 76.1144 46.1275 75.9702 45.908C75.8259 45.6822 75.7538 45.4219 75.7538 45.1271C75.7538 44.8449 75.8165 44.594 75.9419 44.3745C76.0674 44.1488 76.2618 43.9606 76.5252 43.8101C76.7886 43.6596 77.121 43.553 77.5224 43.4902L79.1969 43.2174V44.1582L77.7576 44.4028C77.513 44.4467 77.3311 44.5251 77.212 44.6379C77.0928 44.7508 77.0332 44.8982 77.0332 45.0801C77.0332 45.2557 77.0991 45.3968 77.2308 45.5034C77.3687 45.6038 77.5381 45.654 77.7388 45.654C77.9959 45.654 78.2217 45.6006 78.4161 45.494C78.6168 45.3811 78.7705 45.2275 78.8771 45.0331C78.99 44.8386 79.0464 44.6254 79.0464 44.3934V43.0763C79.0464 42.8568 78.9586 42.6749 78.783 42.5307C78.6137 42.3802 78.3879 42.3049 78.1057 42.3049C77.8423 42.3049 77.6071 42.377 77.4001 42.5213C77.1994 42.6592 77.052 42.8443 76.958 43.0763L75.9514 42.5871C76.0517 42.3174 76.2085 42.0854 76.4217 41.891C76.6412 41.6903 76.8984 41.5335 77.1931 41.4206C77.4879 41.3077 77.8078 41.2513 78.1527 41.2513C78.5729 41.2513 78.9429 41.3297 79.2628 41.4864C79.5826 41.637 79.8304 41.8502 80.006 42.1262C80.1879 42.3958 80.2788 42.7125 80.2788 43.0763V46.4818H79.1123V45.6069L79.3757 45.5881C79.244 45.8076 79.0872 45.9926 78.9053 46.1431C78.7234 46.2874 78.5165 46.4003 78.2844 46.4818C78.0524 46.5571 77.7952 46.5947 77.513 46.5947ZM83.612 46.5383C83.035 46.5383 82.5866 46.3815 82.2667 46.0679C81.9531 45.748 81.7963 45.2996 81.7963 44.7226V42.4648H80.912V41.3641H81.0061C81.257 41.3641 81.4514 41.2983 81.5894 41.1666C81.7273 41.0349 81.7963 40.8436 81.7963 40.5927V40.1976H83.0287V41.3641H84.2046V42.4648H83.0287V44.6568C83.0287 44.8261 83.0569 44.9703 83.1134 45.0895C83.1761 45.2087 83.2702 45.2996 83.3956 45.3623C83.5273 45.425 83.6935 45.4564 83.8942 45.4564C83.9381 45.4564 83.9883 45.4533 84.0447 45.447C84.1074 45.4407 84.167 45.4344 84.2235 45.4282V46.4818C84.1357 46.4944 84.0353 46.5069 83.9224 46.5194C83.8095 46.532 83.7061 46.5383 83.612 46.5383ZM87.4992 46.5947C86.9724 46.5947 86.5114 46.4755 86.1163 46.2372C85.7212 45.9989 85.4138 45.6759 85.1943 45.2682C84.9748 44.8606 84.8651 44.409 84.8651 43.9136C84.8651 43.3993 84.9748 42.9446 85.1943 42.5495C85.4201 42.1481 85.7243 41.8314 86.1069 41.5993C86.4957 41.3673 86.9285 41.2513 87.4051 41.2513C87.8065 41.2513 88.1577 41.3171 88.4587 41.4488C88.766 41.5805 89.0263 41.7624 89.2396 41.9944C89.4528 42.2265 89.6159 42.493 89.7287 42.7941C89.8416 43.0888 89.8981 43.4087 89.8981 43.7536C89.8981 43.8414 89.8918 43.9324 89.8793 44.0265C89.873 44.1205 89.8573 44.2021 89.8322 44.2711H85.8811V43.3303H89.1361L88.5528 43.7725C88.6093 43.484 88.5936 43.2268 88.5058 43.001C88.4242 42.7753 88.2863 42.5965 88.0918 42.4648C87.9037 42.3331 87.6748 42.2673 87.4051 42.2673C87.148 42.2673 86.919 42.3331 86.7184 42.4648C86.5177 42.5903 86.364 42.7784 86.2574 43.0293C86.157 43.2739 86.1194 43.5718 86.1445 43.923C86.1194 44.2366 86.1602 44.5156 86.2668 44.7602C86.3797 44.9986 86.5427 45.1836 86.756 45.3153C86.9755 45.447 87.2264 45.5128 87.5086 45.5128C87.7908 45.5128 88.0291 45.4533 88.2235 45.3341C88.4242 45.2149 88.581 45.055 88.6939 44.8543L89.6911 45.3435C89.5908 45.5881 89.434 45.8045 89.2207 45.9926C89.0075 46.1808 88.7535 46.3282 88.4587 46.4348C88.1702 46.5414 87.8504 46.5947 87.4992 46.5947ZM91.1804 47.9494V47.3379C91.3873 47.2877 91.5535 47.1905 91.679 47.0463C91.8107 46.9083 91.8922 46.7201 91.9236 46.4818H91.3685V45.1648H92.6103V45.9738C92.6103 46.5257 92.488 46.9679 92.2434 47.3003C92.0051 47.6327 91.6507 47.849 91.1804 47.9494ZM97.6165 46.4818V43.3773L95.2553 39.4732H96.7134L98.5197 42.5213H98.0023L99.7991 39.4732H101.257L98.9054 43.3679V46.4818H97.6165ZM103.528 46.5947C103.026 46.5947 102.568 46.4787 102.154 46.2466C101.747 46.0146 101.421 45.6979 101.176 45.2965C100.938 44.8951 100.818 44.4373 100.818 43.923C100.818 43.4087 100.938 42.9509 101.176 42.5495C101.421 42.1481 101.747 41.8314 102.154 41.5993C102.562 41.3673 103.02 41.2513 103.528 41.2513C104.03 41.2513 104.484 41.3673 104.892 41.5993C105.3 41.8314 105.623 42.1481 105.861 42.5495C106.105 42.9446 106.228 43.4024 106.228 43.923C106.228 44.4373 106.105 44.8951 105.861 45.2965C105.616 45.6979 105.29 46.0146 104.882 46.2466C104.475 46.4787 104.023 46.5947 103.528 46.5947ZM103.528 45.4658C103.804 45.4658 104.045 45.4 104.252 45.2682C104.465 45.1365 104.632 44.9547 104.751 44.7226C104.876 44.4843 104.939 44.2177 104.939 43.923C104.939 43.6219 104.876 43.3585 104.751 43.1328C104.632 42.9007 104.465 42.7188 104.252 42.5871C104.045 42.4491 103.804 42.3802 103.528 42.3802C103.246 42.3802 102.998 42.4491 102.785 42.5871C102.571 42.7188 102.402 42.9007 102.277 43.1328C102.157 43.3585 102.098 43.6219 102.098 43.923C102.098 44.2177 102.157 44.4843 102.277 44.7226C102.402 44.9547 102.571 45.1365 102.785 45.2682C102.998 45.4 103.246 45.4658 103.528 45.4658ZM108.94 46.5947C108.545 46.5947 108.2 46.5069 107.906 46.3313C107.617 46.1557 107.394 45.9111 107.238 45.5975C107.087 45.2839 107.012 44.917 107.012 44.4968V41.3641H108.244V44.3934C108.244 44.6066 108.285 44.7947 108.366 44.9578C108.454 45.1146 108.577 45.24 108.733 45.3341C108.896 45.4219 109.078 45.4658 109.279 45.4658C109.48 45.4658 109.658 45.4219 109.815 45.3341C109.972 45.24 110.094 45.1115 110.182 44.9484C110.27 44.7853 110.314 44.5909 110.314 44.3651V41.3641H111.546V46.4818H110.38V45.4752L110.483 45.654C110.364 45.9675 110.166 46.2027 109.891 46.3595C109.621 46.5163 109.304 46.5947 108.94 46.5947ZM112.645 46.4818V41.3641H113.802V42.5024L113.708 42.3331C113.827 41.9505 114.012 41.684 114.263 41.5335C114.52 41.383 114.827 41.3077 115.185 41.3077H115.486V42.399H115.044C114.692 42.399 114.41 42.5087 114.197 42.7282C113.984 42.9415 113.877 43.2425 113.877 43.6313V46.4818H112.645ZM119.03 46.4818L117.271 41.3641H118.569L119.858 45.2494L119.406 45.24L120.78 41.3641H121.871L123.235 45.24L122.784 45.2494L124.073 41.3641H125.371L123.612 46.4818H122.511L121.119 42.4272H121.533L120.121 46.4818H119.03ZM127.368 46.5947C127.01 46.5947 126.7 46.5351 126.436 46.416C126.173 46.2968 125.969 46.1275 125.825 45.908C125.681 45.6822 125.609 45.4219 125.609 45.1271C125.609 44.8449 125.671 44.594 125.797 44.3745C125.922 44.1488 126.117 43.9606 126.38 43.8101C126.643 43.6596 126.976 43.553 127.377 43.4902L129.052 43.2174V44.1582L127.612 44.4028C127.368 44.4467 127.186 44.5251 127.067 44.6379C126.948 44.7508 126.888 44.8982 126.888 45.0801C126.888 45.2557 126.954 45.3968 127.086 45.5034C127.224 45.6038 127.393 45.654 127.594 45.654C127.851 45.654 128.077 45.6006 128.271 45.494C128.472 45.3811 128.625 45.2275 128.732 45.0331C128.845 44.8386 128.901 44.6254 128.901 44.3934V43.0763C128.901 42.8568 128.813 42.6749 128.638 42.5307C128.469 42.3802 128.243 42.3049 127.96 42.3049C127.697 42.3049 127.462 42.377 127.255 42.5213C127.054 42.6592 126.907 42.8443 126.813 43.0763L125.806 42.5871C125.907 42.3174 126.063 42.0854 126.277 41.891C126.496 41.6903 126.753 41.5335 127.048 41.4206C127.343 41.3077 127.663 41.2513 128.008 41.2513C128.428 41.2513 128.798 41.3297 129.118 41.4864C129.437 41.637 129.685 41.8502 129.861 42.1262C130.043 42.3958 130.134 42.7125 130.134 43.0763V46.4818H128.967V45.6069L129.231 45.5881C129.099 45.8076 128.942 45.9926 128.76 46.1431C128.578 46.2874 128.371 46.4003 128.139 46.4818C127.907 46.5571 127.65 46.5947 127.368 46.5947ZM131.847 48.5515C131.709 48.5515 131.574 48.5389 131.442 48.5138C131.31 48.495 131.191 48.4574 131.085 48.4009V47.3755C131.166 47.3943 131.263 47.4132 131.376 47.432C131.495 47.4508 131.605 47.4602 131.705 47.4602C131.988 47.4602 132.191 47.3943 132.317 47.2626C132.449 47.1372 132.565 46.9679 132.665 46.7546L133.004 45.9644L132.985 46.9992L130.755 41.3641H132.082L133.643 45.5222H133.173L134.725 41.3641H136.061L133.831 46.9992C133.7 47.3253 133.54 47.6044 133.352 47.8365C133.164 48.0685 132.944 48.2441 132.693 48.3633C132.449 48.4887 132.166 48.5515 131.847 48.5515Z" fill="#100A55"/>
<path d="M42.2731 60.5129C41.8768 60.5129 41.513 60.4427 41.1819 60.3022C40.8507 60.1567 40.5622 59.956 40.3164 59.7001C40.0755 59.4392 39.8874 59.1332 39.7519 58.7819C39.6165 58.4307 39.5487 58.0444 39.5487 57.6229C39.5487 57.2015 39.6165 56.8152 39.7519 56.4639C39.8874 56.1127 40.0755 55.8067 40.3164 55.5458C40.5622 55.2849 40.8507 55.0842 41.1819 54.9437C41.513 54.7982 41.8768 54.7254 42.2731 54.7254C42.6544 54.7254 42.9956 54.7932 43.2967 54.9286C43.6027 55.0641 43.8586 55.2397 44.0643 55.4555C44.275 55.6662 44.4256 55.8895 44.5159 56.1253L43.9514 56.3736C43.8109 56.0475 43.5952 55.7866 43.3042 55.5909C43.0182 55.3902 42.6745 55.2899 42.2731 55.2899C41.8617 55.2899 41.4954 55.3877 41.1743 55.5834C40.8532 55.7791 40.6024 56.0525 40.4217 56.4037C40.2411 56.7499 40.1508 57.1563 40.1508 57.6229C40.1508 58.0845 40.2411 58.4909 40.4217 58.8422C40.6024 59.1934 40.8532 59.4668 41.1743 59.6625C41.4954 59.8531 41.8617 59.9485 42.2731 59.9485C42.6745 59.9485 43.0182 59.8506 43.3042 59.655C43.5952 59.4593 43.8109 59.1984 43.9514 58.8723L44.5159 59.1206C44.4256 59.3514 44.275 59.5747 44.0643 59.7904C43.8586 60.0012 43.6027 60.1743 43.2967 60.3097C42.9956 60.4452 42.6544 60.5129 42.2731 60.5129ZM47.3267 60.5129C46.9454 60.5129 46.5992 60.4226 46.2881 60.242C45.977 60.0563 45.7287 59.8055 45.543 59.4894C45.3624 59.1683 45.2721 58.8045 45.2721 58.3981C45.2721 57.9967 45.3624 57.638 45.543 57.3219C45.7237 57.0058 45.967 56.7575 46.2731 56.5768C46.5841 56.3912 46.9353 56.2984 47.3267 56.2984C47.7181 56.2984 48.0668 56.3887 48.3728 56.5693C48.6839 56.7499 48.9272 56.9983 49.1028 57.3144C49.2835 57.6305 49.3738 57.9917 49.3738 58.3981C49.3738 58.8095 49.2809 59.1758 49.0953 59.4969C48.9097 59.813 48.6613 60.0614 48.3502 60.242C48.0442 60.4226 47.703 60.5129 47.3267 60.5129ZM47.3267 59.9485C47.5976 59.9485 47.841 59.8807 48.0567 59.7453C48.2775 59.6098 48.4506 59.4242 48.576 59.1883C48.7065 58.9525 48.7717 58.6891 48.7717 58.3981C48.7717 58.1071 48.7065 57.8462 48.576 57.6154C48.4506 57.3846 48.2775 57.2015 48.0567 57.066C47.841 56.9306 47.5976 56.8628 47.3267 56.8628C47.0558 56.8628 46.8099 56.9306 46.5892 57.066C46.3734 57.2015 46.2003 57.3846 46.0699 57.6154C45.9394 57.8462 45.8742 58.1071 45.8742 58.3981C45.8742 58.6891 45.9394 58.9525 46.0699 59.1883C46.2003 59.4242 46.3734 59.6098 46.5892 59.7453C46.8099 59.8807 47.0558 59.9485 47.3267 59.9485ZM50.3693 60.4226V56.3887H50.9337V57.1714L50.8058 57.1413C50.9061 56.8804 51.0692 56.6747 51.2949 56.5241C51.5257 56.3736 51.7917 56.2984 52.0927 56.2984C52.3787 56.2984 52.6346 56.3636 52.8604 56.494C53.0911 56.6245 53.2718 56.8051 53.4022 57.0359C53.5377 57.2617 53.6054 57.5176 53.6054 57.8036V60.4226H53.041V58.0218C53.041 57.776 52.9958 57.5678 52.9055 57.3972C52.8202 57.2266 52.6973 57.0961 52.5367 57.0058C52.3812 56.9105 52.2006 56.8628 51.9949 56.8628C51.7892 56.8628 51.606 56.9105 51.4455 57.0058C51.2849 57.0961 51.1595 57.2291 51.0692 57.4047C50.9789 57.5753 50.9337 57.781 50.9337 58.0218V60.4226H50.3693ZM54.6835 60.4226V56.3887H55.2479V57.1714L55.12 57.1413C55.2203 56.8804 55.3834 56.6747 55.6092 56.5241C55.84 56.3736 56.1059 56.2984 56.4069 56.2984C56.6929 56.2984 56.9488 56.3636 57.1746 56.494C57.4054 56.6245 57.586 56.8051 57.7164 57.0359C57.8519 57.2617 57.9196 57.5176 57.9196 57.8036V60.4226H57.3552V58.0218C57.3552 57.776 57.31 57.5678 57.2197 57.3972C57.1344 57.2266 57.0115 57.0961 56.8509 57.0058C56.6954 56.9105 56.5148 56.8628 56.3091 56.8628C56.1034 56.8628 55.9202 56.9105 55.7597 57.0058C55.5991 57.0961 55.4737 57.2291 55.3834 57.4047C55.2931 57.5753 55.2479 57.781 55.2479 58.0218V60.4226H54.6835ZM60.834 60.5129C60.4577 60.5129 60.1165 60.4226 59.8105 60.242C59.5094 60.0563 59.2711 59.803 59.0955 59.4819C58.9199 59.1608 58.8321 58.797 58.8321 58.3906C58.8321 57.9842 58.9174 57.6255 59.088 57.3144C59.2586 56.9983 59.4894 56.7499 59.7804 56.5693C60.0764 56.3887 60.4075 56.2984 60.7738 56.2984C61.0648 56.2984 61.3232 56.3536 61.549 56.4639C61.7798 56.5693 61.9755 56.7148 62.136 56.9004C62.2966 57.0811 62.4195 57.2868 62.5048 57.5176C62.5901 57.7434 62.6327 57.9767 62.6327 58.2175C62.6327 58.2677 62.6302 58.3254 62.6252 58.3906C62.6202 58.4508 62.6127 58.5135 62.6026 58.5787H59.1933V58.0519H62.279L62.0081 58.2777C62.0532 58.0018 62.0206 57.7559 61.9102 57.5402C61.8049 57.3194 61.6518 57.1463 61.4511 57.0209C61.2504 56.8904 61.0247 56.8252 60.7738 56.8252C60.5229 56.8252 60.2896 56.8904 60.0739 57.0209C59.8632 57.1513 59.6976 57.3344 59.5772 57.5703C59.4568 57.8011 59.4091 58.077 59.4342 58.3981C59.4091 58.7192 59.4593 59.0002 59.5847 59.241C59.7151 59.4768 59.8908 59.66 60.1115 59.7904C60.3373 59.9209 60.5781 59.9861 60.834 59.9861C61.13 59.9861 61.3784 59.9159 61.5791 59.7754C61.7798 59.6349 61.9428 59.4593 62.0683 59.2486L62.5499 59.5044C62.4697 59.6851 62.3467 59.8531 62.1812 60.0087C62.0156 60.1592 61.8174 60.2821 61.5866 60.3775C61.3608 60.4678 61.11 60.5129 60.834 60.5129ZM65.4718 60.5129C65.0754 60.5129 64.7267 60.4201 64.4257 60.2345C64.1246 60.0488 63.8888 59.798 63.7182 59.4819C63.5476 59.1608 63.4623 58.7995 63.4623 58.3981C63.4623 57.9967 63.5476 57.638 63.7182 57.3219C63.8888 57.0058 64.1246 56.7575 64.4257 56.5768C64.7267 56.3912 65.0754 56.2984 65.4718 56.2984C65.7226 56.2984 65.9585 56.3435 66.1792 56.4338C66.4 56.5241 66.5957 56.6471 66.7662 56.8026C66.9368 56.9531 67.0648 57.1287 67.1501 57.3294L66.6383 57.5928C66.538 57.3771 66.3849 57.2015 66.1792 57.066C65.9735 56.9306 65.7377 56.8628 65.4718 56.8628C65.2059 56.8628 64.965 56.9306 64.7493 57.066C64.5386 57.1965 64.3705 57.3796 64.245 57.6154C64.1246 57.8462 64.0644 58.1096 64.0644 58.4056C64.0644 58.6966 64.1246 58.9601 64.245 59.1959C64.3705 59.4267 64.5386 59.6098 64.7493 59.7453C64.965 59.8807 65.2059 59.9485 65.4718 59.9485C65.7377 59.9485 65.971 59.8807 66.1717 59.7453C66.3774 59.6098 66.5329 59.4292 66.6383 59.2034L67.1501 59.4819C67.0648 59.6775 66.9368 59.8531 66.7662 60.0087C66.5957 60.1642 66.4 60.2871 66.1792 60.3775C65.9585 60.4678 65.7226 60.5129 65.4718 60.5129ZM69.6834 60.4678C69.3221 60.4678 69.0437 60.3624 68.848 60.1517C68.6523 59.9409 68.5545 59.6399 68.5545 59.2486V56.9531H67.8094V56.3887H67.9976C68.1682 56.3887 68.3036 56.3335 68.404 56.2231C68.5043 56.1077 68.5545 55.9647 68.5545 55.7941V55.4555H69.1189V56.3887H70.007V56.9531H69.1189V59.2486C69.1189 59.384 69.139 59.5044 69.1791 59.6098C69.2193 59.7101 69.287 59.7904 69.3823 59.8506C69.4827 59.9108 69.6157 59.9409 69.7812 59.9409C69.8214 59.9409 69.869 59.9384 69.9242 59.9334C69.9794 59.9284 70.0271 59.9234 70.0672 59.9184V60.4226C70.007 60.4377 69.9393 60.4477 69.864 60.4527C69.7888 60.4627 69.7285 60.4678 69.6834 60.4678ZM73.2252 60.4226L71.8405 56.3887H72.4802L73.6241 59.9184H73.3983L74.4746 56.3887H75.039L76.1152 59.9184H75.8894L77.0409 56.3887H77.6731L76.2883 60.4226H75.7239L74.6778 56.9682H74.8358L73.7897 60.4226H73.2252ZM78.3344 60.4226V56.3887H78.8989V60.4226H78.3344ZM78.3344 55.6436V54.8158H78.8989V55.6436H78.3344ZM81.5971 60.4678C81.2358 60.4678 80.9574 60.3624 80.7617 60.1517C80.566 59.9409 80.4682 59.6399 80.4682 59.2486V56.9531H79.7231V56.3887H79.9113C80.0818 56.3887 80.2173 56.3335 80.3177 56.2231C80.418 56.1077 80.4682 55.9647 80.4682 55.7941V55.4555H81.0326V56.3887H81.9207V56.9531H81.0326V59.2486C81.0326 59.384 81.0527 59.5044 81.0928 59.6098C81.133 59.7101 81.2007 59.7904 81.296 59.8506C81.3964 59.9108 81.5293 59.9409 81.6949 59.9409C81.735 59.9409 81.7827 59.9384 81.8379 59.9334C81.8931 59.9284 81.9408 59.9234 81.9809 59.9184V60.4226C81.9207 60.4377 81.853 60.4477 81.7777 60.4527C81.7024 60.4627 81.6422 60.4678 81.5971 60.4678ZM82.972 60.4226V54.7254H83.5365V57.1714L83.4085 57.1413C83.5089 56.8804 83.6719 56.6747 83.8977 56.5241C84.1285 56.3736 84.3944 56.2984 84.6955 56.2984C84.9815 56.2984 85.2374 56.3636 85.4631 56.494C85.6939 56.6245 85.8746 56.8051 86.005 57.0359C86.1405 57.2617 86.2082 57.5176 86.2082 57.8036V60.4226H85.6438V58.0218C85.6438 57.776 85.5986 57.5678 85.5083 57.3972C85.418 57.2266 85.2925 57.0961 85.132 57.0058C84.9765 56.9105 84.7983 56.8628 84.5976 56.8628C84.397 56.8628 84.2163 56.9105 84.0558 57.0058C83.8952 57.0961 83.7673 57.2291 83.6719 57.4047C83.5816 57.5753 83.5365 57.781 83.5365 58.0218V60.4226H82.972ZM88.6479 62.0783C88.5676 62.0783 88.4848 62.0708 88.3995 62.0557C88.3192 62.0457 88.2389 62.0256 88.1587 61.9955V61.4687C88.2088 61.4737 88.2716 61.4813 88.3468 61.4913C88.4271 61.5063 88.5074 61.5139 88.5877 61.5139C88.8335 61.5139 89.0216 61.4612 89.1521 61.3558C89.2826 61.2555 89.4105 61.0598 89.5359 60.7688L89.7918 60.1667L89.7768 60.6634L88.0684 56.3887H88.678L90.0778 59.9184H89.9197L91.3121 56.3887H91.9367L90.0928 60.9344C90.0126 61.13 89.9097 61.3157 89.7843 61.4913C89.6639 61.6669 89.5108 61.8074 89.3252 61.9128C89.1396 62.0231 88.9138 62.0783 88.6479 62.0783ZM94.4155 60.5129C94.0342 60.5129 93.688 60.4226 93.3769 60.242C93.0659 60.0563 92.8175 59.8055 92.6319 59.4894C92.4512 59.1683 92.3609 58.8045 92.3609 58.3981C92.3609 57.9967 92.4512 57.638 92.6319 57.3219C92.8125 57.0058 93.0558 56.7575 93.3619 56.5768C93.673 56.3912 94.0242 56.2984 94.4155 56.2984C94.8069 56.2984 95.1556 56.3887 95.4616 56.5693C95.7727 56.7499 96.016 56.9983 96.1917 57.3144C96.3723 57.6305 96.4626 57.9917 96.4626 58.3981C96.4626 58.8095 96.3698 59.1758 96.1841 59.4969C95.9985 59.813 95.7501 60.0614 95.4391 60.242C95.133 60.4226 94.7918 60.5129 94.4155 60.5129ZM94.4155 59.9485C94.6865 59.9485 94.9298 59.8807 95.1455 59.7453C95.3663 59.6098 95.5394 59.4242 95.6648 59.1883C95.7953 58.9525 95.8605 58.6891 95.8605 58.3981C95.8605 58.1071 95.7953 57.8462 95.6648 57.6154C95.5394 57.3846 95.3663 57.2015 95.1455 57.066C94.9298 56.9306 94.6865 56.8628 94.4155 56.8628C94.1446 56.8628 93.8987 56.9306 93.678 57.066C93.4622 57.2015 93.2891 57.3846 93.1587 57.6154C93.0282 57.8462 92.963 58.1071 92.963 58.3981C92.963 58.6891 93.0282 58.9525 93.1587 59.1883C93.2891 59.4242 93.4622 59.6098 93.678 59.7453C93.8987 59.8807 94.1446 59.9485 94.4155 59.9485ZM98.888 60.5129C98.607 60.5129 98.3512 60.4477 98.1204 60.3172C97.8896 60.1818 97.7064 59.9961 97.571 59.7603C97.4405 59.5195 97.3753 59.2435 97.3753 58.9325V56.3887H97.9397V58.8647C97.9397 59.0805 97.9824 59.2711 98.0677 59.4367C98.158 59.5973 98.2809 59.7227 98.4365 59.813C98.597 59.9033 98.7801 59.9485 98.9858 59.9485C99.1916 59.9485 99.3747 59.9033 99.5352 59.813C99.6958 59.7177 99.8212 59.5847 99.9115 59.4141C100.002 59.2385 100.047 59.0303 100.047 58.7895V56.3887H100.611V60.4226H100.047V59.6399L100.175 59.67C100.08 59.9309 99.9166 60.1366 99.6858 60.2871C99.455 60.4377 99.1891 60.5129 98.888 60.5129ZM101.772 60.4226V56.3887H102.337V57.051L102.261 56.9531C102.357 56.7625 102.5 56.612 102.69 56.5016C102.886 56.3912 103.122 56.336 103.398 56.336H103.654V56.9004H103.3C103.009 56.9004 102.776 56.9908 102.6 57.1714C102.425 57.352 102.337 57.6079 102.337 57.939V60.4226H101.772ZM107.438 60.5129C107.042 60.5129 106.693 60.4201 106.392 60.2345C106.091 60.0488 105.855 59.798 105.684 59.4819C105.514 59.1608 105.429 58.7995 105.429 58.3981C105.429 57.9967 105.514 57.638 105.684 57.3219C105.855 57.0058 106.091 56.7575 106.392 56.5768C106.693 56.3912 107.042 56.2984 107.438 56.2984C107.689 56.2984 107.925 56.3435 108.145 56.4338C108.366 56.5241 108.562 56.6471 108.732 56.8026C108.903 56.9531 109.031 57.1287 109.116 57.3294L108.604 57.5928C108.504 57.3771 108.351 57.2015 108.145 57.066C107.94 56.9306 107.704 56.8628 107.438 56.8628C107.172 56.8628 106.931 56.9306 106.715 57.066C106.505 57.1965 106.337 57.3796 106.211 57.6154C106.091 57.8462 106.031 58.1096 106.031 58.4056C106.031 58.6966 106.091 58.9601 106.211 59.1959C106.337 59.4267 106.505 59.6098 106.715 59.7453C106.931 59.8807 107.172 59.9485 107.438 59.9485C107.704 59.9485 107.937 59.8807 108.138 59.7453C108.344 59.6098 108.499 59.4292 108.604 59.2034L109.116 59.4819C109.031 59.6775 108.903 59.8531 108.732 60.0087C108.562 60.1642 108.366 60.2871 108.145 60.3775C107.925 60.4678 107.689 60.5129 107.438 60.5129ZM111.996 60.5129C111.614 60.5129 111.268 60.4226 110.957 60.242C110.646 60.0563 110.398 59.8055 110.212 59.4894C110.031 59.1683 109.941 58.8045 109.941 58.3981C109.941 57.9967 110.031 57.638 110.212 57.3219C110.393 57.0058 110.636 56.7575 110.942 56.5768C111.253 56.3912 111.604 56.2984 111.996 56.2984C112.387 56.2984 112.736 56.3887 113.042 56.5693C113.353 56.7499 113.596 56.9983 113.772 57.3144C113.952 57.6305 114.043 57.9917 114.043 58.3981C114.043 58.8095 113.95 59.1758 113.764 59.4969C113.579 59.813 113.33 60.0614 113.019 60.242C112.713 60.4226 112.372 60.5129 111.996 60.5129ZM111.996 59.9485C112.267 59.9485 112.51 59.8807 112.726 59.7453C112.947 59.6098 113.12 59.4242 113.245 59.1883C113.376 58.9525 113.441 58.6891 113.441 58.3981C113.441 58.1071 113.376 57.8462 113.245 57.6154C113.12 57.3846 112.947 57.2015 112.726 57.066C112.51 56.9306 112.267 56.8628 111.996 56.8628C111.725 56.8628 111.479 56.9306 111.258 57.066C111.042 57.2015 110.869 57.3846 110.739 57.6154C110.608 57.8462 110.543 58.1071 110.543 58.3981C110.543 58.6891 110.608 58.9525 110.739 59.1883C110.869 59.4242 111.042 59.6098 111.258 59.7453C111.479 59.8807 111.725 59.9485 111.996 59.9485ZM115.038 60.4226V56.3887H115.603V57.1563L115.512 57.0434C115.623 56.8076 115.786 56.6245 116.002 56.494C116.222 56.3636 116.463 56.2984 116.724 56.2984C117.035 56.2984 117.316 56.3862 117.567 56.5618C117.818 56.7374 117.996 56.9657 118.101 57.2466L117.943 57.2542C118.044 56.9431 118.217 56.7073 118.463 56.5467C118.713 56.3812 118.989 56.2984 119.29 56.2984C119.561 56.2984 119.81 56.3636 120.036 56.494C120.266 56.6245 120.449 56.8051 120.585 57.0359C120.725 57.2617 120.796 57.5176 120.796 57.8036V60.4226H120.231V58.0218C120.231 57.776 120.186 57.5678 120.096 57.3972C120.01 57.2266 119.893 57.0961 119.742 57.0058C119.592 56.9105 119.418 56.8628 119.223 56.8628C119.032 56.8628 118.859 56.9105 118.703 57.0058C118.548 57.0961 118.425 57.2291 118.335 57.4047C118.244 57.5753 118.199 57.781 118.199 58.0218V60.4226H117.635V58.0218C117.635 57.776 117.59 57.5678 117.499 57.3972C117.414 57.2266 117.296 57.0961 117.146 57.0058C116.995 56.9105 116.822 56.8628 116.626 56.8628C116.431 56.8628 116.255 56.9105 116.099 57.0058C115.949 57.0961 115.829 57.2291 115.738 57.4047C115.648 57.5753 115.603 57.781 115.603 58.0218V60.4226H115.038ZM121.873 60.4226V56.3887H122.438V57.1563L122.348 57.0434C122.458 56.8076 122.621 56.6245 122.837 56.494C123.058 56.3636 123.298 56.2984 123.559 56.2984C123.87 56.2984 124.151 56.3862 124.402 56.5618C124.653 56.7374 124.831 56.9657 124.936 57.2466L124.778 57.2542C124.879 56.9431 125.052 56.7073 125.298 56.5467C125.549 56.3812 125.825 56.2984 126.126 56.2984C126.397 56.2984 126.645 56.3636 126.871 56.494C127.101 56.6245 127.285 56.8051 127.42 57.0359C127.561 57.2617 127.631 57.5176 127.631 57.8036V60.4226H127.066V58.0218C127.066 57.776 127.021 57.5678 126.931 57.3972C126.846 57.2266 126.728 57.0961 126.577 57.0058C126.427 56.9105 126.254 56.8628 126.058 56.8628C125.867 56.8628 125.694 56.9105 125.539 57.0058C125.383 57.0961 125.26 57.2291 125.17 57.4047C125.079 57.5753 125.034 57.781 125.034 58.0218V60.4226H124.47V58.0218C124.47 57.776 124.425 57.5678 124.334 57.3972C124.249 57.2266 124.131 57.0961 123.981 57.0058C123.83 56.9105 123.657 56.8628 123.461 56.8628C123.266 56.8628 123.09 56.9105 122.935 57.0058C122.784 57.0961 122.664 57.2291 122.573 57.4047C122.483 57.5753 122.438 57.781 122.438 58.0218V60.4226H121.873ZM130.138 60.5129C129.857 60.5129 129.602 60.4477 129.371 60.3172C129.14 60.1818 128.957 59.9961 128.821 59.7603C128.691 59.5195 128.626 59.2435 128.626 58.9325V56.3887H129.19V58.8647C129.19 59.0805 129.233 59.2711 129.318 59.4367C129.408 59.5973 129.531 59.7227 129.687 59.813C129.847 59.9033 130.031 59.9485 130.236 59.9485C130.442 59.9485 130.625 59.9033 130.786 59.813C130.946 59.7177 131.072 59.5847 131.162 59.4141C131.252 59.2385 131.297 59.0303 131.297 58.7895V56.3887H131.862V60.4226H131.297V59.6399L131.425 59.67C131.33 59.9309 131.167 60.1366 130.936 60.2871C130.705 60.4377 130.44 60.5129 130.138 60.5129ZM133.023 60.4226V56.3887H133.587V57.1714L133.459 57.1413C133.56 56.8804 133.723 56.6747 133.948 56.5241C134.179 56.3736 134.445 56.2984 134.746 56.2984C135.032 56.2984 135.288 56.3636 135.514 56.494C135.745 56.6245 135.925 56.8051 136.056 57.0359C136.191 57.2617 136.259 57.5176 136.259 57.8036V60.4226H135.694V58.0218C135.694 57.776 135.649 57.5678 135.559 57.3972C135.474 57.2266 135.351 57.0961 135.19 57.0058C135.035 56.9105 134.854 56.8628 134.648 56.8628C134.443 56.8628 134.26 56.9105 134.099 57.0058C133.938 57.0961 133.813 57.2291 133.723 57.4047C133.632 57.5753 133.587 57.781 133.587 58.0218V60.4226H133.023ZM137.337 60.4226V56.3887H137.901V60.4226H137.337ZM137.337 55.6436V54.8158H137.901V55.6436H137.337ZM140.6 60.4678C140.238 60.4678 139.96 60.3624 139.764 60.1517C139.569 59.9409 139.471 59.6399 139.471 59.2486V56.9531H138.726V56.3887H138.914C139.084 56.3887 139.22 56.3335 139.32 56.2231C139.421 56.1077 139.471 55.9647 139.471 55.7941V55.4555H140.035V56.3887H140.923V56.9531H140.035V59.2486C140.035 59.384 140.055 59.5044 140.095 59.6098C140.135 59.7101 140.203 59.7904 140.299 59.8506C140.399 59.9108 140.532 59.9409 140.697 59.9409C140.738 59.9409 140.785 59.9384 140.84 59.9334C140.896 59.9284 140.943 59.9234 140.983 59.9184V60.4226C140.923 60.4377 140.855 60.4477 140.78 60.4527C140.705 60.4627 140.645 60.4678 140.6 60.4678ZM142.057 62.0783C141.977 62.0783 141.894 62.0708 141.809 62.0557C141.729 62.0457 141.648 62.0256 141.568 61.9955V61.4687C141.618 61.4737 141.681 61.4813 141.756 61.4913C141.837 61.5063 141.917 61.5139 141.997 61.5139C142.243 61.5139 142.431 61.4612 142.562 61.3558C142.692 61.2555 142.82 61.0598 142.945 60.7688L143.201 60.1667L143.186 60.6634L141.478 56.3887H142.087L143.487 59.9184H143.329L144.722 56.3887H145.346L143.502 60.9344C143.422 61.13 143.319 61.3157 143.194 61.4913C143.073 61.6669 142.92 61.8074 142.735 61.9128C142.549 62.0231 142.323 62.0783 142.057 62.0783ZM145.731 61.401V61.1376C145.881 61.0974 145.992 61.0197 146.062 60.9043C146.132 60.7889 146.167 60.6283 146.167 60.4226H145.881V59.5947H146.483V60.2269C146.483 60.5531 146.421 60.814 146.295 61.0096C146.17 61.2103 145.982 61.3408 145.731 61.401ZM150.852 60.5129C150.475 60.5129 150.134 60.4226 149.828 60.242C149.527 60.0563 149.289 59.803 149.113 59.4819C148.938 59.1608 148.85 58.797 148.85 58.3906C148.85 57.9842 148.935 57.6255 149.106 57.3144C149.276 56.9983 149.507 56.7499 149.798 56.5693C150.094 56.3887 150.425 56.2984 150.792 56.2984C151.083 56.2984 151.341 56.3536 151.567 56.4639C151.798 56.5693 151.993 56.7148 152.154 56.9004C152.314 57.0811 152.437 57.2868 152.523 57.5176C152.608 57.7434 152.651 57.9767 152.651 58.2175C152.651 58.2677 152.648 58.3254 152.643 58.3906C152.638 58.4508 152.63 58.5135 152.62 58.5787H149.211V58.0519H152.297L152.026 58.2777C152.071 58.0018 152.038 57.7559 151.928 57.5402C151.823 57.3194 151.67 57.1463 151.469 57.0209C151.268 56.8904 151.042 56.8252 150.792 56.8252C150.541 56.8252 150.307 56.8904 150.092 57.0209C149.881 57.1513 149.715 57.3344 149.595 57.5703C149.475 57.8011 149.427 58.077 149.452 58.3981C149.427 58.7192 149.477 59.0002 149.602 59.241C149.733 59.4768 149.909 59.66 150.129 59.7904C150.355 59.9209 150.596 59.9861 150.852 59.9861C151.148 59.9861 151.396 59.9159 151.597 59.7754C151.798 59.6349 151.961 59.4593 152.086 59.2486L152.568 59.5044C152.487 59.6851 152.365 59.8531 152.199 60.0087C152.033 60.1592 151.835 60.2821 151.604 60.3775C151.379 60.4678 151.128 60.5129 150.852 60.5129ZM153.646 60.4226V56.3887H154.21V57.1714L154.082 57.1413C154.183 56.8804 154.346 56.6747 154.571 56.5241C154.802 56.3736 155.068 56.2984 155.369 56.2984C155.655 56.2984 155.911 56.3636 156.137 56.494C156.368 56.6245 156.548 56.8051 156.679 57.0359C156.814 57.2617 156.882 57.5176 156.882 57.8036V60.4226H156.317V58.0218C156.317 57.776 156.272 57.5678 156.182 57.3972C156.097 57.2266 155.974 57.0961 155.813 57.0058C155.658 56.9105 155.477 56.8628 155.271 56.8628C155.066 56.8628 154.882 56.9105 154.722 57.0058C154.561 57.0961 154.436 57.2291 154.346 57.4047C154.255 57.5753 154.21 57.781 154.21 58.0218V60.4226H153.646ZM157.96 60.4226V54.7254H158.524V57.1714L158.396 57.1413C158.497 56.8804 158.66 56.6747 158.886 56.5241C159.116 56.3736 159.382 56.2984 159.683 56.2984C159.969 56.2984 160.225 56.3636 160.451 56.494C160.682 56.6245 160.862 56.8051 160.993 57.0359C161.128 57.2617 161.196 57.5176 161.196 57.8036V60.4226H160.632V58.0218C160.632 57.776 160.586 57.5678 160.496 57.3972C160.406 57.2266 160.28 57.0961 160.12 57.0058C159.964 56.9105 159.786 56.8628 159.586 56.8628C159.385 56.8628 159.204 56.9105 159.044 57.0058C158.883 57.0961 158.755 57.2291 158.66 57.4047C158.57 57.5753 158.524 57.781 158.524 58.0218V60.4226H157.96ZM163.441 60.5129C163.185 60.5129 162.956 60.4653 162.756 60.3699C162.555 60.2696 162.397 60.1341 162.282 59.9635C162.166 59.7929 162.109 59.5973 162.109 59.3765C162.109 59.1658 162.154 58.9751 162.244 58.8045C162.334 58.6289 162.475 58.4809 162.665 58.3605C162.856 58.2401 163.099 58.1548 163.395 58.1046L164.976 57.8412V58.353L163.531 58.5938C163.24 58.644 163.029 58.7368 162.899 58.8723C162.773 59.0077 162.711 59.1683 162.711 59.3539C162.711 59.5345 162.781 59.6876 162.921 59.813C163.067 59.9384 163.252 60.0012 163.478 60.0012C163.754 60.0012 163.995 59.9435 164.201 59.8281C164.406 59.7076 164.567 59.5471 164.682 59.3464C164.798 59.1457 164.856 58.9224 164.856 58.6766V57.653C164.856 57.4122 164.768 57.2165 164.592 57.066C164.417 56.9155 164.188 56.8402 163.907 56.8402C163.661 56.8402 163.446 56.903 163.26 57.0284C163.074 57.1488 162.936 57.3069 162.846 57.5025L162.334 57.2241C162.41 57.0535 162.527 56.8979 162.688 56.7575C162.854 56.617 163.042 56.5066 163.252 56.4263C163.463 56.341 163.681 56.2984 163.907 56.2984C164.203 56.2984 164.464 56.3561 164.69 56.4715C164.921 56.5869 165.099 56.7474 165.224 56.9531C165.355 57.1538 165.42 57.3871 165.42 57.653V60.4226H164.856V59.6173L164.938 59.7001C164.868 59.8506 164.758 59.9886 164.607 60.114C164.462 60.2345 164.289 60.3323 164.088 60.4076C163.892 60.4778 163.676 60.5129 163.441 60.5129ZM166.581 60.4226V56.3887H167.145V57.1714L167.017 57.1413C167.118 56.8804 167.281 56.6747 167.507 56.5241C167.737 56.3736 168.003 56.2984 168.304 56.2984C168.59 56.2984 168.846 56.3636 169.072 56.494C169.303 56.6245 169.483 56.8051 169.614 57.0359C169.749 57.2617 169.817 57.5176 169.817 57.8036V60.4226H169.253V58.0218C169.253 57.776 169.208 57.5678 169.117 57.3972C169.032 57.2266 168.909 57.0961 168.748 57.0058C168.593 56.9105 168.412 56.8628 168.207 56.8628C168.001 56.8628 167.818 56.9105 167.657 57.0058C167.497 57.0961 167.371 57.2291 167.281 57.4047C167.191 57.5753 167.145 57.781 167.145 58.0218V60.4226H166.581ZM172.739 60.5129C172.343 60.5129 171.994 60.4201 171.693 60.2345C171.392 60.0488 171.156 59.798 170.985 59.4819C170.815 59.1608 170.73 58.7995 170.73 58.3981C170.73 57.9967 170.815 57.638 170.985 57.3219C171.156 57.0058 171.392 56.7575 171.693 56.5768C171.994 56.3912 172.343 56.2984 172.739 56.2984C172.99 56.2984 173.226 56.3435 173.446 56.4338C173.667 56.5241 173.863 56.6471 174.034 56.8026C174.204 56.9531 174.332 57.1287 174.417 57.3294L173.906 57.5928C173.805 57.3771 173.652 57.2015 173.446 57.066C173.241 56.9306 173.005 56.8628 172.739 56.8628C172.473 56.8628 172.232 56.9306 172.017 57.066C171.806 57.1965 171.638 57.3796 171.512 57.6154C171.392 57.8462 171.332 58.1096 171.332 58.4056C171.332 58.6966 171.392 58.9601 171.512 59.1959C171.638 59.4267 171.806 59.6098 172.017 59.7453C172.232 59.8807 172.473 59.9485 172.739 59.9485C173.005 59.9485 173.238 59.8807 173.439 59.7453C173.645 59.6098 173.8 59.4292 173.906 59.2034L174.417 59.4819C174.332 59.6775 174.204 59.8531 174.034 60.0087C173.863 60.1642 173.667 60.2871 173.446 60.3775C173.226 60.4678 172.99 60.5129 172.739 60.5129ZM177.244 60.5129C176.868 60.5129 176.527 60.4226 176.221 60.242C175.92 60.0563 175.681 59.803 175.506 59.4819C175.33 59.1608 175.242 58.797 175.242 58.3906C175.242 57.9842 175.328 57.6255 175.498 57.3144C175.669 56.9983 175.9 56.7499 176.191 56.5693C176.487 56.3887 176.818 56.2984 177.184 56.2984C177.475 56.2984 177.733 56.3536 177.959 56.4639C178.19 56.5693 178.386 56.7148 178.546 56.9004C178.707 57.0811 178.83 57.2868 178.915 57.5176C179 57.7434 179.043 57.9767 179.043 58.2175C179.043 58.2677 179.04 58.3254 179.035 58.3906C179.03 58.4508 179.023 58.5135 179.013 58.5787H175.603V58.0519H178.689L178.418 58.2777C178.463 58.0018 178.431 57.7559 178.32 57.5402C178.215 57.3194 178.062 57.1463 177.861 57.0209C177.661 56.8904 177.435 56.8252 177.184 56.8252C176.933 56.8252 176.7 56.8904 176.484 57.0209C176.273 57.1513 176.108 57.3344 175.987 57.5703C175.867 57.8011 175.819 58.077 175.844 58.3981C175.819 58.7192 175.869 59.0002 175.995 59.241C176.125 59.4768 176.301 59.66 176.522 59.7904C176.747 59.9209 176.988 59.9861 177.244 59.9861C177.54 59.9861 177.789 59.9159 177.989 59.7754C178.19 59.6349 178.353 59.4593 178.478 59.2486L178.96 59.5044C178.88 59.6851 178.757 59.8531 178.591 60.0087C178.426 60.1592 178.228 60.2821 177.997 60.3775C177.771 60.4678 177.52 60.5129 177.244 60.5129ZM181.4 62.0783C181.319 62.0783 181.237 62.0708 181.151 62.0557C181.071 62.0457 180.991 62.0256 180.91 61.9955V61.4687C180.961 61.4737 181.023 61.4813 181.099 61.4913C181.179 61.5063 181.259 61.5139 181.339 61.5139C181.585 61.5139 181.773 61.4612 181.904 61.3558C182.034 61.2555 182.162 61.0598 182.288 60.7688L182.544 60.1667L182.529 60.6634L180.82 56.3887H181.43L182.83 59.9184H182.672L184.064 56.3887H184.689L182.845 60.9344C182.764 61.13 182.662 61.3157 182.536 61.4913C182.416 61.6669 182.263 61.8074 182.077 61.9128C181.891 62.0231 181.666 62.0783 181.4 62.0783ZM187.167 60.5129C186.786 60.5129 186.44 60.4226 186.129 60.242C185.818 60.0563 185.569 59.8055 185.384 59.4894C185.203 59.1683 185.113 58.8045 185.113 58.3981C185.113 57.9967 185.203 57.638 185.384 57.3219C185.564 57.0058 185.808 56.7575 186.114 56.5768C186.425 56.3912 186.776 56.2984 187.167 56.2984C187.559 56.2984 187.907 56.3887 188.213 56.5693C188.525 56.7499 188.768 56.9983 188.943 57.3144C189.124 57.6305 189.214 57.9917 189.214 58.3981C189.214 58.8095 189.122 59.1758 188.936 59.4969C188.75 59.813 188.502 60.0614 188.191 60.242C187.885 60.4226 187.544 60.5129 187.167 60.5129ZM187.167 59.9485C187.438 59.9485 187.682 59.8807 187.897 59.7453C188.118 59.6098 188.291 59.4242 188.417 59.1883C188.547 58.9525 188.612 58.6891 188.612 58.3981C188.612 58.1071 188.547 57.8462 188.417 57.6154C188.291 57.3846 188.118 57.2015 187.897 57.066C187.682 56.9306 187.438 56.8628 187.167 56.8628C186.896 56.8628 186.651 56.9306 186.43 57.066C186.214 57.2015 186.041 57.3846 185.911 57.6154C185.78 57.8462 185.715 58.1071 185.715 58.3981C185.715 58.6891 185.78 58.9525 185.911 59.1883C186.041 59.4242 186.214 59.6098 186.43 59.7453C186.651 59.8807 186.896 59.9485 187.167 59.9485ZM191.64 60.5129C191.359 60.5129 191.103 60.4477 190.872 60.3172C190.641 60.1818 190.458 59.9961 190.323 59.7603C190.192 59.5195 190.127 59.2435 190.127 58.9325V56.3887H190.692V58.8647C190.692 59.0805 190.734 59.2711 190.82 59.4367C190.91 59.5973 191.033 59.7227 191.188 59.813C191.349 59.9033 191.532 59.9485 191.738 59.9485C191.943 59.9485 192.127 59.9033 192.287 59.813C192.448 59.7177 192.573 59.5847 192.663 59.4141C192.754 59.2385 192.799 59.0303 192.799 58.7895V56.3887H193.363V60.4226H192.799V59.6399L192.927 59.67C192.831 59.9309 192.668 60.1366 192.438 60.2871C192.207 60.4377 191.941 60.5129 191.64 60.5129ZM194.524 60.4226V56.3887H195.089V57.051L195.013 56.9531C195.109 56.7625 195.252 56.612 195.442 56.5016C195.638 56.3912 195.874 56.336 196.15 56.336H196.406V56.9004H196.052C195.761 56.9004 195.528 56.9908 195.352 57.1714C195.176 57.352 195.089 57.6079 195.089 57.939V60.4226H194.524ZM198.346 60.4226V54.7254H198.91V60.4226H198.346ZM200.261 60.4226V59.5947H200.863V60.4226H200.261ZM201.767 60.4226V59.5947H202.369V60.4226H201.767ZM203.272 60.4226V59.5947H203.874V60.4226H203.272Z" fill="#4D5461"/>
<circle cx="187.22" cy="24.052" r="14.6992" fill="#7065F0" stroke="#E0DEF7" stroke-width="0.705561"/>
<g clip-path="url(#clip0_354_4833)">
<path d="M182.83 24.052H181.575L187.22 18.4075L192.864 24.052H191.61" stroke="white" stroke-width="1.41112" stroke-linecap="round" stroke-linejoin="round"/>
<path d="M182.83 24.052V28.4422C182.83 28.7748 182.962 29.0939 183.197 29.3291C183.432 29.5643 183.751 29.6965 184.084 29.6965H190.356C190.688 29.6965 191.007 29.5643 191.243 29.3291C191.478 29.0939 191.61 28.7748 191.61 28.4422V24.052" stroke="white" stroke-width="1.41112" stroke-linecap="round" stroke-linejoin="round"/>
<path d="M185.338 24.9927L186.593 26.2471L189.101 23.7384" stroke="white" stroke-width="1.41112" stroke-linecap="round" stroke-linejoin="round"/>
</g>
<defs>
<filter id="filter0_d_354_4833" x="0.481312" y="0.533314" width="240.361" height="99.7193" filterUnits="userSpaceOnUse" color-interpolation-filters="sRGB">
<feFlood flood-opacity="0" result="BackgroundImageFix"/>
<feColorMatrix in="SourceAlpha" type="matrix" values="0 0 0 0 0 0 0 0 0 0 0 0 0 0 0 0 0 0 127 0" result="hardAlpha"/>
<feOffset/>
<feGaussianBlur stdDeviation="11.7593"/>
<feComposite in2="hardAlpha" operator="out"/>
<feColorMatrix type="matrix" values="0 0 0 0 0.439216 0 0 0 0 0.396078 0 0 0 0 0.941176 0 0 0 0.2 0"/>
<feBlend mode="normal" in2="BackgroundImageFix" result="effect1_dropShadow_354_4833"/>
<feBlend mode="normal" in="SourceGraphic" in2="effect1_dropShadow_354_4833" result="shape"/>
</filter>
<clipPath id="clip0_354_4833">
<rect width="15.052" height="15.052" fill="white" transform="translate(179.694 16.526)"/>
</clipPath>
</defs>
</svg>
