<svg width="425" height="183" viewBox="0 0 425 183" fill="none" xmlns="http://www.w3.org/2000/svg">
<g filter="url(#filter0_d_38_2741)">
<rect x="30" y="43" width="352" height="96.1561" rx="6.86829" fill="white"/>
<rect x="30.6439" y="43.6439" width="350.712" height="94.8683" rx="6.22439" stroke="#E0DEF7" stroke-width="1.2878"/>
</g>
<circle cx="84.9463" cy="91.0782" r="26.6146" fill="#F0EFFB" stroke="#D9D6F5" stroke-width="1.71707"/>
<path d="M81.5123 102.525H88.3806C94.1041 102.525 96.3936 100.236 96.3936 94.5124V87.6441C96.3936 81.9205 94.1041 79.6311 88.3806 79.6311H81.5123C75.7887 79.6311 73.4993 81.9205 73.4993 87.6441V94.5124C73.4993 100.236 75.7887 102.525 81.5123 102.525Z" stroke="#7065F0" stroke-width="2.57561" stroke-linecap="round" stroke-linejoin="round"/>
<path d="M81.6266 91.0781V89.384C81.6266 87.1975 83.172 86.3161 85.0607 87.4036L86.526 88.2507L87.9912 89.0978C89.88 90.1853 89.88 91.971 87.9912 93.0585L86.526 93.9056L85.0607 94.7527C83.172 95.8401 81.6266 94.9473 81.6266 92.7723V91.0781Z" stroke="#7065F0" stroke-width="2.57561" stroke-miterlimit="10" stroke-linecap="round" stroke-linejoin="round"/>
<path d="M137.678 86.7197L133.213 73.9275H135.755L139.257 84.5218H138.759L142.262 73.9275H144.804L140.356 86.7197H137.678ZM145.959 86.7197V77.3788H148.208V86.7197H145.959ZM145.959 76.3314V73.9275H148.208V76.3314H145.959ZM150.199 86.7197V77.3788H152.311V79.4564L152.139 79.1474C152.357 78.4491 152.694 77.9626 153.152 77.6879C153.622 77.4131 154.183 77.2758 154.835 77.2758H155.384V79.2676H154.577C153.936 79.2676 153.421 79.4679 153.032 79.8685C152.643 80.2577 152.448 80.8072 152.448 81.5169V86.7197H150.199ZM161.045 86.8227C159.992 86.8227 159.174 86.5365 158.59 85.9642C158.017 85.3803 157.731 84.5619 157.731 83.5087V79.3878H156.117V77.3788H156.289C156.747 77.3788 157.102 77.2586 157.353 77.0182C157.605 76.7778 157.731 76.4287 157.731 75.9708V75.2496H159.981V77.3788H162.127V79.3878H159.981V83.3885C159.981 83.6976 160.032 83.9609 160.135 84.1784C160.25 84.3959 160.421 84.5619 160.65 84.6763C160.891 84.7908 161.194 84.8481 161.56 84.8481C161.64 84.8481 161.732 84.8423 161.835 84.8309C161.949 84.8194 162.058 84.808 162.161 84.7965V86.7197C162.001 86.7426 161.818 86.7655 161.612 86.7883C161.406 86.8112 161.217 86.8227 161.045 86.8227ZM167.125 86.9257C166.404 86.9257 165.774 86.7655 165.236 86.4449C164.71 86.1244 164.303 85.678 164.017 85.1056C163.742 84.5333 163.605 83.8636 163.605 83.0966V77.3788H165.854V82.9078C165.854 83.297 165.929 83.6404 166.078 83.938C166.238 84.2242 166.461 84.4531 166.747 84.6248C167.045 84.7851 167.377 84.8652 167.743 84.8652C168.11 84.8652 168.436 84.7851 168.722 84.6248C169.008 84.4531 169.231 84.2185 169.392 83.9208C169.552 83.6232 169.632 83.2683 169.632 82.8563V77.3788H171.881V86.7197H169.752V84.8824L169.941 85.2086C169.724 85.781 169.363 86.2103 168.859 86.4964C168.367 86.7826 167.789 86.9257 167.125 86.9257ZM176.72 86.9257C176.067 86.9257 175.501 86.817 175.02 86.5995C174.539 86.382 174.167 86.0729 173.904 85.6723C173.64 85.2602 173.509 84.7851 173.509 84.2471C173.509 83.732 173.623 83.2741 173.852 82.8734C174.081 82.4613 174.436 82.1179 174.917 81.8432C175.397 81.5684 176.004 81.3738 176.737 81.2594L179.793 80.7614V82.4785L177.166 82.9249C176.72 83.0051 176.388 83.1482 176.17 83.3542C175.953 83.5603 175.844 83.8293 175.844 84.1612C175.844 84.4817 175.964 84.7393 176.205 84.9339C176.456 85.1171 176.765 85.2086 177.132 85.2086C177.601 85.2086 178.013 85.1113 178.368 84.9167C178.734 84.7107 179.015 84.4302 179.209 84.0754C179.415 83.7205 179.518 83.3313 179.518 82.9078V80.5039C179.518 80.1032 179.358 79.7712 179.038 79.508C178.729 79.2332 178.317 79.0959 177.801 79.0959C177.321 79.0959 176.891 79.2275 176.514 79.4908C176.147 79.7426 175.878 80.0803 175.707 80.5039L173.869 79.611C174.052 79.1188 174.339 78.6952 174.728 78.3403C175.128 77.974 175.598 77.6879 176.136 77.4818C176.674 77.2758 177.258 77.1727 177.887 77.1727C178.654 77.1727 179.33 77.3158 179.913 77.602C180.497 77.8767 180.949 78.2659 181.27 78.7696C181.602 79.2618 181.768 79.8399 181.768 80.5039V86.7197H179.639V85.1228L180.119 85.0884C179.879 85.4891 179.593 85.8268 179.261 86.1015C178.929 86.3648 178.551 86.5709 178.128 86.7197C177.704 86.857 177.235 86.9257 176.72 86.9257ZM183.761 86.7197V73.7214H186.01V86.7197H183.761ZM190.967 86.7197V73.7214H193.217V79.2161L192.908 78.8898C193.125 78.3289 193.48 77.9054 193.972 77.6192C194.476 77.3216 195.06 77.1727 195.724 77.1727C196.41 77.1727 197.017 77.3216 197.544 77.6192C198.082 77.9168 198.5 78.3346 198.797 78.8726C199.095 79.3992 199.244 80.0116 199.244 80.7099V86.7197H196.994V81.2422C196.994 80.8301 196.914 80.4752 196.754 80.1776C196.594 79.88 196.37 79.651 196.084 79.4908C195.809 79.3191 195.483 79.2332 195.105 79.2332C194.739 79.2332 194.413 79.3191 194.127 79.4908C193.841 79.651 193.617 79.88 193.457 80.1776C193.297 80.4752 193.217 80.8301 193.217 81.2422V86.7197H190.967ZM205.627 86.9257C204.711 86.9257 203.876 86.7139 203.12 86.2904C202.376 85.8669 201.781 85.2888 201.335 84.5562C200.9 83.8235 200.682 82.9879 200.682 82.0492C200.682 81.1106 200.9 80.2749 201.335 79.5423C201.781 78.8097 202.376 78.2316 203.12 77.8081C203.864 77.3845 204.7 77.1727 205.627 77.1727C206.543 77.1727 207.373 77.3845 208.117 77.8081C208.861 78.2316 209.451 78.8097 209.886 79.5423C210.332 80.2635 210.555 81.0991 210.555 82.0492C210.555 82.9879 210.332 83.8235 209.886 84.5562C209.439 85.2888 208.844 85.8669 208.1 86.2904C207.356 86.7139 206.532 86.9257 205.627 86.9257ZM205.627 84.8652C206.131 84.8652 206.572 84.745 206.949 84.5046C207.339 84.2643 207.642 83.9323 207.859 83.5087C208.088 83.0737 208.203 82.5872 208.203 82.0492C208.203 81.4998 208.088 81.019 207.859 80.6069C207.642 80.1833 207.339 79.8514 206.949 79.611C206.572 79.3591 206.131 79.2332 205.627 79.2332C205.112 79.2332 204.66 79.3591 204.271 79.611C203.882 79.8514 203.572 80.1833 203.344 80.6069C203.126 81.019 203.017 81.4998 203.017 82.0492C203.017 82.5872 203.126 83.0737 203.344 83.5087C203.572 83.9323 203.882 84.2643 204.271 84.5046C204.66 84.745 205.112 84.8652 205.627 84.8652ZM212.175 86.7197V77.3788H214.287V79.5423L214.047 79.1817C214.219 78.5063 214.562 78.0027 215.077 77.6707C215.592 77.3387 216.199 77.1727 216.897 77.1727C217.664 77.1727 218.339 77.3731 218.923 77.7737C219.507 78.1744 219.885 78.7009 220.057 79.3534L219.421 79.4049C219.707 78.6609 220.137 78.1057 220.709 77.7394C221.281 77.3616 221.94 77.1727 222.684 77.1727C223.348 77.1727 223.937 77.3216 224.452 77.6192C224.979 77.9168 225.391 78.3346 225.689 78.8726C225.986 79.3992 226.135 80.0116 226.135 80.7099V86.7197H223.886V81.2422C223.886 80.8301 223.811 80.4752 223.662 80.1776C223.514 79.88 223.308 79.651 223.044 79.4908C222.781 79.3191 222.46 79.2332 222.083 79.2332C221.728 79.2332 221.413 79.3191 221.138 79.4908C220.864 79.651 220.652 79.88 220.503 80.1776C220.354 80.4752 220.28 80.8301 220.28 81.2422V86.7197H218.03V81.2422C218.03 80.8301 217.956 80.4752 217.807 80.1776C217.658 79.88 217.447 79.651 217.172 79.4908C216.909 79.3191 216.594 79.2332 216.227 79.2332C215.873 79.2332 215.558 79.3191 215.283 79.4908C215.008 79.651 214.797 79.88 214.648 80.1776C214.499 80.4752 214.425 80.8301 214.425 81.2422V86.7197H212.175ZM232.382 86.9257C231.421 86.9257 230.579 86.7082 229.858 86.2732C229.137 85.8382 228.576 85.2487 228.175 84.5046C227.775 83.7606 227.574 82.9364 227.574 82.0321C227.574 81.0934 227.775 80.2635 228.175 79.5423C228.587 78.8097 229.143 78.2316 229.841 77.8081C230.551 77.3845 231.34 77.1727 232.21 77.1727C232.943 77.1727 233.584 77.2929 234.134 77.5333C234.695 77.7737 235.17 78.1057 235.559 78.5292C235.948 78.9528 236.246 79.4393 236.452 79.9887C236.658 80.5268 236.761 81.1106 236.761 81.7402C236.761 81.9004 236.749 82.0664 236.726 82.2381C236.715 82.4098 236.686 82.5586 236.641 82.6845H229.429V80.9675H235.37L234.305 81.7745C234.408 81.2479 234.38 80.7786 234.219 80.3665C234.071 79.9544 233.819 79.6282 233.464 79.3878C233.121 79.1474 232.703 79.0272 232.21 79.0272C231.741 79.0272 231.323 79.1474 230.957 79.3878C230.591 79.6167 230.31 79.9601 230.116 80.418C229.932 80.8644 229.864 81.4082 229.91 82.0492C229.864 82.6216 229.938 83.131 230.133 83.5774C230.339 84.0124 230.636 84.3501 231.026 84.5905C231.426 84.8309 231.884 84.9511 232.399 84.9511C232.914 84.9511 233.349 84.8423 233.704 84.6248C234.071 84.4073 234.357 84.1154 234.563 83.7491L236.383 84.642C236.2 85.0884 235.914 85.4834 235.524 85.8268C235.135 86.1702 234.672 86.4392 234.134 86.6338C233.607 86.8284 233.023 86.9257 232.382 86.9257ZM245.604 86.8227C244.551 86.8227 243.733 86.5365 243.149 85.9642C242.577 85.3803 242.29 84.5619 242.29 83.5087V79.3878H240.676V77.3788H240.848C241.306 77.3788 241.661 77.2586 241.913 77.0182C242.164 76.7778 242.29 76.4287 242.29 75.9708V75.2496H244.54V77.3788H246.686V79.3878H244.54V83.3885C244.54 83.6976 244.591 83.9609 244.694 84.1784C244.809 84.3959 244.98 84.5619 245.209 84.6763C245.45 84.7908 245.753 84.8481 246.119 84.8481C246.2 84.8481 246.291 84.8423 246.394 84.8309C246.509 84.8194 246.617 84.808 246.72 84.7965V86.7197C246.56 86.7426 246.377 86.7655 246.171 86.7883C245.965 86.8112 245.776 86.8227 245.604 86.8227ZM252.837 86.9257C251.921 86.9257 251.085 86.7139 250.33 86.2904C249.586 85.8669 248.99 85.2888 248.544 84.5562C248.109 83.8235 247.892 82.9879 247.892 82.0492C247.892 81.1106 248.109 80.2749 248.544 79.5423C248.99 78.8097 249.586 78.2316 250.33 77.8081C251.074 77.3845 251.909 77.1727 252.837 77.1727C253.752 77.1727 254.582 77.3845 255.326 77.8081C256.071 78.2316 256.66 78.8097 257.095 79.5423C257.541 80.2635 257.765 81.0991 257.765 82.0492C257.765 82.9879 257.541 83.8235 257.095 84.5562C256.649 85.2888 256.053 85.8669 255.309 86.2904C254.565 86.7139 253.741 86.9257 252.837 86.9257ZM252.837 84.8652C253.34 84.8652 253.781 84.745 254.159 84.5046C254.548 84.2643 254.851 83.9323 255.069 83.5087C255.298 83.0737 255.412 82.5872 255.412 82.0492C255.412 81.4998 255.298 81.019 255.069 80.6069C254.851 80.1833 254.548 79.8514 254.159 79.611C253.781 79.3591 253.34 79.2332 252.837 79.2332C252.322 79.2332 251.869 79.3591 251.48 79.611C251.091 79.8514 250.782 80.1833 250.553 80.6069C250.335 81.019 250.227 81.4998 250.227 82.0492C250.227 82.5872 250.335 83.0737 250.553 83.5087C250.782 83.9323 251.091 84.2643 251.48 84.5046C251.869 84.745 252.322 84.8652 252.837 84.8652ZM262.716 86.9257C261.995 86.9257 261.365 86.7655 260.827 86.4449C260.3 86.1244 259.894 85.678 259.608 85.1056C259.333 84.5333 259.196 83.8636 259.196 83.0966V77.3788H261.445V82.9078C261.445 83.297 261.52 83.6404 261.668 83.938C261.829 84.2242 262.052 84.4531 262.338 84.6248C262.636 84.7851 262.968 84.8652 263.334 84.8652C263.7 84.8652 264.026 84.7851 264.313 84.6248C264.599 84.4531 264.822 84.2185 264.982 83.9208C265.143 83.6232 265.223 83.2683 265.223 82.8563V77.3788H267.472V86.7197H265.343V84.8824L265.532 85.2086C265.314 85.781 264.954 86.2103 264.45 86.4964C263.958 86.7826 263.38 86.9257 262.716 86.9257ZM269.477 86.7197V77.3788H271.589V79.4564L271.417 79.1474C271.635 78.4491 271.973 77.9626 272.43 77.6879C272.9 77.4131 273.461 77.2758 274.113 77.2758H274.663V79.2676H273.856C273.215 79.2676 272.7 79.4679 272.31 79.8685C271.921 80.2577 271.726 80.8072 271.726 81.5169V86.7197H269.477Z" fill="#100A55"/>
<path d="M136.115 111.437L133.176 101.203H134.288L136.829 110.365H136.596L139.206 101.203H140.373L142.97 110.365H142.722L145.277 101.203H146.39L143.45 111.437H142.283L139.659 102.233H139.906L137.283 111.437H136.115ZM150.406 111.602C149.719 111.602 149.096 111.437 148.538 111.107C147.988 110.768 147.553 110.306 147.233 109.72C146.912 109.134 146.752 108.47 146.752 107.728C146.752 106.986 146.908 106.331 147.219 105.764C147.53 105.187 147.952 104.733 148.483 104.404C149.023 104.074 149.627 103.909 150.296 103.909C150.827 103.909 151.299 104.01 151.711 104.211C152.132 104.404 152.489 104.669 152.782 105.008C153.075 105.338 153.3 105.713 153.455 106.134C153.611 106.547 153.689 106.972 153.689 107.412C153.689 107.504 153.684 107.609 153.675 107.728C153.666 107.838 153.652 107.952 153.634 108.071H147.411V107.11H153.043L152.549 107.522C152.631 107.018 152.572 106.569 152.37 106.176C152.178 105.773 151.899 105.457 151.532 105.228C151.166 104.99 150.754 104.871 150.296 104.871C149.838 104.871 149.412 104.99 149.018 105.228C148.634 105.466 148.332 105.8 148.112 106.231C147.892 106.652 147.805 107.156 147.851 107.742C147.805 108.328 147.897 108.841 148.126 109.28C148.364 109.711 148.684 110.045 149.087 110.283C149.499 110.521 149.939 110.64 150.406 110.64C150.946 110.64 151.399 110.512 151.766 110.255C152.132 109.999 152.43 109.678 152.659 109.294L153.538 109.761C153.391 110.091 153.167 110.397 152.865 110.681C152.562 110.956 152.201 111.18 151.779 111.354C151.367 111.519 150.909 111.602 150.406 111.602ZM157.839 114.184V104.074H158.87V105.722L158.705 105.434C158.998 104.967 159.387 104.596 159.872 104.321C160.367 104.046 160.93 103.909 161.562 103.909C162.258 103.909 162.876 104.079 163.417 104.417C163.966 104.747 164.396 105.2 164.708 105.777C165.028 106.354 165.189 107.014 165.189 107.755C165.189 108.488 165.028 109.147 164.708 109.733C164.396 110.31 163.966 110.768 163.417 111.107C162.876 111.437 162.258 111.602 161.562 111.602C160.93 111.602 160.358 111.46 159.845 111.176C159.341 110.883 158.961 110.471 158.705 109.939L158.87 109.788V114.184H157.839ZM161.507 110.571C162.002 110.571 162.441 110.448 162.826 110.2C163.22 109.953 163.526 109.619 163.746 109.198C163.975 108.767 164.09 108.287 164.09 107.755C164.09 107.215 163.975 106.734 163.746 106.313C163.526 105.892 163.22 105.558 162.826 105.31C162.441 105.063 162.002 104.939 161.507 104.939C161.013 104.939 160.564 105.063 160.161 105.31C159.767 105.558 159.451 105.896 159.213 106.327C158.984 106.748 158.87 107.224 158.87 107.755C158.87 108.287 158.984 108.767 159.213 109.198C159.451 109.619 159.767 109.953 160.161 110.2C160.564 110.448 161.013 110.571 161.507 110.571ZM167.002 111.437V104.074H168.032V105.283L167.895 105.104C168.069 104.756 168.33 104.481 168.678 104.28C169.035 104.079 169.465 103.978 169.969 103.978H170.436V105.008H169.79C169.259 105.008 168.833 105.173 168.513 105.503C168.192 105.832 168.032 106.299 168.032 106.904V111.437H167.002ZM175.091 111.602C174.395 111.602 173.763 111.437 173.195 111.107C172.628 110.768 172.174 110.31 171.835 109.733C171.506 109.147 171.341 108.483 171.341 107.742C171.341 107.009 171.506 106.354 171.835 105.777C172.165 105.2 172.609 104.747 173.168 104.417C173.736 104.079 174.377 103.909 175.091 103.909C175.805 103.909 176.442 104.074 177 104.404C177.568 104.733 178.012 105.187 178.333 105.764C178.663 106.34 178.827 107 178.827 107.742C178.827 108.493 178.658 109.161 178.319 109.747C177.98 110.324 177.527 110.777 176.959 111.107C176.401 111.437 175.778 111.602 175.091 111.602ZM175.091 110.571C175.586 110.571 176.03 110.448 176.423 110.2C176.826 109.953 177.142 109.614 177.371 109.184C177.609 108.754 177.728 108.273 177.728 107.742C177.728 107.21 177.609 106.734 177.371 106.313C177.142 105.892 176.826 105.558 176.423 105.31C176.03 105.063 175.586 104.939 175.091 104.939C174.596 104.939 174.148 105.063 173.745 105.31C173.351 105.558 173.035 105.892 172.797 106.313C172.559 106.734 172.44 107.21 172.44 107.742C172.44 108.273 172.559 108.754 172.797 109.184C173.035 109.614 173.351 109.953 173.745 110.2C174.148 110.448 174.596 110.571 175.091 110.571ZM182.475 111.437L179.604 104.074H180.757L183.175 110.53H182.804L185.236 104.074H186.403L183.505 111.437H182.475ZM187.607 111.437V104.074H188.637V111.437H187.607ZM187.607 102.714V101.203H188.637V102.714H187.607ZM194.07 111.602C193.383 111.602 192.765 111.437 192.215 111.107C191.666 110.768 191.231 110.31 190.91 109.733C190.599 109.147 190.443 108.488 190.443 107.755C190.443 107.014 190.599 106.354 190.91 105.777C191.231 105.2 191.661 104.747 192.202 104.417C192.751 104.079 193.374 103.909 194.07 103.909C194.702 103.909 195.265 104.046 195.759 104.321C196.254 104.596 196.643 104.967 196.927 105.434L196.762 105.722V101.038H197.792V111.437H196.762V109.788L196.927 109.939C196.671 110.471 196.286 110.883 195.773 111.176C195.269 111.46 194.702 111.602 194.07 111.602ZM194.125 110.571C194.619 110.571 195.063 110.448 195.457 110.2C195.86 109.953 196.176 109.619 196.405 109.198C196.643 108.767 196.762 108.287 196.762 107.755C196.762 107.224 196.643 106.748 196.405 106.327C196.176 105.896 195.86 105.558 195.457 105.31C195.063 105.063 194.619 104.939 194.125 104.939C193.639 104.939 193.2 105.063 192.806 105.31C192.412 105.558 192.101 105.892 191.872 106.313C191.652 106.734 191.542 107.215 191.542 107.755C191.542 108.287 191.652 108.767 191.872 109.198C192.101 109.619 192.408 109.953 192.792 110.2C193.186 110.448 193.63 110.571 194.125 110.571ZM203.259 111.602C202.573 111.602 201.95 111.437 201.391 111.107C200.842 110.768 200.407 110.306 200.086 109.72C199.766 109.134 199.606 108.47 199.606 107.728C199.606 106.986 199.761 106.331 200.073 105.764C200.384 105.187 200.805 104.733 201.336 104.404C201.877 104.074 202.481 103.909 203.15 103.909C203.681 103.909 204.152 104.01 204.564 104.211C204.986 104.404 205.343 104.669 205.636 105.008C205.929 105.338 206.153 105.713 206.309 106.134C206.465 106.547 206.543 106.972 206.543 107.412C206.543 107.504 206.538 107.609 206.529 107.728C206.52 107.838 206.506 107.952 206.488 108.071H200.265V107.11H205.897L205.402 107.522C205.485 107.018 205.425 106.569 205.224 106.176C205.031 105.773 204.752 105.457 204.386 105.228C204.02 104.99 203.607 104.871 203.15 104.871C202.692 104.871 202.266 104.99 201.872 105.228C201.487 105.466 201.185 105.8 200.965 106.231C200.746 106.652 200.659 107.156 200.704 107.742C200.659 108.328 200.75 108.841 200.979 109.28C201.217 109.711 201.538 110.045 201.941 110.283C202.353 110.521 202.792 110.64 203.259 110.64C203.8 110.64 204.253 110.512 204.619 110.255C204.986 109.999 205.283 109.678 205.512 109.294L206.391 109.761C206.245 110.091 206.021 110.397 205.718 110.681C205.416 110.956 205.054 111.18 204.633 111.354C204.221 111.519 203.763 111.602 203.259 111.602ZM210.844 114.459C210.698 114.459 210.547 114.445 210.391 114.418C210.244 114.399 210.098 114.363 209.951 114.308V113.346C210.043 113.355 210.157 113.369 210.295 113.387C210.441 113.415 210.588 113.429 210.734 113.429C211.183 113.429 211.526 113.332 211.765 113.14C212.003 112.957 212.236 112.6 212.465 112.069L212.932 110.97L212.905 111.876L209.786 104.074H210.899L213.454 110.516H213.166L215.707 104.074H216.847L213.482 112.371C213.335 112.728 213.147 113.067 212.918 113.387C212.699 113.708 212.419 113.964 212.081 114.157C211.742 114.358 211.33 114.459 210.844 114.459ZM221.371 111.602C220.675 111.602 220.044 111.437 219.476 111.107C218.908 110.768 218.455 110.31 218.116 109.733C217.786 109.147 217.621 108.483 217.621 107.742C217.621 107.009 217.786 106.354 218.116 105.777C218.446 105.2 218.89 104.747 219.448 104.417C220.016 104.079 220.657 103.909 221.371 103.909C222.086 103.909 222.722 104.074 223.281 104.404C223.849 104.733 224.293 105.187 224.613 105.764C224.943 106.34 225.108 107 225.108 107.742C225.108 108.493 224.938 109.161 224.6 109.747C224.261 110.324 223.807 110.777 223.24 111.107C222.681 111.437 222.058 111.602 221.371 111.602ZM221.371 110.571C221.866 110.571 222.31 110.448 222.704 110.2C223.107 109.953 223.423 109.614 223.652 109.184C223.89 108.754 224.009 108.273 224.009 107.742C224.009 107.21 223.89 106.734 223.652 106.313C223.423 105.892 223.107 105.558 222.704 105.31C222.31 105.063 221.866 104.939 221.371 104.939C220.877 104.939 220.428 105.063 220.025 105.31C219.632 105.558 219.316 105.892 219.077 106.313C218.839 106.734 218.72 107.21 218.72 107.742C218.72 108.273 218.839 108.754 219.077 109.184C219.316 109.614 219.632 109.953 220.025 110.2C220.428 110.448 220.877 110.571 221.371 110.571ZM229.535 111.602C229.022 111.602 228.555 111.483 228.134 111.244C227.712 110.997 227.378 110.658 227.131 110.228C226.893 109.788 226.774 109.285 226.774 108.717V104.074H227.804V108.593C227.804 108.987 227.882 109.335 228.037 109.637C228.202 109.93 228.427 110.159 228.711 110.324C229.004 110.489 229.338 110.571 229.713 110.571C230.089 110.571 230.423 110.489 230.716 110.324C231.009 110.15 231.238 109.907 231.403 109.596C231.568 109.276 231.65 108.895 231.65 108.456V104.074H232.68V111.437H231.65V110.008L231.884 110.063C231.71 110.539 231.412 110.915 230.991 111.19C230.57 111.464 230.084 111.602 229.535 111.602ZM238.754 111.437L236.227 104.074H237.394L239.482 110.516H239.07L241.035 104.074H242.065L244.029 110.516H243.617L245.719 104.074H246.873L244.345 111.437H243.315L241.405 105.132H241.694L239.785 111.437H238.754ZM248.08 111.437V104.074H249.11V111.437H248.08ZM248.08 102.714V101.203H249.11V102.714H248.08ZM254.035 111.519C253.375 111.519 252.867 111.327 252.51 110.942C252.153 110.558 251.974 110.008 251.974 109.294V105.104H250.614V104.074H250.958C251.269 104.074 251.516 103.973 251.7 103.772C251.883 103.561 251.974 103.3 251.974 102.989V102.371H253.004V104.074H254.625V105.104H253.004V109.294C253.004 109.541 253.041 109.761 253.114 109.953C253.188 110.136 253.311 110.283 253.485 110.393C253.668 110.503 253.911 110.558 254.213 110.558C254.287 110.558 254.374 110.553 254.474 110.544C254.575 110.535 254.662 110.526 254.735 110.516V111.437C254.625 111.464 254.502 111.483 254.364 111.492C254.227 111.51 254.117 111.519 254.035 111.519ZM256.544 111.437V101.038H257.575V105.503L257.341 105.448C257.524 104.971 257.822 104.596 258.234 104.321C258.655 104.046 259.141 103.909 259.69 103.909C260.212 103.909 260.679 104.028 261.091 104.266C261.512 104.504 261.842 104.834 262.08 105.255C262.327 105.667 262.451 106.134 262.451 106.656V111.437H261.421V107.055C261.421 106.606 261.338 106.226 261.174 105.915C261.009 105.603 260.78 105.365 260.487 105.2C260.203 105.026 259.878 104.939 259.511 104.939C259.145 104.939 258.815 105.026 258.522 105.2C258.229 105.365 257.996 105.608 257.822 105.928C257.657 106.24 257.575 106.615 257.575 107.055V111.437H256.544ZM268.717 111.437L265.846 104.074H267L269.418 110.53H269.047L271.478 104.074H272.646L269.747 111.437H268.717ZM273.849 111.437V104.074H274.879V111.437H273.849ZM273.849 102.714V101.203H274.879V102.714H273.849ZM276.988 111.437V104.074H278.018V105.283L277.881 105.104C278.055 104.756 278.316 104.481 278.664 104.28C279.021 104.079 279.452 103.978 279.955 103.978H280.422V105.008H279.777C279.246 105.008 278.82 105.173 278.499 105.503C278.179 105.832 278.018 106.299 278.018 106.904V111.437H276.988ZM284.446 111.519C283.786 111.519 283.278 111.327 282.921 110.942C282.564 110.558 282.385 110.008 282.385 109.294V105.104H281.025V104.074H281.369C281.68 104.074 281.927 103.973 282.11 103.772C282.294 103.561 282.385 103.3 282.385 102.989V102.371H283.415V104.074H285.036V105.104H283.415V109.294C283.415 109.541 283.452 109.761 283.525 109.953C283.599 110.136 283.722 110.283 283.896 110.393C284.079 110.503 284.322 110.558 284.624 110.558C284.698 110.558 284.785 110.553 284.885 110.544C284.986 110.535 285.073 110.526 285.146 110.516V111.437C285.036 111.464 284.913 111.483 284.775 111.492C284.638 111.51 284.528 111.519 284.446 111.519ZM289.565 111.602C289.052 111.602 288.585 111.483 288.164 111.244C287.743 110.997 287.409 110.658 287.161 110.228C286.923 109.788 286.804 109.285 286.804 108.717V104.074H287.834V108.593C287.834 108.987 287.912 109.335 288.068 109.637C288.233 109.93 288.457 110.159 288.741 110.324C289.034 110.489 289.368 110.571 289.744 110.571C290.119 110.571 290.454 110.489 290.747 110.324C291.04 110.15 291.269 109.907 291.433 109.596C291.598 109.276 291.681 108.895 291.681 108.456V104.074H292.711V111.437H291.681V110.008L291.914 110.063C291.74 110.539 291.443 110.915 291.021 111.19C290.6 111.464 290.115 111.602 289.565 111.602ZM296.959 111.602C296.492 111.602 296.075 111.515 295.709 111.341C295.343 111.157 295.054 110.91 294.843 110.599C294.633 110.287 294.527 109.93 294.527 109.527C294.527 109.143 294.61 108.795 294.775 108.483C294.94 108.163 295.196 107.893 295.544 107.673C295.892 107.453 296.336 107.297 296.876 107.206L299.761 106.725V107.659L297.124 108.099C296.593 108.19 296.208 108.36 295.97 108.607C295.741 108.854 295.626 109.147 295.626 109.486C295.626 109.816 295.755 110.095 296.011 110.324C296.277 110.553 296.615 110.668 297.028 110.668C297.531 110.668 297.971 110.562 298.346 110.352C298.722 110.132 299.015 109.839 299.225 109.472C299.436 109.106 299.541 108.699 299.541 108.25V106.382C299.541 105.942 299.381 105.585 299.061 105.31C298.74 105.036 298.323 104.898 297.811 104.898C297.362 104.898 296.968 105.013 296.629 105.242C296.29 105.461 296.039 105.75 295.874 106.107L294.94 105.599C295.077 105.287 295.292 105.003 295.585 104.747C295.887 104.491 296.231 104.289 296.615 104.143C297 103.987 297.398 103.909 297.811 103.909C298.351 103.909 298.827 104.014 299.239 104.225C299.66 104.436 299.985 104.729 300.214 105.104C300.453 105.471 300.572 105.896 300.572 106.382V111.437H299.541V109.967L299.692 110.118C299.564 110.393 299.363 110.645 299.088 110.874C298.822 111.093 298.507 111.272 298.14 111.409C297.783 111.538 297.389 111.602 296.959 111.602ZM302.691 111.437V101.038H303.721V111.437H302.691ZM310.98 111.519C310.32 111.519 309.812 111.327 309.455 110.942C309.098 110.558 308.919 110.008 308.919 109.294V105.104H307.559V104.074H307.903C308.214 104.074 308.461 103.973 308.645 103.772C308.828 103.561 308.919 103.3 308.919 102.989V102.371H309.95V104.074H311.571V105.104H309.95V109.294C309.95 109.541 309.986 109.761 310.059 109.953C310.133 110.136 310.256 110.283 310.43 110.393C310.614 110.503 310.856 110.558 311.158 110.558C311.232 110.558 311.319 110.553 311.419 110.544C311.52 110.535 311.607 110.526 311.68 110.516V111.437C311.571 111.464 311.447 111.483 311.31 111.492C311.172 111.51 311.062 111.519 310.98 111.519ZM316.669 111.602C315.973 111.602 315.341 111.437 314.773 111.107C314.206 110.768 313.752 110.31 313.413 109.733C313.084 109.147 312.919 108.483 312.919 107.742C312.919 107.009 313.084 106.354 313.413 105.777C313.743 105.2 314.187 104.747 314.746 104.417C315.314 104.079 315.955 103.909 316.669 103.909C317.383 103.909 318.02 104.074 318.578 104.404C319.146 104.733 319.59 105.187 319.911 105.764C320.241 106.34 320.405 107 320.405 107.742C320.405 108.493 320.236 109.161 319.897 109.747C319.558 110.324 319.105 110.777 318.537 111.107C317.979 111.437 317.356 111.602 316.669 111.602ZM316.669 110.571C317.164 110.571 317.608 110.448 318.001 110.2C318.404 109.953 318.72 109.614 318.949 109.184C319.187 108.754 319.306 108.273 319.306 107.742C319.306 107.21 319.187 106.734 318.949 106.313C318.72 105.892 318.404 105.558 318.001 105.31C317.608 105.063 317.164 104.939 316.669 104.939C316.175 104.939 315.726 105.063 315.323 105.31C314.929 105.558 314.613 105.892 314.375 106.313C314.137 106.734 314.018 107.21 314.018 107.742C314.018 108.273 314.137 108.754 314.375 109.184C314.613 109.614 314.929 109.953 315.323 110.2C315.726 110.448 316.175 110.571 316.669 110.571ZM324.832 111.602C324.319 111.602 323.852 111.483 323.431 111.244C323.01 110.997 322.676 110.658 322.428 110.228C322.19 109.788 322.071 109.285 322.071 108.717V104.074H323.102V108.593C323.102 108.987 323.179 109.335 323.335 109.637C323.5 109.93 323.724 110.159 324.008 110.324C324.301 110.489 324.635 110.571 325.011 110.571C325.386 110.571 325.721 110.489 326.014 110.324C326.307 110.15 326.536 109.907 326.701 109.596C326.865 109.276 326.948 108.895 326.948 108.456V104.074H327.978V111.437H326.948V110.008L327.181 110.063C327.007 110.539 326.71 110.915 326.288 111.19C325.867 111.464 325.382 111.602 324.832 111.602ZM330.097 111.437V104.074H331.127V105.283L330.99 105.104C331.164 104.756 331.425 104.481 331.773 104.28C332.13 104.079 332.56 103.978 333.064 103.978H333.531V105.008H332.885C332.354 105.008 331.928 105.173 331.608 105.503C331.287 105.832 331.127 106.299 331.127 106.904V111.437H330.097Z" fill="#4D5461"/>
<defs>
<filter id="filter0_d_38_2741" x="-12.9268" y="0.0731697" width="437.854" height="182.01" filterUnits="userSpaceOnUse" color-interpolation-filters="sRGB">
<feFlood flood-opacity="0" result="BackgroundImageFix"/>
<feColorMatrix in="SourceAlpha" type="matrix" values="0 0 0 0 0 0 0 0 0 0 0 0 0 0 0 0 0 0 127 0" result="hardAlpha"/>
<feOffset/>
<feGaussianBlur stdDeviation="21.4634"/>
<feComposite in2="hardAlpha" operator="out"/>
<feColorMatrix type="matrix" values="0 0 0 0 0.439216 0 0 0 0 0.396078 0 0 0 0 0.941176 0 0 0 0.2 0"/>
<feBlend mode="normal" in2="BackgroundImageFix" result="effect1_dropShadow_38_2741"/>
<feBlend mode="normal" in="SourceGraphic" in2="effect1_dropShadow_38_2741" result="shape"/>
</filter>
</defs>
</svg>
