<svg width="52" height="52" viewBox="0 0 52 52" fill="none" xmlns="http://www.w3.org/2000/svg">
<rect width="52" height="52" rx="12" fill="#F1F5F9"/>
<path d="M18.3267 28.6667C17.2867 28.6667 16.3707 29.196 15.8334 30H24C24.8841 30 25.7319 30.3512 26.3571 30.9763C26.9822 31.6014 27.3334 32.4493 27.3334 33.3333V38.6667C27.3334 38.8813 27.3134 39.0933 27.2734 39.296C31.192 39.048 34.1214 37.6293 35.98 35.02C36.423 34.3988 36.6612 33.655 36.6614 32.892V31.6653C36.6614 30.87 36.3454 30.1073 35.7831 29.545C35.2207 28.9826 34.458 28.6667 33.6627 28.6667H18.3267ZM26 12.6733C25.1246 12.6733 24.2577 12.8458 23.4488 13.1808C22.64 13.5158 21.9051 14.0069 21.286 14.626C20.6669 15.245 20.1759 15.9799 19.8408 16.7888C19.5058 17.5976 19.3334 18.4645 19.3334 19.34C19.3334 20.2155 19.5058 21.0824 19.8408 21.8912C20.1759 22.7001 20.6669 23.435 21.286 24.0541C21.9051 24.6731 22.64 25.1642 23.4488 25.4992C24.2577 25.8342 25.1246 26.0067 26 26.0067C27.7682 26.0067 29.4638 25.3043 30.7141 24.0541C31.9643 22.8038 32.6667 21.1081 32.6667 19.34C32.6667 17.5719 31.9643 15.8762 30.7141 14.626C29.4638 13.3757 27.7682 12.6733 26 12.6733ZM26 33.3333C26 32.8029 25.7893 32.2942 25.4143 31.9191C25.0392 31.5441 24.5305 31.3333 24 31.3333H13.3334C12.8029 31.3333 12.2942 31.5441 11.9192 31.9191C11.5441 32.2942 11.3334 32.8029 11.3334 33.3333V38.6667C11.3334 39.1971 11.5441 39.7058 11.9192 40.0809C12.2942 40.456 12.8029 40.6667 13.3334 40.6667H24C24.5305 40.6667 25.0392 40.456 25.4143 40.0809C25.7893 39.7058 26 39.1971 26 38.6667V33.3333ZM12.6667 34C13.0203 34 13.3595 33.8595 13.6095 33.6095C13.8596 33.3594 14 33.0203 14 32.6667H15.3334C15.3334 33.3739 15.0524 34.0522 14.5523 34.5523C14.0522 35.0524 13.374 35.3333 12.6667 35.3333V34ZM12.6667 36.6667C13.374 36.6667 14.0522 36.9476 14.5523 37.4477C15.0524 37.9478 15.3334 38.6261 15.3334 39.3333H14C14 38.9797 13.8596 38.6406 13.6095 38.3905C13.3595 38.1405 13.0203 38 12.6667 38V36.6667ZM23.3334 32.6667C23.3334 33.0203 23.4739 33.3594 23.7239 33.6095C23.974 33.8595 24.3131 34 24.6667 34V35.3333C23.9595 35.3333 23.2812 35.0524 22.7811 34.5523C22.281 34.0522 22 33.3739 22 32.6667H23.3334ZM22 39.3333C22 38.6261 22.281 37.9478 22.7811 37.4477C23.2812 36.9476 23.9595 36.6667 24.6667 36.6667V38C24.3131 38 23.974 38.1405 23.7239 38.3905C23.4739 38.6406 23.3334 38.9797 23.3334 39.3333H22ZM16.3334 36C16.3334 35.3812 16.5792 34.7877 17.0168 34.3501C17.4544 33.9125 18.0479 33.6667 18.6667 33.6667C19.2855 33.6667 19.879 33.9125 20.3166 34.3501C20.7542 34.7877 21 35.3812 21 36C21 36.6188 20.7542 37.2123 20.3166 37.6499C19.879 38.0875 19.2855 38.3333 18.6667 38.3333C18.0479 38.3333 17.4544 38.0875 17.0168 37.6499C16.5792 37.2123 16.3334 36.6188 16.3334 36Z" fill="#403BD7"/>
</svg>
